<svg id="create_add" data-name="create add" xmlns="http://www.w3.org/2000/svg" width="61.775" height="74.424" viewBox="0 0 61.775 74.424">
  <path id="Path_24533" data-name="Path 24533" d="M11.109,38.781H69.948v9.537H11.109Zm0,0" transform="translate(-9.494 -33.144)" fill="#00b2ca"/>
  <path id="Path_24534" data-name="Path 24534" d="M29.2,104.391h53.58v36.428H29.2Zm0,0" transform="translate(-24.951 -89.216)" fill="rgba(0,178,202,0.2)"/>
  <path id="Path_24535" data-name="Path 24535" d="M195.5,355h7.4V376.35h-7.4Zm0,0" transform="translate(-167.082 -303.394)" fill="#b3b0b5"/>
  <g id="Group_5113" data-name="Group 5113" transform="translate(9.49 1.468)">
    <path id="Path_24536" data-name="Path 24536" d="M180.613,10.1h9.56v7.771h-9.56Zm0,0" transform="translate(-163.849 -10.098)" fill="#f9f9f9"/>
    <path id="Path_24537" data-name="Path 24537" d="M65.285,10.1h9.561v7.771H65.285Zm0,0" transform="translate(-65.285 -10.098)" fill="#f9f9f9"/>
    <path id="Path_24538" data-name="Path 24538" d="M296.707,10.1h9.561v7.771h-9.561Zm0,0" transform="translate(-263.068 -10.098)" fill="#f9f9f9"/>
  </g>
  <path id="Path_24539" data-name="Path 24539" d="M98.172,148.427v-3.778h33.64v23.225H98.172v-7.617" transform="translate(-83.902 -123.623)" fill="#fa6e53"/>
  <path id="Path_24540" data-name="Path 24540" d="M43.1,74.424a1.469,1.469,0,0,0,0-2.936H37.135V60.549H51.778a1.469,1.469,0,0,0,0-2.936H46.5V53.07H57.677A1.468,1.468,0,0,0,59.145,51.6V16.642h1.161a1.468,1.468,0,0,0,1.468-1.468V5.637a1.469,1.469,0,0,0-1.468-1.468h-6.3v-2.7A1.468,1.468,0,0,0,52.543,0h-9.56a1.468,1.468,0,0,0-1.468,1.468v2.7h-4.38v-2.7A1.468,1.468,0,0,0,35.667,0H26.106a1.468,1.468,0,0,0-1.468,1.468v2.7H20.371v-2.7A1.468,1.468,0,0,0,18.9,0H9.343A1.468,1.468,0,0,0,7.874,1.468v2.7H1.467A1.468,1.468,0,0,0,0,5.637v9.537a1.468,1.468,0,0,0,1.468,1.468H2.628V51.6A1.468,1.468,0,0,0,4.1,53.07H17.435v4.543H4.1a1.469,1.469,0,0,0,0,2.936H26.8V71.488H20.833a1.469,1.469,0,0,0,0,2.936ZM44.45,2.935h6.625V7.77H44.45Zm-16.876,0H34.2V7.77H27.574Zm-16.764,0h6.625V7.77H10.811ZM2.935,13.706V7.1H7.875V9.238a1.468,1.468,0,0,0,1.468,1.468H18.9a1.468,1.468,0,0,0,1.468-1.468V7.1h4.268V9.238a1.468,1.468,0,0,0,1.468,1.468h9.56a1.468,1.468,0,0,0,1.468-1.468V7.1h4.379V9.238a1.468,1.468,0,0,0,1.468,1.468h9.561a1.468,1.468,0,0,0,1.468-1.468V7.1h4.828v6.6ZM20.371,57.613V53.07H26.8v4.543ZM34.2,71.489h-4.46V53.07H34.2Zm9.364-13.876H37.135V53.07h6.428Zm-38-7.479V16.642H56.209V50.134Zm0,0" transform="translate(0.001 0)"/>
  <path id="Path_24541" data-name="Path 24541" d="M88.53,141.265A1.468,1.468,0,0,0,90,139.8v-2.31h30.7v20.289H90v-6.149a1.469,1.469,0,0,0-2.936,0v7.617a1.468,1.468,0,0,0,1.468,1.468h33.64a1.468,1.468,0,0,0,1.468-1.468V136.018a1.468,1.468,0,0,0-1.468-1.468H88.53a1.468,1.468,0,0,0-1.468,1.468V139.8a1.468,1.468,0,0,0,1.468,1.468Zm0,0" transform="translate(-74.407 -114.992)"/>
  <path id="Path_24542" data-name="Path 24542" d="M150.856,194.487a1.052,1.052,0,0,0,.835-.584c.089-.16.466-1.8.484-1.8h3.268l.527,1.95c.273,1,2.553.275,2.308-.718l-2.9-9.514c-.359-1.127-2.8-1.127-3.16,0q-1.3,4.29-2.6,8.58c-.218.72-.6,1.438.313,1.882A1.763,1.763,0,0,0,150.856,194.487Zm2.945-8.436,1.131,4.18H152.67Zm0,0" transform="translate(-127.643 -156.378)"/>
  <path id="Path_24543" data-name="Path 24543" d="M223.522,195.253h2.742a4.118,4.118,0,0,0,2.773-.889,3.969,3.969,0,0,0,1.038-3.184q.034-1.574.009-3.149a5.02,5.02,0,0,0-.406-2.373,3.709,3.709,0,0,0-3.414-1.806h-2.742c-.422,0-1.053.208-1.053.733v9.935C222.469,195.045,223.1,195.253,223.522,195.253Zm1.363-9.28c1.27,0,2.773-.176,2.773,1.56v4.039c0,1.732-1.5,1.56-2.773,1.56Zm0,0" transform="translate(-190.131 -157.127)"/>
  <path id="Path_24544" data-name="Path 24544" d="M87.2,203.049A1.467,1.467,0,1,0,88,201.132,1.481,1.481,0,0,0,87.2,203.049Zm0,0" transform="translate(-74.435 -171.802)"/>
  <path id="Path_24545" data-name="Path 24545" d="M387.877,396.385a1.467,1.467,0,1,0,1.6.79A1.482,1.482,0,0,0,387.877,396.385Zm0,0" transform="translate(-330.485 -338.742)"/>
</svg>
