<?xml version="1.0" encoding="UTF-8"?><svg id="Layer_2" xmlns="http://www.w3.org/2000/svg" viewBox="0 0 332.24 383.34"><g id="Layer_1-2"><g id="two"><path d="m21.7,383.34c-1.77-.57-3.59-1.01-5.29-1.74-10.24-4.45-16.19-12.29-16.25-23.43-.23-42.78-.19-85.56-.04-128.34.05-14.29,11.3-25.17,25.63-25.33,10.48-.12,20.96-.18,31.43.01,11.32.21,19.45,5.58,23.89,16.06.92,2.17,1.95,3.02,4.1,2.37,6.29-1.9,13.07-2.91,18.77-5.94,17.09-9.07,32.38-20.65,44.2-36.22,8.71-11.47,12.75-24.14,8.92-38.6-.6-2.28-.94-4.66-1.11-7.01-.75-10.19,2.2-18.75,11.3-24.35,10.08-6.21,20.33-6.33,30.34-.04,11.29,7.09,16.93,18.02,19.42,30.69,3.58,18.24-.28,35.71-6.46,52.76-2.78,7.68-6.26,15.1-9.58,22.99,1.47,0,2.8,0,4.13,0,25.07,0,50.14-.05,75.21.02,14.1.04,24.6,9.31,26.23,23.15.81,6.9-1.43,13.02-5.85,18.74,8.53,5.96,13.17,13.93,12.19,24.43-.99,10.55-7.11,17.45-16.52,21.64,9.24,17.78.61,32.63-12.75,38.35.3.76.56,1.55.93,2.28,7.49,15.1.1,31.95-16.07,36.68-.68.2-1.33.54-1.99.82h-128.75c-3.14-.62-6.27-1.26-9.42-1.86-9.16-1.76-17.21-6.11-25.41-10.33-5.64-2.9-11.98-4.47-18.05-6.52-1.79-.6-2.81.2-3.53,2.15-2.28,6.2-6.47,10.85-12.41,13.79-2.18,1.08-4.52,1.85-6.79,2.77H21.7Zm61.5-31.69c11.33.47,20.96,4.97,30.2,10.58,9.07,5.51,19.09,8.17,29.55,8.23,39.66.22,79.33.15,118.99.08,7.35-.01,12.83-5.77,12.78-12.87-.05-7.14-5.51-12.48-13.01-12.58-5.99-.08-11.97.04-17.96-.05-4.45-.06-7.22-2.59-7.25-6.37-.03-3.88,2.62-6.31,7.15-6.35,7.11-.06,14.22.02,21.33-.04,4.11-.04,8.28.19,12.3-.47,6.58-1.07,10.69-6.95,10.15-13.6-.5-6.15-5.48-10.98-11.84-11.41-1.86-.13-3.74-.07-5.61-.08-8.73,0-17.46.09-26.19-.04-5.72-.09-8.9-4.65-6.64-9.19,1.42-2.86,3.93-3.57,6.85-3.57,10.6.02,21.2.03,31.81-.01,4.61-.02,9.25.14,13.82-.35,5.67-.6,10.03-5.46,10.55-11,.57-6.09-2.83-11.72-8.46-13.45-2.1-.65-4.42-.77-6.64-.78-13.84-.07-27.69,0-41.53-.07-4.36-.02-6.92-2.39-7.03-6.1-.12-3.83,2.57-6.39,6.99-6.63,1-.05,2-.02,2.99-.02,11.47,0,22.95.06,34.42-.04,6.26-.05,11.03-3.73,12.51-9.3,2.3-8.69-3.86-16.18-13.49-16.19-29.44-.04-58.87-.22-88.3.12-7.86.09-10.05-5.98-6.69-11.6,9.65-16.14,16.86-33.34,19.74-52.08,1.81-11.8,1.42-23.42-4.34-34.26-3.12-5.88-7.42-10.66-14.11-12.6-9.65-2.79-18.38,4.34-17.48,14.27.2,2.23.79,4.42.98,6.65.5,5.93,1.56,11.92,1.17,17.81-.77,11.67-6.07,21.71-13.05,30.89-7.69,10.12-17.11,18.45-27.26,25.98-11.67,8.64-23.67,16.67-38.29,19.52-3.01.59-6.03,1.1-9.09,1.65v115.32Zm-12.85-57.73c0-20.83.02-41.66,0-62.49,0-9.01-5.16-14.17-14.14-14.21-9.73-.04-19.46-.04-29.19,0-8.95.03-14.2,5.23-14.2,14.18-.03,41.66-.03,83.32,0,124.97,0,8.97,5.23,14.17,14.18,14.2,9.6.03,19.21.02,28.81,0,9.51-.02,14.53-5.04,14.54-14.55.01-20.7,0-41.41,0-62.11Z"/><path d="m313.09,70.23c.05,3.53-2.17,5.94-5.95,6.4-4.69.58-9.49.68-14.06,1.77-17.42,4.16-27.86,15.95-33.1,32.38-2.32,7.27-3.05,15.08-4.19,22.68-.54,3.56-1.68,6.28-5.44,7.1-3.86.84-6.8-2.08-7.55-6.79-1.18-7.48-1.94-15.13-4.11-22.33-6.52-21.57-21.61-33.12-44.06-34.6-1.12-.07-2.25-.1-3.36-.25-3.6-.46-5.76-2.75-5.82-6.13-.06-3.36,2-5.92,5.55-6.41,3.08-.42,6.24-.28,9.31-.73,19.91-2.9,32.23-14.88,38.22-33.43,2.35-7.26,3.04-15.08,4.22-22.68.5-3.2,1.35-5.87,4.69-6.92,4.2-1.32,7.51,1.59,8.29,6.62,1.16,7.48,1.92,15.13,4.1,22.33,6.66,21.96,22.24,33.58,45.2,34.59,5.26.23,7.98,2.39,8.04,6.39Zm-35.49.12c-13.3-7.44-22.4-17.8-28.37-31.95-5.87,14.27-15.16,24.54-28.27,31.99,13.32,7.4,22.38,17.79,28.3,31.88,5.94-14.13,15.02-24.49,28.35-31.92Z"/><path d="m121.35,127.73c.05,3.51-2.25,6.32-5.94,6.36-20.76.21-29.07,15.54-31.57,31.19-.39,2.45-.51,4.95-.76,7.43-.36,3.63-2.89,6.17-6.23,6.24-3.45.07-5.83-2.63-6.55-6.37-1.37-7.04-2.3-14.32-4.92-20.91-4.45-11.21-13.52-16.79-25.59-17.5-1.79-.11-4.25-.33-5.14-1.47-1.36-1.75-2.34-4.41-2.17-6.58.22-2.8,2.72-4.27,5.58-4.65,3.2-.42,6.51-.46,9.57-1.34,12.66-3.66,18.18-13.52,21.12-25.32.9-3.6,1.21-7.36,1.57-11.07.41-4.22,2.71-6.9,6.31-6.98,3.72-.07,6.22,2.68,6.5,7.12.47,7.27,1.87,14.3,5.13,20.89,5.22,10.56,13.63,16.18,25.45,16.63,4.92.19,7.59,2.43,7.65,6.34Zm-31.03.11c-4.49-5.2-9.29-10.76-13.9-16.11-1.79,2.53-3.83,5.49-5.96,8.39-2.22,3.03-4.52,6-6.51,8.64,3.6,4.15,8.44,9.73,12.8,14.75,4.28-4.94,9.03-10.43,13.57-15.67Z"/><path d="m114.37,70.79c-1.48-1.14-3.84-2.13-4.66-3.84-.82-1.72-.94-4.86.12-6.17,3.43-4.22,7.36-8.11,11.48-11.68,2.4-2.07,5.45-1.59,7.8.69,2.35,2.29,2.95,5.38.91,7.78-3.61,4.24-7.78,8.01-11.84,11.86-.73.69-2.05.76-3.82,1.36Z"/><path d="m142.88,42.01c-1.48-1.26-3.95-2.4-4.63-4.21-.7-1.85-.39-4.97.8-6.48,3.07-3.86,6.72-7.32,10.44-10.6,2.5-2.2,5.51-2.1,8.15.14,2.4,2.04,3.15,5.65,1.06,8.04-3.58,4.1-7.58,7.84-11.55,11.58-.81.76-2.26.84-4.28,1.52Z"/><path d="m160.13,64.62c-1.23,1.56-2.24,3.99-3.94,4.67-1.87.75-5.04.7-6.5-.45-3.99-3.14-7.53-6.9-10.94-10.68-2.22-2.46-1.67-6.27.67-8.47,2.3-2.16,5.74-2.53,8.16-.33,3.78,3.42,7.34,7.11,10.81,10.84.84.91,1,2.46,1.73,4.42Z"/><path d="m114.63,18.6c2.23,1.24,4.02,1.86,5.32,3.03,3.05,2.75,5.92,5.7,8.75,8.68,2.89,3.03,2.97,6.68.35,9.31-2.51,2.53-6.42,2.47-9.35-.33-3.15-3.01-6.51-5.9-9.09-9.36-1.24-1.67-1.67-4.79-1.02-6.78.59-1.8,3.14-2.95,5.02-4.55Z"/><path d="m294.04,146.95c0-2.24-.11-4.49.02-6.72.21-3.5,2.33-5.41,5.64-5.94,2.98-.47,6.33,1.6,6.59,4.76.43,5.29.49,10.69-.04,15.97-.33,3.35-3.2,4.93-6.64,4.59-3.27-.33-5.23-2.28-5.52-5.56-.21-2.35-.04-4.73-.04-7.09,0,0-.02,0-.02,0Z"/><path d="m280.71,172.39c-2.24,0-4.5.18-6.71-.04-3.27-.34-5.13-2.35-5.47-5.61-.34-3.23,1.48-6.31,4.71-6.57,5.29-.42,10.68-.42,15.96.05,3.25.29,4.69,3.09,4.66,6.28-.03,3.11-2.44,5.6-5.68,5.87-2.47.2-4.97.04-7.46.04,0,0,0,0,0-.01Z"/><path d="m319.56,172.41c-2.36,0-4.74.16-7.09-.04-3.35-.28-5.55-2.65-5.65-5.84-.11-3.47,1.59-6.11,4.94-6.42,5.05-.47,10.19-.41,15.26-.06,3.2.22,5.32,3.28,5.22,6.3-.11,3.23-2.51,5.78-5.95,6.05-2.23.17-4.48.03-6.72.03,0,0,0-.02,0-.02Z"/><path d="m294.04,185.3c0-2.24-.11-4.49.03-6.72.22-3.48,2.26-5.44,5.63-5.91,3.1-.43,6.33,1.5,6.59,4.7.44,5.29.44,10.67-.02,15.96-.29,3.25-3.41,5.05-6.62,4.62-3.41-.45-5.38-2.47-5.59-5.93-.14-2.23-.03-4.48-.02-6.72Z"/></g></g></svg>