<svg id="location_access" xmlns="http://www.w3.org/2000/svg" width="339" height="248" viewBox="0 0 339 248">
  <rect id="back" width="339" height="248" fill="none"/>
  <g id="map_design" data-name="map design" transform="translate(52.54 0.009)">
    <rect id="Rectangle_18038" data-name="Rectangle 18038" width="32.502" height="62.579" transform="translate(185.669 56.576)" fill="#fff"/>
    <path id="Path_25482" data-name="Path 25482" d="M791.035,342.825v-96.4l121.629,31.749Z" transform="translate(-734.82 -228.917)" fill="#fff"/>
    <path id="Path_25483" data-name="Path 25483" d="M106.4,0,59.111,49.6v71.414H106.4Z" transform="translate(-54.91 -0.003)" fill="#fff"/>
    <path id="Path_25484" data-name="Path 25484" d="M283.331,1913.78l-30.478-22.1v-49.991h30.478Z" transform="translate(-234.884 -1710.813)" fill="#fff"/>
    <path id="Path_25485" data-name="Path 25485" d="M803.724,1835.99v96.4l121.629,17.121V1835.99Z" transform="translate(-746.608 -1705.516)" fill="#fff"/>
  </g>
  <g id="char" transform="translate(52.54 0.009)">
    <path id="Path_25486" data-name="Path 25486" d="M920.176,3105.471l-4.092.079a1.815,1.815,0,0,1-.2-1.046c0-.633.2-1.146.455-1.146h3.694c.251,0,.531.4.531,1.033a1.218,1.218,0,0,1-.389,1.081" transform="translate(-850.799 -2882.819)" fill="#f4caba"/>
    <path id="Path_25487" data-name="Path 25487" d="M912.664,861.816H791.035l121.629-64.342Z" transform="translate(-734.821 -740.803)" fill="#fff"/>
    <path id="Path_25488" data-name="Path 25488" d="M906.977,1887.537l4.95.358s13.119-41.8,15.191-76.022c0,0-1.76,41.109,3.725,75.48l5.975-.008a595.548,595.548,0,0,0,7.392-93.877H910.765c-2.675,26.884-5.666,62.229-3.789,94.069" transform="translate(-841.978 -1666.017)" fill="#05293c"/>
    <path id="Path_25489" data-name="Path 25489" d="M934.79,1811.2s-1.751,41.117,3.734,75.488l5.792.024a583.069,583.069,0,0,0,7.566-93.917s-35.944,6.177-37.224,94.117l4.243-.1s13.817-41.388,15.89-75.609" transform="translate(-849.658 -1665.392)" fill="#011721"/>
    <path id="Path_25490" data-name="Path 25490" d="M824.5,3131.271l-6.969,3.357a.986.986,0,0,0,.9,1.4h10.4a.986.986,0,0,0,.956-1.229l-.9-3.524Z" transform="translate(-759.349 -2908.749)" fill="#00b2ca"/>
    <path id="Path_25491" data-name="Path 25491" d="M1237.478,3131.271l-1.536,3.357a.986.986,0,0,0,.9,1.4h6.524a.987.987,0,0,0,.956-1.229l-2.453-3.524Z" transform="translate(-1148.026 -2908.749)" fill="#00b2ca"/>
    <path id="Path_25492" data-name="Path 25492" d="M1259.71,3115.609l-4.445-.052a8.772,8.772,0,0,0-.246-1.195l5.106-.008.238,0c-.085.868-.594,1.036-.653,1.257" transform="translate(-1165.831 -2893.032)" fill="#f4caba"/>
    <path id="Path_25493" data-name="Path 25493" d="M1346.365,1717.948a44.225,44.225,0,1,0-80.739,24.946c2.275,3.32,18.358,23.081,28.375,35.336a10.417,10.417,0,0,0,16.113.025c10.089-12.266,26.321-32.1,28.636-35.5a43.981,43.981,0,0,0,7.615-24.806" transform="translate(-1168.521 -1554.781)" fill="#011721"/>
    <path id="Path_25494" data-name="Path 25494" d="M1346.365,1717.948a44.225,44.225,0,1,0-80.739,24.946c2.275,3.32,18.358,23.081,28.375,35.336a10.417,10.417,0,0,0,16.113.025c10.089-12.266,26.321-32.1,28.636-35.5a43.981,43.981,0,0,0,7.615-24.806" transform="translate(-1168.521 -1554.781)" fill="#00b2ca" opacity="0.88"/>
    <path id="Path_25495" data-name="Path 25495" d="M509.841,762.007h0a1.2,1.2,0,0,1-.933-.444c-1.165-1.424-1.819-2.24-1.946-2.425a3.494,3.494,0,0,1,2.878-5.466h.007a3.494,3.494,0,0,1,2.892,5.455c-.163.239-1.159,1.459-1.966,2.439a1.2,1.2,0,0,1-.932.44m0-7.332h0a2.491,2.491,0,0,0-2.053,3.9c.1.153.813,1.034,1.9,2.357a.2.2,0,0,0,.314,0c1.09-1.324,1.8-2.209,1.911-2.366a2.492,2.492,0,0,0-2.063-3.889" transform="translate(-470.367 -700.113)" fill="#fff"/>
    <path id="Path_25496" data-name="Path 25496" d="M1010.676,1040.658l-23.395,1.192a2.79,2.79,0,0,0-2.509,2.358c-1.372,7.083-5.354,29.368-4.435,45.153,0,0,.132,4.792,3.788,4.792l30.715-1.54s1.706,0,1.706-3.08l-2.572-45.589a3.3,3.3,0,0,0-3.3-3.285" transform="translate(-910.544 -966.701)" fill="#011721"/>
    <path id="Path_25497" data-name="Path 25497" d="M1170.373,1030.037l-.73-1.069H1159.1l-1.463,1.8,13.164.512Z" transform="translate(-1075.37 -955.845)" fill="#011721"/>
    <path id="Path_25498" data-name="Path 25498" d="M502.634,910.421l-1.9-.16-.141.146,3.982,8.279,1.707-.613Z" transform="translate(-465.015 -845.574)" fill="#011721"/>
    <path id="Path_25499" data-name="Path 25499" d="M506.949,920.451l-3.833-8.06,1.818.153,3.475,7.382Z" transform="translate(-467.362 -847.553)" fill="#fff"/>
    <path id="Path_25500" data-name="Path 25500" d="M1124.4,950.116l0,.019a.75.75,0,0,1-.033.117.446.446,0,0,1-.036.072c-.021.036-.036.074-.057.11a1.524,1.524,0,0,0-.138.237.542.542,0,0,1-.094.144c-.06.072-.13.134-.193.2a.65.65,0,0,1-.141.142c-.04.024-.082.043-.122.068a1.672,1.672,0,0,1-.246.12c-.04.016-.076.039-.116.055-.021.008-.043.011-.065.021a2.06,2.06,0,0,1-.293.1c-.09.023-.175.06-.266.079s-.2.046-.306.06c-.151.02-.3.032-.456.051-.074.01-.147.023-.221.029s-.129,0-.193,0a1.505,1.505,0,0,1-.254,0c-.047-.008-.1-.01-.142-.018-.07-.012-.144-.019-.215-.026a1.128,1.128,0,0,1-.168-.026,1.6,1.6,0,0,0-.162-.036.327.327,0,0,1-.064-.011c-.018-.006-.036-.015-.054-.022-.05-.019-.1-.033-.154-.05a.692.692,0,0,1-.222-.119.824.824,0,0,0-.107-.073.155.155,0,0,1-.036-.029c-.014-.014-.03-.023-.043-.037a1.282,1.282,0,0,1-.089-.1.842.842,0,0,0,.112-.421.863.863,0,0,0-.863-.863l-1.59.5a1.158,1.158,0,0,1-1.406-.64l-1.1-2.5a1.193,1.193,0,0,1,.146-1.205l2.191-2.853,4.936.609,1.431,4.836a3.664,3.664,0,0,0,.831,1.459" transform="translate(-1035.54 -876.184)" fill="#edb29f"/>
    <path id="Path_25501" data-name="Path 25501" d="M647.672,1083.642l-3.474,2.56c-10.554-11.855-26.938-23.024-33.333-27.179a1.582,1.582,0,0,0-2.44,1.449c.835,11.345,1.155,33.409,1.155,33.409-16.7,7.708-33.4.006-33.413,0,.073-.628,4.091-35.083,4.093-35.132a47.629,47.629,0,0,1-18.1,11.792c-9.633-5.485-15.967-26.422-15.967-26.422l3.656-2.194,13.468,17.737s6.89-6.054,13.464-11.343a31.587,31.587,0,0,1,14.161-6.451.878.878,0,0,0,.512-.293.82.82,0,0,0,.09-.13,1.279,1.279,0,0,0,.089.1c.014.013.03.023.043.037a.154.154,0,0,0,.036.029.822.822,0,0,1,.107.073.691.691,0,0,0,.222.119c.051.016.1.031.154.05l.054.022a.335.335,0,0,0,.064.011,1.565,1.565,0,0,1,.162.036,1.139,1.139,0,0,0,.168.026c.071.006.144.013.215.026.047.008.1.009.142.018a1.517,1.517,0,0,0,.254,0c.064,0,.129.005.193,0s.147-.019.221-.029c.152-.019.3-.031.456-.051.1-.013.2-.04.306-.06s.177-.056.266-.079a2.044,2.044,0,0,0,.293-.1c.021-.009.043-.012.065-.021.04-.016.076-.038.116-.055a1.679,1.679,0,0,0,.247-.12c.039-.024.082-.043.122-.068a.651.651,0,0,0,.141-.142c.063-.069.132-.131.193-.2a.541.541,0,0,0,.094-.144,1.543,1.543,0,0,1,.138-.237c.021-.036.036-.075.058-.11a.451.451,0,0,0,.036-.072.74.74,0,0,0,.033-.117l0-.019a3.864,3.864,0,0,0,2.29,1.192,16.567,16.567,0,0,1,3.385.852c23.853,8.806,45.763,41.237,45.763,41.237" transform="translate(-507.379 -966.43)" fill="#00b2ca"/>
    <path id="Path_25502" data-name="Path 25502" d="M1123.591,874.612s-2.681,3.108,1.219,4.936c0,0-.3,2.5,2.986,1.646,0,0,1.889-.792,1.767.792,0,0,.611,3.081,2.1,3.129a3.551,3.551,0,0,0,1.561-4.043s2.133-3.718-1.1-4.693c0,0-.061-2.925-4.2-1.767,0,0-1.646-2.8-4.327,0" transform="translate(-1042.909 -811.301)" fill="#011721"/>
    <path id="Path_25503" data-name="Path 25503" d="M505.611,965.783l-2.516-3.19a2.739,2.739,0,0,1-.462-2.518l1.272-4.043,2.316,3.779.344-.611a.687.687,0,0,1,1.248.115l1.455,4.274Z" transform="translate(-466.796 -888.092)" fill="#edb29f"/>
    <path id="Path_25504" data-name="Path 25504" d="M967.977,1483.082c.012.005,16.714,7.708,33.413,0,0,0-.184-12.67-.636-23.745-18.912,2.551-32.777,23.745-32.777,23.745" transform="translate(-899.188 -1355.63)" fill="#011721"/>
    <path id="Path_25505" data-name="Path 25505" d="M967.977,1483.082c.012.005,16.714,7.708,33.413,0,0,0-.184-12.67-.636-23.745-18.912,2.551-32.777,23.745-32.777,23.745" transform="translate(-899.188 -1355.63)" fill="#00b2ca" opacity="0.88"/>
    <path id="Path_25506" data-name="Path 25506" d="M984.592,1087.871s-1.043,1.125-1.109-1.915c-.1-4.776,1.346-16.287,6.485-31.481l2.6-.119s-6.1,17.432-7.979,33.515" transform="translate(-913.588 -979.429)" fill="#05293c"/>
    <path id="Path_25507" data-name="Path 25507" d="M1347.82,1043.248l.358-.016a1.488,1.488,0,0,0-.358.016" transform="translate(-1252.038 -969.092)" fill="#05293c"/>
    <path id="Path_25508" data-name="Path 25508" d="M1362.113,1079.692c-6.356-12.974-5.046-33.366-5.658-36.489h0a1.8,1.8,0,0,0-1.077-1.552l-2.521.116c.463.03,1.229.273,1.4,1.516,0,0-1.023,31.607,8.076,40.278Z" transform="translate(-1256.717 -967.627)" fill="#05293c"/>
    <path id="Path_25509" data-name="Path 25509" d="M1468.64,1364.208l1.425.1.728,11.6h-1.839Z" transform="translate(-1364.272 -1267.262)" fill="#011721"/>
    <path id="Path_25510" data-name="Path 25510" d="M1016.062,1518.917s-25.222,18.778-32.037.355l-.985-2.3-.147,3.143s4.742,19.972,33.962,1.465Z" transform="translate(-913.044 -1409.167)" fill="#05293c"/>
    <path id="Path_25511" data-name="Path 25511" d="M1123.232,1651.4s-.039-.616.131-.788c.366-.37,1.815-.051,1.815-.051a.751.751,0,0,1,.7.714l.08,1.682a.751.751,0,0,1-.806.785l-1.227-.091a.751.751,0,0,1-.7-.749Z" transform="translate(-1043.406 -1533.148)" fill="#05293c"/>
    <path id="Path_25512" data-name="Path 25512" d="M1276.571,1757.062a53.151,53.151,0,0,1,67.955-50.974,44.224,44.224,0,1,0-79.117,36.807c1.9,2.778,13.47,17.062,23.065,28.831-3.9-4.787-8.13-9.988-11.9-14.664" transform="translate(-1168.319 -1554.781)" fill="#00b2ca"/>
    <path id="Path_25513" data-name="Path 25513" d="M1582.876,1974.051a24.633,24.633,0,1,1-24.633-24.633,24.633,24.633,0,0,1,24.633,24.633" transform="translate(-1424.624 -1810.884)" fill="#fa6e53"/>
    <path id="Path_25514" data-name="Path 25514" d="M1605.459,2135.019a24.629,24.629,0,0,0,40.149-28.476,53.181,53.181,0,0,0-40.149,28.476" transform="translate(-1491.368 -1956.843)" fill="#011721"/>
    <path id="Path_25515" data-name="Path 25515" d="M1605.459,2135.019a24.629,24.629,0,0,0,40.149-28.476,53.181,53.181,0,0,0-40.149,28.476" transform="translate(-1491.368 -1956.843)" fill="#fa6e53" opacity="0.88"/>
    <path id="Path_25516" data-name="Path 25516" d="M1105.769,176a27.158,27.158,0,0,1-12.365-3.05,33.082,33.082,0,0,1-14.48-14.938c-7.9.542-15.775.708-23.5.872-6.609.14-13.442.284-20.195.659a.159.159,0,0,1-.179-.16.17.17,0,0,1,.16-.178c6.759-.375,13.6-.52,20.207-.66,7.682-.163,15.506-.328,23.355-.862a31.7,31.7,0,0,1-1.749-4.606c-3.038-10.394,1.443-23.709,10.2-30.313,6.7-5.05,14.5-5.234,21.976-.517a18.485,18.485,0,0,1,8.358,16.627,17.139,17.139,0,0,1-7.027,12.638c-3.552,2.5-7.941,3.446-12.132,4.2a179.155,179.155,0,0,1-19.108,2.277,32.73,32.73,0,0,0,14.27,14.662,25.87,25.87,0,0,0,20.616,1.561c9.98-3.554,18.751-11.351,24.063-21.393,5.806-10.975,5.834-21.39.087-32.777-10.971-21.74-30.806-33.79-58.951-35.815-28.917-2.079-57.451,7.067-71.885,12.706-7.219,2.82-17.526,5.845-23.658-.406-2.5-2.548-3.847-6.534-3.7-10.937.135-3.978,1.339-7.84,2.5-11.575l.262-.842a.169.169,0,0,1,.323.1l-.262.842C981.8,77.829,980.6,81.669,980.47,85.6c-.146,4.311,1.167,8.207,3.6,10.688,5.991,6.108,16.163,3.113,23.294.328,14.46-5.649,43.043-14.814,72.033-12.729,13.125.945,24.633,4.151,34.205,9.532a61.474,61.474,0,0,1,25.024,26.468c5.8,11.494,5.772,22.007-.089,33.088-5.352,10.116-14.191,17.972-24.249,21.554a25.348,25.348,0,0,1-8.52,1.471m-7.449-56.819a17.92,17.92,0,0,0-10.9,3.854c-8.655,6.525-13.083,19.679-10.082,29.947a31.424,31.424,0,0,0,1.787,4.676,179.252,179.252,0,0,0,19.206-2.282c4.154-.744,8.5-1.677,12-4.141a16.8,16.8,0,0,0,6.886-12.387,18.14,18.14,0,0,0-8.2-16.315,20.01,20.01,0,0,0-10.7-3.353" transform="translate(-910.469 -67.863)" fill="#432d29"/>
    <path id="Path_25517" data-name="Path 25517" d="M19.843,1656.984a10.54,10.54,0,0,1-3.631-.709c-3.538-1.305-6.254-4.094-8.225-6.379a34.106,34.106,0,0,1-6.835-11.3,19.2,19.2,0,0,1-.015-13.07,18.45,18.45,0,0,1,8.942-9.468,32.631,32.631,0,0,1,15.9-3.2,83.44,83.44,0,0,1,2.1-18.253,67.455,67.455,0,0,1,23.935-37.764,110.733,110.733,0,0,1,10.626-7.357.169.169,0,1,1,.176.289,110.323,110.323,0,0,0-10.594,7.335,67.121,67.121,0,0,0-23.815,37.577,83.123,83.123,0,0,0-2.088,18.183c13.715.456,28.8,6.88,39.906,11.6l1.051.448c4.952,2.1,10.015,4.556,14.911,6.927,18.439,8.929,37.508,18.164,58.314,13.358,12.71-2.934,25.5-11.312,31.1-20.374a.169.169,0,0,1,.287.178c-5.646,9.134-18.522,17.574-31.312,20.527-20.922,4.829-40.046-4.429-58.538-13.384-4.893-2.369-9.952-4.819-14.9-6.921l-1.051-.447c-11.073-4.712-26.13-11.12-39.778-11.577-.084,6.133.275,12.28.628,18.325.283,4.844.575,9.851.632,14.742.049,4.242-1.375,7.8-3.808,9.515a6.677,6.677,0,0,1-3.924,1.194m4.943-43.8a31.539,31.539,0,0,0-14.552,3.181,18.368,18.368,0,0,0-8.781,9.291,18.865,18.865,0,0,0,.021,12.838,33.789,33.789,0,0,0,6.77,11.184c1.944,2.253,4.62,5,8.086,6.282,2.841,1.048,5.345.894,7.242-.445,2.342-1.652,3.712-5.1,3.665-9.234-.056-4.883-.349-9.887-.631-14.726-.354-6.053-.713-12.208-.629-18.355q-.6-.016-1.19-.016" transform="translate(0 -1439.349)" fill="#432d29"/>
    <path id="Path_25518" data-name="Path 25518" d="M1006.471,63.267s.765.123.927-.039c.2-.2-.057-.86-.249-1.276a.416.416,0,0,0-.542-.209c-.455.192-1.168.544-1.135.85.03.277,1,.674,1,.674" transform="translate(-934.019 -57.325)" fill="#fff"/>
    <path id="Path_25519" data-name="Path 25519" d="M756,2526.443l-.342,1.014a.427.427,0,0,1-.725.146l-.707-.8-.707-.8a.427.427,0,0,1,.236-.7l1.049-.211,1.049-.211a.427.427,0,0,1,.489.555Z" transform="translate(-699.87 -2345.437)" fill="#011721"/>
    <path id="Path_25520" data-name="Path 25520" d="M345.788,2982.378l.041,1.07a.427.427,0,0,1-.626.394l-.947-.5-.947-.5a.427.427,0,0,1-.028-.739l.906-.57.906-.57a.427.427,0,0,1,.655.345Z" transform="translate(-318.7 -2769.062)" fill="#011721"/>
    <path id="Path_25521" data-name="Path 25521" d="M664.042,1678.271l-.224,1.047a.427.427,0,0,1-.7.228l-.795-.717-.795-.717a.427.427,0,0,1,.155-.724l1.018-.33,1.018-.33a.427.427,0,0,1,.549.5Z" transform="translate(-614.383 -1557.553)" fill="#011721"/>
    <path id="Path_25522" data-name="Path 25522" d="M2792.815,1159.8l-.45.971a.427.427,0,0,1-.737.066l-.616-.875-.616-.875a.427.427,0,0,1,.312-.671l1.066-.1,1.066-.1a.427.427,0,0,1,.426.6Z" transform="translate(-2592.026 -1075.91)" fill="#011721"/>
    <path id="Path_25523" data-name="Path 25523" d="M3251.973,925.694l.639.859a.427.427,0,0,1-.293.679l-1.063.124-1.063.124a.427.427,0,0,1-.442-.594l.424-.983.424-.983a.427.427,0,0,1,.735-.086Z" transform="translate(-3018.776 -858.953)" fill="#011721"/>
    <path id="Path_25524" data-name="Path 25524" d="M2156.15,206.164l-.014,1.07a.427.427,0,0,1-.646.361l-.919-.548-.92-.547a.427.427,0,0,1,.01-.74l.934-.523.934-.523a.427.427,0,0,1,.636.379Z" transform="translate(-2000.409 -190.116)" fill="#011721"/>
    <path id="Path_25525" data-name="Path 25525" d="M2654.335,1875.735l-41.645,8.186v-42.23h32.5Z" transform="translate(-2427.021 -1710.813)" fill="#fff"/>
    <path id="Path_25526" data-name="Path 25526" d="M1925.285,1651.956l.524,1.425,1.255,3.412a1.6,1.6,0,0,0,2.4.773l1.024-.694a3.024,3.024,0,0,0,.69-4.361l-2.423-3.114Z" transform="translate(-1788.466 -1532.183)" fill="#edb29f"/>
    <path id="Path_25527" data-name="Path 25527" d="M705.74,3196.019H560.035a.178.178,0,1,1,0-.355H705.74a.178.178,0,1,1,0,.355" transform="translate(-520.071 -2968.566)" fill="#011721"/>
  </g>
</svg>
