<svg id="no_internet_illustrator" xmlns="http://www.w3.org/2000/svg" xmlns:xlink="http://www.w3.org/1999/xlink" width="255" height="255" viewBox="0 0 255 255">
  <defs>
    <linearGradient id="linear-gradient" x1="0.488" y1="-0.011" x2="0.512" y2="1.041" gradientUnits="objectBoundingBox">
      <stop offset="0" stop-color="#faffff"/>
      <stop offset="0.55" stop-color="#faffff"/>
      <stop offset="1" stop-color="#e5f9f6"/>
    </linearGradient>
    <clipPath id="clip-path">
      <rect id="Rectangle_1756" data-name="Rectangle 1756" width="255" height="255" fill="none"/>
    </clipPath>
    <clipPath id="clip-path-2">
      <rect id="Rectangle_1737" data-name="Rectangle 1737" width="23.832" height="5.808" transform="translate(143.116 136.11)" fill="none"/>
    </clipPath>
    <clipPath id="clip-path-3">
      <rect id="Rectangle_1738" data-name="Rectangle 1738" width="41.765" height="25.445" transform="translate(160.285 130.379)" fill="none"/>
    </clipPath>
    <clipPath id="clip-path-4">
      <rect id="Rectangle_1743" data-name="Rectangle 1743" width="9.84" height="2.046" transform="translate(209.883 148.242)" fill="none"/>
    </clipPath>
    <clipPath id="clip-path-5">
      <rect id="Rectangle_1746" data-name="Rectangle 1746" width="26.957" height="13.227" transform="translate(114.033 47.53)" fill="none"/>
    </clipPath>
    <clipPath id="clip-path-6">
      <rect id="Rectangle_1747" data-name="Rectangle 1747" width="46.281" height="18.687" transform="translate(104.374 36.274)" fill="none"/>
    </clipPath>
    <clipPath id="clip-path-7">
      <rect id="Rectangle_1748" data-name="Rectangle 1748" width="66.728" height="24.477" transform="translate(94.15 24.349)" fill="none"/>
    </clipPath>
    <clipPath id="clip-path-8">
      <rect id="Rectangle_1749" data-name="Rectangle 1749" width="10.796" height="10.796" transform="translate(122.116 58.46)" fill="none"/>
    </clipPath>
    <clipPath id="clip-path-9">
      <rect id="Rectangle_1750" data-name="Rectangle 1750" width="49.577" height="11.317" transform="translate(68.316 198.622)" fill="none"/>
    </clipPath>
    <clipPath id="clip-path-10">
      <rect id="Rectangle_1751" data-name="Rectangle 1751" width="20.667" height="41.294" transform="translate(85.566 153.35)" fill="none"/>
    </clipPath>
    <clipPath id="clip-path-11">
      <rect id="Rectangle_1752" data-name="Rectangle 1752" width="34.301" height="25.495" transform="translate(86.797 173.128)" fill="none"/>
    </clipPath>
    <clipPath id="clip-path-12">
      <rect id="Rectangle_1753" data-name="Rectangle 1753" width="24.427" height="14.827" transform="translate(72.818 183.796)" fill="none"/>
    </clipPath>
    <clipPath id="clip-path-13">
      <rect id="Rectangle_1754" data-name="Rectangle 1754" width="22.71" height="18.75" transform="translate(49.455 69.019)" fill="none"/>
    </clipPath>
    <clipPath id="clip-path-14">
      <rect id="Rectangle_1755" data-name="Rectangle 1755" width="41.827" height="50.361" transform="translate(44.223 78.343)" fill="none"/>
    </clipPath>
  </defs>
  <g id="Group_4355" data-name="Group 4355">
    <path id="Path_16623" data-name="Path 16623" d="M254.754,127.377h0a127.174,127.174,0,0,1-7.229,42.4q-.6,1.7-1.25,3.388-1.479,3.838-3.2,7.554-1.931,4.184-4.154,8.2a127.324,127.324,0,0,1-7.4,11.8l-.106.151-.144.2-.007.01-.1.138q-.274.385-.552.768a128.1,128.1,0,0,1-13.5,15.777q-.389.386-.781.768l-.037.036a126.957,126.957,0,0,1-88.92,36.175h0a126.873,126.873,0,0,1-82.79-30.572q-3.156-2.7-6.131-5.6l-.037-.036q-.392-.383-.781-.768A128.089,128.089,0,0,1,24.136,202q-.225-.309-.447-.62l-.106-.148A126.79,126.79,0,0,1,0,127.377H0A127.377,127.377,0,0,1,127.377,0h0A127.377,127.377,0,0,1,254.754,127.377Z" transform="translate(0.123)" fill="url(#linear-gradient)"/>
  </g>
  <path id="Path_16517" data-name="Path 16517" d="M85.876,213.669h95.111a88.851,88.851,0,1,0-95.111,0" fill="#fff"/>
  <g id="Group_4361" data-name="Group 4361">
    <path id="Path_16624" data-name="Path 16624" d="M83.242,175.443A88.483,88.483,0,0,0,91.87,213.67h88.995a88.887,88.887,0,0,0,30.19-118.1A88.88,88.88,0,0,0,83.242,175.443Z" transform="translate(0.137)" fill="#00b2ca" opacity="0.1"/>
  </g>
  <g id="Group_4402" data-name="Group 4402">
    <g id="Group_4401" data-name="Group 4401" clip-path="url(#clip-path)">
      <path id="Path_16520" data-name="Path 16520" d="M234.206,213.739H24.823c-.145,0-.262-.076-.262-.169s.118-.169.262-.169H234.206c.145,0,.262.076.262.169s-.118.169-.262.169" fill="#011721"/>
      <path id="Path_16521" data-name="Path 16521" d="M158.378,136.11l-13.845,1.378a1.6,1.6,0,0,0-.157,3.153,82.042,82.042,0,0,0,15.909,1.264l6.663-1.636Z"/>
      <g id="Group_4364" data-name="Group 4364" opacity="0.75">
        <g id="Group_4363" data-name="Group 4363">
          <g id="Group_4362" data-name="Group 4362" clip-path="url(#clip-path-2)">
            <path id="Path_16522" data-name="Path 16522" d="M158.378,136.11l-13.845,1.378a1.6,1.6,0,0,0-.157,3.153,82.042,82.042,0,0,0,15.909,1.264l6.663-1.636Z" fill="#00b2ca"/>
          </g>
        </g>
      </g>
      <path id="Path_16523" data-name="Path 16523" d="M151.123,141.555c-2.24-1.44-1.043-4.619-1.043-4.619l-5.549.553a1.6,1.6,0,0,0-.157,3.153,59.676,59.676,0,0,0,6.75.914Z" fill="#ffd2b3"/>
      <path id="Path_16524" data-name="Path 16524" d="M143.2,139.657a1.524,1.524,0,0,0,1.176.984,82.042,82.042,0,0,0,15.909,1.264l6.527-1.6-.2-.2-1.676-.814-5.673.339c-3.728.548-13.725.131-16.064.024Z" fill="#00b2ca"/>
      <path id="Path_16525" data-name="Path 16525" d="M144.376,140.641a59.679,59.679,0,0,0,6.75.914,2.828,2.828,0,0,1-1.224-1.678c-2.95-.056-5.629-.171-6.7-.22a1.524,1.524,0,0,0,1.176.984Z" fill="#d39266"/>
      <path id="Path_16526" data-name="Path 16526" d="M175.447,113.22l-1.919-3.085,7.016-3.8a2.623,2.623,0,0,1,3.291,1.366c.667,1.335,1.591,3.8,1.976,8.722l-7.149-.879-3.214-2.323Z" fill="#011721"/>
      <path id="Path_16527" data-name="Path 16527" d="M175.449,117.155l3.356,1.826,1.775-1.507a.64.64,0,0,1,.861.147.739.739,0,0,1,0,.965s2.928-2.237,4.5-2.137a11.6,11.6,0,0,1-1.981-.9c-2.246-1-1.013-3.6-2.4-4.044-.433-.14-.648,1.607-1.872,1.462-.981-.116-4.249-1.118-4.249-1.118v5.3Z" fill="#ffd2b3"/>
      <path id="Path_16528" data-name="Path 16528" d="M181.446,118.585a11.564,11.564,0,0,1,1.361-1.158l-.764-.44a.848.848,0,0,0-.993.078l-.47.409a.64.64,0,0,1,.861.147.739.739,0,0,1,0,.965Z" fill="#d39266"/>
      <path id="Path_16529" data-name="Path 16529" d="M173.461,112.942c-3.949,3.577-10.05,11.1-15.642,24.485a3.274,3.274,0,0,0,3.143,4.529c5.943-.225,15.3-2.2,20.4-5.915l8.553,19.607s12.87,4.925,21.608-.794c0,0-7.507-22.647-15.86-34.63a9.535,9.535,0,0,0-11.231-3.543,10.966,10.966,0,0,0-4.051,2.742l-12.234,13.664s4.722-11.665,7.522-18.6a1.383,1.383,0,0,0-2.21-1.544Z" fill="#00b2ca"/>
      <path id="Path_16530" data-name="Path 16530" d="M168.149,133.085s4.722-11.665,7.522-18.6a1.345,1.345,0,0,0-.438-1.61s-7.156,17.1-7.084,20.209Z" fill="#606060"/>
      <path id="Path_16531" data-name="Path 16531" d="M173.854,118.98c.646-1.6,1.268-3.137,1.816-4.5a1.383,1.383,0,0,0-2.21-1.544,37.716,37.716,0,0,0-3.118,3.216C170.342,116.172,170.32,119.291,173.854,118.98Z" fill="#ffd2b3"/>
      <path id="Path_16532" data-name="Path 16532" d="M172.772,118.957a4.663,4.663,0,0,0,1.082.023l1.816-4.5a1.345,1.345,0,0,0-.438-1.61s-1.116,2.666-2.461,6.082Z" fill="#d39266"/>
      <path id="Path_16533" data-name="Path 16533" d="M181.693,130.379c-3.2,8.223-20.252,11.324-21.408,11.526a3.26,3.26,0,0,0,.676.05c5.943-.225,15.3-2.2,20.4-5.915l8.553,19.607s.18.068.5.177l11.636-4.63c-15.471-4.962-20.36-20.815-20.36-20.815Z"/>
      <g id="Group_4367" data-name="Group 4367" opacity="0.75">
        <g id="Group_4366" data-name="Group 4366">
          <g id="Group_4365" data-name="Group 4365" clip-path="url(#clip-path-3)">
            <path id="Path_16534" data-name="Path 16534" d="M181.693,130.379c-3.2,8.223-20.252,11.324-21.408,11.526a3.26,3.26,0,0,0,.676.05c5.943-.225,15.3-2.2,20.4-5.915l8.553,19.607s.18.068.5.177l11.636-4.63c-15.471-4.962-20.36-20.815-20.36-20.815Z" fill="#00b2ca"/>
          </g>
        </g>
      </g>
      <path id="Path_16535" data-name="Path 16535" d="M185.088,169.411H203.4v2.459a1.882,1.882,0,0,1-1.881,1.881h-14.55a1.882,1.882,0,0,1-1.881-1.881Z" fill="#00b2ca"/>
      <path id="Path_16536" data-name="Path 16536" d="M203.4,169.411h-9.41l.255.909v3.431h7.022a2.133,2.133,0,0,0,2.133-2.133Z" fill="#00b2ca"/>
      <path id="Path_16537" data-name="Path 16537" d="M214.891,208.032v.414a.994.994,0,0,1-1,.995h-39.3a.994.994,0,0,1-1-1v-.414a.994.994,0,0,1,1-1H213.9a.994.994,0,0,1,1,.995" fill="#00b2ca"/>
      <path id="Path_16538" data-name="Path 16538" d="M178.044,207.494a3.122,3.122,0,1,1-3.122,3.122,3.122,3.122,0,0,1,3.122-3.122" fill="#00b2ca"/>
      <path id="Path_16539" data-name="Path 16539" d="M210.44,207.494a3.122,3.122,0,1,1-3.122,3.122,3.122,3.122,0,0,1,3.122-3.122" fill="#00b2ca"/>
      <path id="Path_16540" data-name="Path 16540" d="M160.923,164.475s-16.339,22.286-33.083,46.341a1.726,1.726,0,0,0,2.368,2.427c7.719-5.132,21.211-15.2,37.513-32.013l5.3-9.335-12.1-7.42Z" fill="#05293c"/>
      <path id="Path_16541" data-name="Path 16541" d="M167.718,181.229l5.3-9.335-2.728-1.673-9.37-5.747-23.335,43.552a253.555,253.555,0,0,0,30.132-26.8Z" fill="#011721"/>
      <path id="Path_16542" data-name="Path 16542" d="M207.587,156.515c-3.444-6.884-15.859-8.978-15.859-8.978-6.41,3.689-15.4,8.115-22.031,11.708-5.075,2.752-8.777,5.228-8.777,5.228,5.458,19.971,21.886,40.419,29.184,48.8a1.337,1.337,0,0,0,2.3-1.214c-4.234-16.316-12.937-42.424-12.937-42.424,12.426-3.166,19.823-6.534,24.221-9.368a14.033,14.033,0,0,0,3.9-3.752Z" fill="#05293c"/>
      <path id="Path_16543" data-name="Path 16543" d="M179.469,169.636c12.426-3.166,19.823-6.534,24.221-9.368,1.554-1,3.924-.309,4.953-1.779l-1.057-1.973a13.461,13.461,0,0,0-5.533-5.321s-20.52,8.459-32.884,16.155c2.871,16.8,10.288,33.092,17.408,41.754l.926-.154,3.356-2.6c-4.5-16.05-11.391-36.718-11.391-36.718Z" fill="#011721"/>
      <path id="Path_16544" data-name="Path 16544" d="M132.355,204.353q-2.242,3.2-4.517,6.463a1.726,1.726,0,0,0,2.368,2.427c2.065-1.373,4.546-3.1,7.38-5.216a5.413,5.413,0,0,1-5.231-3.674" fill="#ffd2b3"/>
      <path id="Path_16545" data-name="Path 16545" d="M192.406,212.06c-.713-2.746-1.2-4.551-2.1-7.68a13.254,13.254,0,0,1-1.613,2.022,7.408,7.408,0,0,1-3.1,1.488c1.708,2.111,3.25,3.932,4.515,5.384a1.337,1.337,0,0,0,2.3-1.214Z" fill="#ffd2b3"/>
      <path id="Path_16546" data-name="Path 16546" d="M134.306,207l-6.265,6.031a1.675,1.675,0,0,0,2.165.213c2.065-1.373,4.546-3.1,7.38-5.216a7.439,7.439,0,0,1-3.28-1.028" fill="#d39266"/>
      <path id="Path_16547" data-name="Path 16547" d="M188.5,206.58a7.964,7.964,0,0,1-2.911,1.311c1.708,2.111,3.25,3.932,4.515,5.384a1.3,1.3,0,0,0,1.552.338Z" fill="#d39266"/>
      <path id="Path_16548" data-name="Path 16548" d="M220.409,111.479a4.757,4.757,0,1,1,2.927,6.058,4.757,4.757,0,0,1-2.927-6.058"/>
      <path id="Path_16549" data-name="Path 16549" d="M226,108.441l-2.463,9.148a4.74,4.74,0,0,0,2.795-9.059c-.11-.033-.22-.063-.332-.089" fill="#00b2ca"/>
      <path id="Path_16550" data-name="Path 16550" d="M198.978,170.32h-21.4a4.467,4.467,0,1,1,0-8.934h21.4a10.312,10.312,0,0,0,9.933-7.6l9.742-35.065a4.467,4.467,0,0,1,5.5-3.109h0a4.467,4.467,0,0,1,3.109,5.5h0l-9.738,35.042a19.253,19.253,0,0,1-18.546,14.164Z" fill="#00b2ca"/>
      <path id="Path_16551" data-name="Path 16551" d="M213.776,152.278l9.735-35.039a4.44,4.44,0,0,0,.129-1.709,4.451,4.451,0,0,0-4.987,3.2l-9.742,35.065a10.312,10.312,0,0,1-9.933,7.6h-21.4a4.466,4.466,0,0,0-4.467,4.466h0a4.316,4.316,0,0,0,.052.521,4.383,4.383,0,0,0,.666.067h21.4a19.253,19.253,0,0,0,18.546-14.164Z"/>
      <path id="Path_16552" data-name="Path 16552" d="M181.632,168.771a1.874,1.874,0,0,1-1.781-2.457l4.515-13.771a11.666,11.666,0,0,1,11.109-8.048h26.606a1.873,1.873,0,0,1,0,3.746H195.475a7.928,7.928,0,0,0-7.549,5.468l-4.515,13.771a1.875,1.875,0,0,1-1.779,1.29Z" fill="#00b2ca"/>
      <rect id="Rectangle_1739" data-name="Rectangle 1739" width="6.752" height="9.091" transform="translate(190.867 173.751)" fill="#00b2ca"/>
      <rect id="Rectangle_1740" data-name="Rectangle 1740" width="3.438" height="25.185" transform="translate(192.523 182.842)" fill="#00b2ca"/>
      <rect id="Rectangle_1741" data-name="Rectangle 1741" width="1.719" height="25.185" transform="translate(194.242 182.842)"/>
      <rect id="Rectangle_1742" data-name="Rectangle 1742" width="3.376" height="9.091" transform="translate(194.242 173.751)"/>
      <path id="Path_16553" data-name="Path 16553" d="M213.763,207.038h-19.52v1.2h20.649v-.074a1.13,1.13,0,0,0-1.129-1.126"/>
      <path id="Path_16554" data-name="Path 16554" d="M222.081,144.5H195.475a11.666,11.666,0,0,0-11.109,8.048l-.264.806a11.5,11.5,0,0,1,3.931-4.688,13.314,13.314,0,0,1,7.654-2.288h28.268a1.874,1.874,0,0,0-1.873-1.873Z"/>
      <g id="Group_4370" data-name="Group 4370" opacity="0.38">
        <g id="Group_4369" data-name="Group 4369">
          <g id="Group_4368" data-name="Group 4368" clip-path="url(#clip-path-4)">
            <path id="Path_16555" data-name="Path 16555" d="M219.723,148.242l-.387,1.393-9.453.653.569-2.046Z" fill="#011721"/>
          </g>
        </g>
      </g>
      <rect id="Rectangle_1744" data-name="Rectangle 1744" width="1.94" height="70.852" transform="translate(82.774 142.887)" fill="#00b2ca"/>
      <rect id="Rectangle_1745" data-name="Rectangle 1745" width="1.94" height="70.852" transform="translate(172.313 142.887)" fill="#00b2ca"/>
      <path id="Path_16556" data-name="Path 16556" d="M69.8,141.978H185.22a.74.74,0,0,1,.738.738v.342a.74.74,0,0,1-.738.738H69.8a.74.74,0,0,1-.738-.738v-.342a.74.74,0,0,1,.738-.738" fill="#00b2ca"/>
      <path id="Path_16557" data-name="Path 16557" d="M106.923,141.978h37.448a.774.774,0,1,0,0-1.548H106.923a.774.774,0,0,0,0,1.548Z" fill="#011721"/>
      <path id="Path_16558" data-name="Path 16558" d="M106.95,140.678H135.1l-7.809-20.6H99.141Z" fill="#00b2ca"/>
      <path id="Path_16559" data-name="Path 16559" d="M117.305,129.855c.8-.205,1.668.491,1.94,1.554a1.794,1.794,0,0,1-.955,2.295c-.8.2-1.668-.491-1.94-1.554a1.794,1.794,0,0,1,.955-2.3" fill="#05293c"/>
      <path id="Path_16560" data-name="Path 16560" d="M137.1,60.757a3.89,3.89,0,0,1-3.34-1.887,7.273,7.273,0,0,0-12.5,0,3.893,3.893,0,1,1-6.673-4.013,15.06,15.06,0,0,1,25.843,0,3.894,3.894,0,0,1-3.333,5.9Z"/>
      <path id="Path_16561" data-name="Path 16561" d="M146.764,54.96a3.89,3.89,0,0,1-3.34-1.887,18.553,18.553,0,0,0-31.82,0,3.893,3.893,0,1,1-6.673-4.012,26.34,26.34,0,0,1,45.167,0,3.894,3.894,0,0,1-3.333,5.9Z"/>
      <path id="Path_16562" data-name="Path 16562" d="M98.039,48.826a3.9,3.9,0,0,1-3.333-5.9,38.264,38.264,0,0,1,65.615,0,3.893,3.893,0,1,1-6.673,4.012,30.477,30.477,0,0,0-52.269,0,3.893,3.893,0,0,1-3.34,1.887Z"/>
      <path id="Path_16563" data-name="Path 16563" d="M127.514,58.46a5.4,5.4,0,1,1-5.4,5.4,5.4,5.4,0,0,1,5.4-5.4"/>
      <g id="Group_4373" data-name="Group 4373" opacity="0.75">
        <g id="Group_4372" data-name="Group 4372">
          <g id="Group_4371" data-name="Group 4371" clip-path="url(#clip-path-5)">
            <path id="Path_16564" data-name="Path 16564" d="M137.1,60.757a3.89,3.89,0,0,1-3.34-1.887,7.273,7.273,0,0,0-12.5,0,3.893,3.893,0,1,1-6.673-4.013,15.06,15.06,0,0,1,25.843,0,3.894,3.894,0,0,1-3.333,5.9Z" fill="#00b2ca"/>
          </g>
        </g>
      </g>
      <g id="Group_4376" data-name="Group 4376" opacity="0.75">
        <g id="Group_4375" data-name="Group 4375">
          <g id="Group_4374" data-name="Group 4374" clip-path="url(#clip-path-6)">
            <path id="Path_16565" data-name="Path 16565" d="M146.764,54.96a3.89,3.89,0,0,1-3.34-1.887,18.553,18.553,0,0,0-31.82,0,3.893,3.893,0,1,1-6.673-4.012,26.34,26.34,0,0,1,45.167,0,3.894,3.894,0,0,1-3.333,5.9Z" fill="#00b2ca"/>
          </g>
        </g>
      </g>
      <g id="Group_4379" data-name="Group 4379" opacity="0.75">
        <g id="Group_4378" data-name="Group 4378">
          <g id="Group_4377" data-name="Group 4377" clip-path="url(#clip-path-7)">
            <path id="Path_16566" data-name="Path 16566" d="M98.039,48.826a3.9,3.9,0,0,1-3.333-5.9,38.264,38.264,0,0,1,65.615,0,3.893,3.893,0,1,1-6.673,4.012,30.477,30.477,0,0,0-52.269,0,3.893,3.893,0,0,1-3.34,1.887Z" fill="#00b2ca"/>
          </g>
        </g>
      </g>
      <g id="Group_4382" data-name="Group 4382" opacity="0.75">
        <g id="Group_4381" data-name="Group 4381">
          <g id="Group_4380" data-name="Group 4380" clip-path="url(#clip-path-8)">
            <path id="Path_16567" data-name="Path 16567" d="M127.514,58.46a5.4,5.4,0,1,1-5.4,5.4,5.4,5.4,0,0,1,5.4-5.4" fill="#00b2ca"/>
          </g>
        </g>
      </g>
      <path id="Path_16568" data-name="Path 16568" d="M127.514,63.858l1.6-5.158a5.4,5.4,0,0,0-3.29,10.281l1.694-5.123Z" fill="#00b2ca"/>
      <path id="Path_16569" data-name="Path 16569" d="M130.015,55.771l2.308-7.462a15.15,15.15,0,0,0-4.81-.777,14.971,14.971,0,0,0-12.922,7.325,3.893,3.893,0,0,0,6.673,4.013,7.245,7.245,0,0,1,8.751-3.1Z" fill="#00b2ca"/>
      <path id="Path_16570" data-name="Path 16570" d="M133.349,44.992l2.291-7.408a26.124,26.124,0,0,0-8.127-1.308A26.5,26.5,0,0,0,104.93,49.059a3.893,3.893,0,1,0,6.673,4.012,18.425,18.425,0,0,1,15.91-9.009,18.692,18.692,0,0,1,5.836.929Z" fill="#00b2ca"/>
      <path id="Path_16571" data-name="Path 16571" d="M136.873,33.6l2.287-7.393a37.945,37.945,0,0,0-11.647-1.852,38.489,38.489,0,0,0-32.807,18.57,3.894,3.894,0,1,0,6.6,4.134c.025-.04.049-.08.073-.121a30.264,30.264,0,0,1,26.134-14.8,30.715,30.715,0,0,1,9.36,1.458Z" fill="#00b2ca"/>
      <path id="Path_16572" data-name="Path 16572" d="M123.611,110.131l-15.029-4.4a1.648,1.648,0,0,1-.674-2.773L119.236,92.14l11.329-10.814a1.648,1.648,0,0,1,2.738.8L137,97.344l3.7,15.218a1.647,1.647,0,0,1-2.064,1.97l-15.029-4.4Z" fill="#011721"/>
      <path id="Path_16572-2" data-name="Path 16572" d="M123.611,110.131l-15.029-4.4a1.648,1.648,0,0,1-.674-2.773L119.236,92.14l11.329-10.814a1.648,1.648,0,0,1,2.738.8L137,97.344l3.7,15.218a1.647,1.647,0,0,1-2.064,1.97l-15.029-4.4Z" fill="#fa6e53" opacity="0.8"/>
      <path id="Path_16573" data-name="Path 16573" d="M124.032,108.695l-14.194-4.16a.568.568,0,0,1-.233-.956l10.7-10.212L131,83.155a.568.568,0,0,1,.944.277L135.441,97.8l3.494,14.372a.568.568,0,0,1-.712.679l-14.194-4.16Z" fill="#fa6e53"/>
      <path id="Path_16574" data-name="Path 16574" d="M127.4,101.28l-2.2-.645,2.114-9.606,3.493,1.024Z" fill="#fff"/>
      <path id="Path_16575" data-name="Path 16575" d="M124.3,102.1a1.82,1.82,0,1,1,0,2.574,1.82,1.82,0,0,1,0-2.574" fill="#fff"/>
      <path id="Path_16576" data-name="Path 16576" d="M67.79,198.623h50.626v1.81a13.491,13.491,0,0,1-13.486,13.486H81.276A13.491,13.491,0,0,1,67.79,200.433Z" fill="#00b2ca"/>
      <path id="Path_16577" data-name="Path 16577" d="M83.086,209.939h20.037a15.3,15.3,0,0,0,14.769-11.315l-49.576,0a15.3,15.3,0,0,0,14.77,11.317"/>
      <g id="Group_4385" data-name="Group 4385" opacity="0.75">
        <g id="Group_4384" data-name="Group 4384">
          <g id="Group_4383" data-name="Group 4383" clip-path="url(#clip-path-9)">
            <path id="Path_16578" data-name="Path 16578" d="M83.086,209.939h20.037a15.3,15.3,0,0,0,14.769-11.315l-49.576,0a15.3,15.3,0,0,0,14.77,11.317" fill="#00b2ca"/>
          </g>
        </g>
      </g>
      <path id="Path_16579" data-name="Path 16579" d="M88.487,194.644S76.9,169.812,99.887,153.35c0,0,16.279,12.875-3.311,41.294Z"/>
      <g id="Group_4388" data-name="Group 4388" opacity="0.75">
        <g id="Group_4387" data-name="Group 4387">
          <g id="Group_4386" data-name="Group 4386" clip-path="url(#clip-path-10)">
            <path id="Path_16580" data-name="Path 16580" d="M88.487,194.644S76.9,169.812,99.887,153.35c0,0,16.279,12.875-3.311,41.294Z" fill="#00b2ca"/>
          </g>
        </g>
      </g>
      <path id="Path_16581" data-name="Path 16581" d="M99.892,153.349s4.287,30.966-8.036,41.294h4.725c19.589-28.419,3.311-41.294,3.311-41.294" fill="#00b2ca"/>
      <path id="Path_16582" data-name="Path 16582" d="M105.923,173.3s-13.269-.09-17.409,12.8l3.346,3.445Z" fill="#00b2ca"/>
      <path id="Path_16583" data-name="Path 16583" d="M86.8,198.623s-.644-33.845,34.3-23.544c0,0-3.127,15.267-24.28,23.544Z"/>
      <g id="Group_4391" data-name="Group 4391" opacity="0.75">
        <g id="Group_4390" data-name="Group 4390">
          <g id="Group_4389" data-name="Group 4389" clip-path="url(#clip-path-11)">
            <path id="Path_16584" data-name="Path 16584" d="M86.8,198.623s-.644-33.845,34.3-23.544c0,0-3.127,15.267-24.28,23.544Z" fill="#00b2ca"/>
          </g>
        </g>
      </g>
      <path id="Path_16585" data-name="Path 16585" d="M121.1,175.078s-18.487,1.468-29.616,23.544H96.82c21.153-8.277,24.28-23.544,24.28-23.544" fill="#00b2ca"/>
      <path id="Path_16586" data-name="Path 16586" d="M85.923,185.193l-.052-.387s12.149,2.033,12.106,13.35l-.767.248-4.487-1.385-7.161-9.713.359-2.114Z" fill="#00b2ca"/>
      <path id="Path_16587" data-name="Path 16587" d="M97.19,198.623s2.391-15.451-24.372-14.807a18.473,18.473,0,0,0,8.829,14.807Z"/>
      <g id="Group_4394" data-name="Group 4394" opacity="0.75">
        <g id="Group_4393" data-name="Group 4393">
          <g id="Group_4392" data-name="Group 4392" clip-path="url(#clip-path-12)">
            <path id="Path_16588" data-name="Path 16588" d="M97.19,198.623s2.391-15.451-24.372-14.807a18.473,18.473,0,0,0,8.829,14.807Z" fill="#00b2ca"/>
          </g>
        </g>
      </g>
      <path id="Path_16589" data-name="Path 16589" d="M72.818,183.815a18.473,18.473,0,0,0,8.829,14.807H87.9c-8.829-4.832-15.078-14.807-15.078-14.807Z" fill="#00b2ca"/>
      <path id="Path_16590" data-name="Path 16590" d="M95.581,191.854a.06.06,0,0,1-.049-.1c.075-.1,7.6-10.366,16.2-13.88a.06.06,0,0,1,.045.111c-8.565,3.5-16.073,13.736-16.148,13.84a.06.06,0,0,1-.049.025Z" fill="#00b2ca"/>
      <path id="Path_16591" data-name="Path 16591" d="M100.116,174.81h-.007a.06.06,0,0,1-.053-.066,88.373,88.373,0,0,0,.469-11.685.06.06,0,0,1,.12,0,88.427,88.427,0,0,1-.47,11.7.06.06,0,0,1-.06.054Z" fill="#00b2ca"/>
      <path id="Path_16592" data-name="Path 16592" d="M87.9,198.682a.059.059,0,0,1-.029-.007,31.482,31.482,0,0,1-6.543-4.764.06.06,0,1,1,.087-.083,31.347,31.347,0,0,0,6.513,4.74.06.06,0,0,1-.029.113Z" fill="#00b2ca"/>
      <path id="Path_16593" data-name="Path 16593" d="M83.776,83.066l-2.613-.511,1-7.785,2.663-.42Z" fill="#05293c"/>
      <path id="Path_16594" data-name="Path 16594" d="M84.823,74.349l.334.106-1.094,8.61h-.289Z" fill="#011721"/>
      <path id="Path_16595" data-name="Path 16595" d="M82.323,74.958l2.208-.289-.937,8.078-2.149-.322Z" fill="#00b2ca"/>
      <path id="Path_16596" data-name="Path 16596" d="M57.623,127.046l8.4,36.359L53.508,206.839a2.12,2.12,0,0,1-4.144-.588l-.94-45.914Z" fill="#011721"/>
      <path id="Path_16597" data-name="Path 16597" d="M61.953,164.028l-7.938,34.753-2.533,9.545a2.043,2.043,0,0,0,2.025-1.487L66.023,163.4l-8.4-36.359Z" fill="#05293c"/>
      <path id="Path_16598" data-name="Path 16598" d="M49.186,197.63l.176,8.622a2.12,2.12,0,0,0,4.144.588l2.378-8.252s-1.844.869-6.7-.957Z" fill="#d39266"/>
      <path id="Path_16599" data-name="Path 16599" d="M56.975,87.769s12.206-5.4,15.19-12.272a40.756,40.756,0,0,0-21.6-6.478A1.145,1.145,0,0,0,50,71.14c2.741,1.7,7.073,3.479,13.107,5.691L50.148,81.093l6.826,6.676Z"/>
      <g id="Group_4397" data-name="Group 4397" opacity="0.75">
        <g id="Group_4396" data-name="Group 4396">
          <g id="Group_4395" data-name="Group 4395" clip-path="url(#clip-path-13)">
            <path id="Path_16600" data-name="Path 16600" d="M56.975,87.769s12.206-5.4,15.19-12.272a40.756,40.756,0,0,0-21.6-6.478A1.145,1.145,0,0,0,50,71.14c2.741,1.7,7.073,3.479,13.107,5.691L50.148,81.093l6.826,6.676Z" fill="#00b2ca"/>
          </g>
        </g>
      </g>
      <path id="Path_16601" data-name="Path 16601" d="M49.474,70.078A1.115,1.115,0,0,0,50,71.139c2.741,1.7,7.073,3.479,13.107,5.691l1.635-.3-.352-.252c-3.665-2.782-12.755-5.563-14.918-6.2Z" fill="#00b2ca"/>
      <path id="Path_16602" data-name="Path 16602" d="M56.975,87.769s12.206-5.4,15.19-12.272a28.7,28.7,0,0,1-16.293,8.2l-1.749,1.276,2.855,2.792Z" fill="#00b2ca"/>
      <path id="Path_16603" data-name="Path 16603" d="M50,71.14a38.367,38.367,0,0,0,4.584,2.327,2.623,2.623,0,0,0,.861-3.608,2.593,2.593,0,0,0-.476-.573,36.86,36.86,0,0,0-4.406-.267A1.145,1.145,0,0,0,50,71.14" fill="#ffd2b3"/>
      <path id="Path_16604" data-name="Path 16604" d="M49.474,70.078A1.115,1.115,0,0,0,50,71.139a38.367,38.367,0,0,0,4.584,2.327,3.492,3.492,0,0,0,1.08-1.352c-2.73-.994-5.2-1.743-6.192-2.037Z" fill="#d39266"/>
      <path id="Path_16605" data-name="Path 16605" d="M52.839,73.251l.5-3.107s-5.675.455-8.407,1.016c0,0-3.678,3.293,2.59,10.3l3.82-5.015,1.5-3.2Z" fill="#011721"/>
      <path id="Path_16606" data-name="Path 16606" d="M51.167,81.074l-.144-1.717h2.291L55.3,76.484l-3.06-4.017s-1,3.106-3.842,3.492l-.975-1.717s-1.261,1.331.21,3.538a4.151,4.151,0,0,1-.107,3.684l3.644-.391Z" fill="#ffd2b3"/>
      <path id="Path_16607" data-name="Path 16607" d="M85.89,79.805a1.193,1.193,0,0,0-1.835-1.471C78.33,83.482,69.436,91.3,67.188,92.247L53.461,81.882a5.6,5.6,0,0,0-8.65,2.59c-2.474,6.99-5.762,19.752-6.957,40.175a19.509,19.509,0,0,0,19.765,2.4c.363-9.861.461-20.066.174-30.419l9.572,3.116s7.369.07,18.525-19.938Z" fill="#00b2ca"/>
      <path id="Path_16608" data-name="Path 16608" d="M37.854,124.646c1.045-17.869,3.694-29.873,6-37.278-5,16.066-11.627,53.775.048,126.135a2,2,0,0,0,3.941.063,598.11,598.11,0,0,0,9.78-86.521,19.509,19.509,0,0,1-19.765-2.4Z" fill="#011721"/>
      <path id="Path_16609" data-name="Path 16609" d="M85.89,79.805a1.155,1.155,0,0,0-.243-1.462c-.025.044-7.376,12.882-17.534,19.407A107.332,107.332,0,0,1,55.3,94.431s2.051,21.627-11.078,33.469a19.458,19.458,0,0,0,13.392-.853c.363-9.861.461-20.066.174-30.419l9.572,3.116s7.369.07,18.525-19.938Z"/>
      <g id="Group_4400" data-name="Group 4400" opacity="0.75">
        <g id="Group_4399" data-name="Group 4399">
          <g id="Group_4398" data-name="Group 4398" clip-path="url(#clip-path-14)">
            <path id="Path_16610" data-name="Path 16610" d="M85.89,79.805a1.155,1.155,0,0,0-.243-1.462c-.025.044-7.376,12.882-17.534,19.407A107.332,107.332,0,0,1,55.3,94.431s2.051,21.627-11.078,33.469a19.458,19.458,0,0,0,13.392-.853c.363-9.861.461-20.066.174-30.419l9.572,3.116s7.369.07,18.525-19.938Z" fill="#00b2ca"/>
          </g>
        </g>
      </g>
      <path id="Path_16611" data-name="Path 16611" d="M84.055,78.334c-.98.881-2.057,1.843-3.174,2.834,0,0,.406,2.539,2.729,2.535.742-1.209,1.5-2.5,2.28-3.9a1.193,1.193,0,0,0-1.835-1.471Z" fill="#ffd2b3"/>
      <path id="Path_16612" data-name="Path 16612" d="M82.34,83.384a2.533,2.533,0,0,0,1.271.319c.742-1.209,1.5-2.5,2.28-3.9a1.155,1.155,0,0,0-.243-1.462c-.011.02-1.212,2.117-3.308,5.043" fill="#d39266"/>
      <path id="Path_16613" data-name="Path 16613" d="M47.84,213.567a598.116,598.116,0,0,0,9.78-86.521,20.511,20.511,0,0,1-6.506,1.6v.058c1.915,27.322-4.51,81.7-5.084,86.475a1.926,1.926,0,0,0,1.815-1.612Z" fill="#05293c"/>
      <path id="Path_16614" data-name="Path 16614" d="M49.337,204.984a8.265,8.265,0,0,1-6.751,0q.615,4.181,1.312,8.519a2,2,0,0,0,3.941.063c.467-2.46.988-5.315,1.542-8.518l-.044-.066Z" fill="#d39266"/>
      <path id="Path_16615" data-name="Path 16615" d="M47.84,213.567c.467-2.46.988-5.315,1.542-8.518l-.044-.066a7.279,7.279,0,0,1-2.235.664c-.541,5.034-.95,8.483-1.077,9.533a1.926,1.926,0,0,0,1.815-1.612Z" fill="#ffd2b3"/>
      <path id="Path_16616" data-name="Path 16616" d="M53.507,206.839l2.378-8.252a4.365,4.365,0,0,1-1.871.194l-2.533,9.545a2.042,2.042,0,0,0,2.026-1.487" fill="#ffd2b3"/>
      <path id="Path_16617" data-name="Path 16617" d="M89.511,67.829a6.559,6.559,0,1,1,0,9.276,6.559,6.559,0,0,1,0-9.276" fill="#fa6e53"/>
      <path id="Path_16618" data-name="Path 16618" d="M90.854,75.763h0a1.039,1.039,0,0,1,0-1.465l5.125-5.125a1.036,1.036,0,1,1,1.465,1.465l-5.121,5.125a1.038,1.038,0,0,1-1.469,0" fill="#fff"/>
      <path id="Path_16619" data-name="Path 16619" d="M97.444,75.763h0a1.039,1.039,0,0,1-1.465,0l-5.125-5.125a1.036,1.036,0,1,1,1.465-1.465L97.444,74.3a1.038,1.038,0,0,1,0,1.463" fill="#fff"/>
      <path id="Path_16620" data-name="Path 16620" d="M141.387,106.249a.08.08,0,0,1-.078-.062l-5.253-21.934a.08.08,0,0,1,.055-.1h0a.082.082,0,0,1,.1.059h0l5.253,21.934a.08.08,0,0,1-.055.1h-.023Z" fill="#00b2ca"/>
      <path id="Path_16621" data-name="Path 16621" d="M114.628,109.971a.057.057,0,0,1-.026,0l-9.478-3.2a.08.08,0,0,1-.051-.1.082.082,0,0,1,.1-.051l9.478,3.2a.08.08,0,0,1,.048.1.081.081,0,0,1-.074.053Z" fill="#00b2ca"/>
      <path id="Path_16622" data-name="Path 16622" d="M164.073,33.918a.079.079,0,0,1-.067-.036,39.739,39.739,0,0,0-9.6-9.161,44.741,44.741,0,0,0-29.2-7.7.076.076,0,0,1-.086-.064v-.011a.081.081,0,0,1,.075-.087,44.866,44.866,0,0,1,29.314,7.736,39.9,39.9,0,0,1,9.634,9.2.079.079,0,0,1-.021.111h0a.08.08,0,0,1-.045.014Z" fill="#011721"/>
    </g>
  </g>
</svg>
