<svg id="safety_tips" xmlns="http://www.w3.org/2000/svg" width="110.967" height="126.586" viewBox="0 0 110.967 126.586">
  <path id="Path_24281" data-name="Path 24281" d="M108.467,29.817,57.983.67a5,5,0,0,0-5,0L2.5,29.817A5,5,0,0,0,0,34.147V92.44a5,5,0,0,0,2.5,4.331l50.483,29.146a5,5,0,0,0,5,0l50.484-29.146a5,5,0,0,0,2.5-4.331V34.147a5,5,0,0,0-2.5-4.33" transform="translate(0 0)" fill="#f6f5fa"/>
  <g id="idea-protection_11816219" transform="translate(10.696 18.375)">
    <path id="Path_25613" data-name="Path 25613" d="M45.841,6.85V2.9a1.039,1.039,0,0,0-1.054-1.054A.969.969,0,0,0,43.733,2.9V6.982a1.276,1.276,0,0,0,1.054.922A1.133,1.133,0,0,0,45.841,6.85Z" fill="#fa6e53"/>
    <path id="Path_25614" data-name="Path 25614" d="M30.956,11.592a.941.941,0,0,0,.4-1.317L29.375,6.718a.972.972,0,1,0-1.712.922L29.639,11.2A.941.941,0,0,0,30.956,11.592Z" fill="#fa6e53"/>
    <path id="Path_25615" data-name="Path 25615" d="M19.627,22a.972.972,0,1,0,.922-1.712L16.993,18.31a.972.972,0,1,0-.922,1.712Z" fill="#fa6e53"/>
    <path id="Path_25616" data-name="Path 25616" d="M69.025,50.583l3.557,1.976a.972.972,0,1,0,.922-1.712l-3.557-1.976a.913.913,0,0,0-1.317.4A.941.941,0,0,0,69.025,50.583Z" fill="#fa6e53"/>
    <path id="Path_25617" data-name="Path 25617" d="M11.2,35.435a1.039,1.039,0,0,0,1.054,1.054h4.084a1.039,1.039,0,0,0,1.054-1.054.969.969,0,0,0-1.054-1.054H12.251c-.659.132-1.054.527-1.054,1.054Z" fill="#fa6e53"/>
    <path id="Path_25618" data-name="Path 25618" d="M78.377,35.435a1.039,1.039,0,0,0-1.054-1.054H73.24a1.054,1.054,0,1,0,0,2.108h4.084A1.039,1.039,0,0,0,78.377,35.435Z" fill="#fa6e53"/>
    <path id="Path_25619" data-name="Path 25619" d="M16.993,52.559l3.557-1.976a.972.972,0,1,0-.922-1.712l-3.557,1.976a.972.972,0,1,0,.922,1.712Z" fill="#fa6e53"/>
    <path id="Path_25620" data-name="Path 25620" d="M69.947,22,73.5,20.022a.972.972,0,0,0-.922-1.712l-3.557,1.976A.972.972,0,1,0,69.947,22Z" fill="#fa6e53"/>
    <path id="Path_25621" data-name="Path 25621" d="M59.936,11.2l1.976-3.425A.972.972,0,1,0,60.2,6.85l-1.976,3.557a.913.913,0,0,0,.4,1.317,1.136,1.136,0,0,0,1.317-.527Z" fill="#fa6e53"/>
    <path id="Path_25622" data-name="Path 25622" d="M58.618,65.732A37.311,37.311,0,0,1,64.81,51.637c3.03-4.61,6.191-9.353,5.664-17.915C69.683,20.549,58.355,9.88,45.446,9.88A25.563,25.563,0,0,0,24.5,50.978,34.217,34.217,0,0,1,31.088,65.6a3.711,3.711,0,0,0,1.976,2.635v3.03H31.878a1.054,1.054,0,1,0,0,2.108h1.054v2.5H31.746a1.039,1.039,0,0,0-1.054,1.054.969.969,0,0,0,1.054,1.054h1.186v.132a5,5,0,0,0,5.006,5.006h1.054a5.883,5.883,0,0,0,11.592,0h1.054a5,5,0,0,0,5.006-5.006v-.4H57.7a1.039,1.039,0,0,0,1.054-1.054A.969.969,0,0,0,57.7,75.611H56.643v-2.5H57.7A1.054,1.054,0,1,0,57.7,71H56.643v-3.03a2.891,2.891,0,0,0,1.976-2.239ZM26.082,49.924A23.681,23.681,0,0,1,44.524,11.855h.659c11.987,0,22.262,9.88,23.052,22,.527,7.9-2.239,12.119-5.269,16.729a39.088,39.088,0,0,0-6.455,14.753,1.565,1.565,0,0,1-1.581,1.317H34.512a1.565,1.565,0,0,1-1.581-1.317,36.121,36.121,0,0,0-6.85-15.412Zm18.705,35.83a3.952,3.952,0,0,1-3.82-2.9h7.508A3.829,3.829,0,0,1,44.787,85.754Z"/>
    <path id="Path_25623" data-name="Path 25623" d="M43.733,52.559a2.482,2.482,0,0,0,1.054.263,3.1,3.1,0,0,0,1.054-.263c10.406-5.006,12.251-16.6,12.382-23.052a2.3,2.3,0,0,0-1.976-2.371A26.226,26.226,0,0,1,46.1,23.316a2.176,2.176,0,0,0-2.5,0,26.226,26.226,0,0,1-10.143,3.82,2.3,2.3,0,0,0-1.976,2.371c.132,11.2,4.61,19.364,12.251,23.052ZM40.177,36.488a1.034,1.034,0,0,1,1.449,0L43.6,38.464l4.61-4.61A1.025,1.025,0,0,1,49.661,35.3l-5.269,5.269a3.351,3.351,0,0,1-.922.263,1.006,1.006,0,0,1-.659-.263l-2.635-2.635a1.034,1.034,0,0,1,0-1.449Z" fill="#00b2ca"/>
  </g>
</svg>
