<svg id="onbo_b" xmlns="http://www.w3.org/2000/svg" xmlns:xlink="http://www.w3.org/1999/xlink" width="339" height="224.415" viewBox="0 0 339 224.415">
  <defs>
    <clipPath id="clip-path">
      <rect id="Rectangle_2273" data-name="Rectangle 2273" width="339" height="224.415" fill="none"/>
    </clipPath>
    <clipPath id="clip-path-2">
      <rect id="Rectangle_2260" data-name="Rectangle 2260" width="338.999" height="224.415" fill="none"/>
    </clipPath>
    <clipPath id="clip-path-3">
      <rect id="Rectangle_2259" data-name="Rectangle 2259" width="339" height="177.898" fill="#f6f5fa"/>
    </clipPath>
    <clipPath id="clip-path-4">
      <path id="Path_23289" data-name="Path 23289" d="M478.461,0a14.623,14.623,0,0,0-14.624,14.624V196.633a14.624,14.624,0,0,0,14.624,14.624h75.561a14.62,14.62,0,0,0,14.624-14.624V14.624A14.624,14.624,0,0,0,554.022,0Z" transform="translate(-463.837)" fill="none"/>
    </clipPath>
    <linearGradient id="linear-gradient" x1="-0.247" y1="1.026" x2="-0.246" y2="1.026" gradientUnits="objectBoundingBox">
      <stop offset="0" stop-color="#510394"/>
      <stop offset="0.141" stop-color="#4a0387"/>
      <stop offset="0.397" stop-color="#380368"/>
      <stop offset="0.736" stop-color="#1b0334"/>
      <stop offset="1" stop-color="#030408"/>
    </linearGradient>
    <clipPath id="clip-path-6">
      <rect id="Rectangle_2263" data-name="Rectangle 2263" width="319.435" height="22.411" fill="none"/>
    </clipPath>
    <clipPath id="clip-path-7">
      <path id="Path_23295" data-name="Path 23295" d="M79.156,840.648c-5.935.694-15.578,1.966-15.639,3.8-.056,1.654,7.709,3.009,10.426,3.483,31.078,5.424,37.828-3.67,78.949.256,21.567,2.059,18.313,5.474,37.44,6.333,26.17,1.175,66.056-5.96,98.771-5.639,13.958.137,14.178,1.293,33.174,2.217,7.462.363,59.732,2.85,60.662-.95.168-.687-1.092-2.6-23.7-7.283,0,0-107.915-22.35-280.087-2.216" transform="translate(-63.517 -832.24)" fill="none"/>
    </clipPath>
    <linearGradient id="linear-gradient-2" x1="-0.048" y1="0.97" x2="-0.047" y2="0.97" gradientUnits="objectBoundingBox">
      <stop offset="0" stop-color="#d3d6db"/>
      <stop offset="0.999" stop-color="#7a869b"/>
      <stop offset="1" stop-color="#7a869b"/>
    </linearGradient>
    <clipPath id="clip-path-8">
      <rect id="Rectangle_2264" data-name="Rectangle 2264" width="72.615" height="59.131" fill="none"/>
    </clipPath>
    <clipPath id="clip-path-9">
      <rect id="Rectangle_2265" data-name="Rectangle 2265" width="72.615" height="40.549" fill="none"/>
    </clipPath>
    <clipPath id="clip-path-11">
      <rect id="Rectangle_2268" data-name="Rectangle 2268" width="24.529" height="24.595" fill="none"/>
    </clipPath>
  </defs>
  <g id="Group_4798" data-name="Group 4798" clip-path="url(#clip-path)">
    <g id="Group_4764" data-name="Group 4764">
      <g id="Group_4763" data-name="Group 4763" clip-path="url(#clip-path-2)">
        <g id="Group_4762" data-name="Group 4762" transform="translate(0 14.037)" opacity="0.59">
          <g id="Group_4761" data-name="Group 4761">
            <g id="Group_4760" data-name="Group 4760" clip-path="url(#clip-path-3)">
              <path id="Path_23288" data-name="Path 23288" d="M.133,140.242c-3.87-79.6,77.409-92.207,110.506-76.569,14.255,6.735,8.6,21,22.843,36.3,40.672,43.675,153.781,5.573,183.5,39.878,19.264,22.234,30.388,45.884,14.259,68.018C282.835,274.3,3.521,209.907.133,140.242" transform="translate(0 -57.83)" fill="#f6f5fa"/>
            </g>
          </g>
        </g>
      </g>
    </g>
    <g id="Group_4766" data-name="Group 4766" transform="translate(112.584)">
      <g id="Group_4765" data-name="Group 4765" clip-path="url(#clip-path-4)">
        <rect id="Rectangle_2261" data-name="Rectangle 2261" width="220.778" height="225.944" transform="translate(-105.38 98.384) rotate(-43.034)" fill="url(#linear-gradient)"/>
      </g>
    </g>
    <g id="Group_4797" data-name="Group 4797">
      <g id="Group_4796" data-name="Group 4796" clip-path="url(#clip-path-2)">
        <path id="Path_23290" data-name="Path 23290" d="M570.262,23.533H498.488a10.019,10.019,0,0,0-10.02,10.02V211.794a10.019,10.019,0,0,0,10.02,10.02h71.775a10.019,10.019,0,0,0,10.02-10.02V33.553a10.019,10.019,0,0,0-10.02-10.02" transform="translate(-369.905 -17.821)" fill="#fff"/>
        <path id="Path_23291" data-name="Path 23291" d="M523.011,47.233h-9.1a1.491,1.491,0,0,1,0-2.982h9.1a1.491,1.491,0,0,1,0,2.982" transform="translate(-388.041 -33.51)" fill="#510394"/>
        <path id="Path_23292" data-name="Path 23292" d="M797.651,47.233h-.4a1.491,1.491,0,1,1,0-2.982h.4a1.491,1.491,0,0,1,0,2.982" transform="translate(-602.608 -33.51)" fill="#510394"/>
        <path id="Path_23293" data-name="Path 23293" d="M822.317,47.233H818.33a1.491,1.491,0,1,1,0-2.982h3.987a1.491,1.491,0,0,1,0,2.982" transform="translate(-618.573 -33.51)" fill="#510394"/>
        <path id="Path_23294" data-name="Path 23294" d="M674.379,42.506a2.528,2.528,0,1,1-2.528-2.528,2.528,2.528,0,0,1,2.528,2.528" transform="translate(-506.862 -30.274)" fill="#510394"/>
        <g id="Group_4771" data-name="Group 4771" transform="translate(15.417 202.004)" opacity="0.3">
          <g id="Group_4770" data-name="Group 4770">
            <g id="Group_4769" data-name="Group 4769" clip-path="url(#clip-path-6)">
              <g id="Group_4768" data-name="Group 4768" transform="translate(0)">
                <g id="Group_4767" data-name="Group 4767" clip-path="url(#clip-path-7)">
                  <rect id="Rectangle_2262" data-name="Rectangle 2262" width="319.646" height="35.181" transform="translate(-0.056 -11.726)" fill="url(#linear-gradient-2)"/>
                </g>
              </g>
            </g>
          </g>
        </g>
        <path id="Path_23296" data-name="Path 23296" d="M363.016,793.2s.082,3.1-.654,4.494-1.389,1.675-1.062,2.165,3.458,6.6,6.563,6.027a8.839,8.839,0,0,0,5.647-4.717c.082-.694-3.506-4.054-3.264-7.111.1-1.3-7.231-.858-7.231-.858" transform="translate(-273.539 -600.614)" fill="#fff"/>
        <path id="Path_23297" data-name="Path 23297" d="M366.3,805.129c-1.9,0-4-1.993-6.277-5.935-.083-.144-.141-.245-.172-.292-.34-.51-.044-.913.3-1.379a8.673,8.673,0,0,0,.745-1.159c.682-1.288.612-4.284.611-4.314a.364.364,0,0,1,.342-.373c1.06-.065,6.4-.334,7.4.68a.714.714,0,0,1,.219.57c-.152,1.922,1.358,4.034,2.358,5.432.657.919.946,1.34.9,1.693-.111.943-2.8,4.454-5.943,5.032a2.659,2.659,0,0,1-.483.044m-4.063-12.744a11.308,11.308,0,0,1-.7,4.32,9.423,9.423,0,0,1-.8,1.249c-.322.438-.324.477-.279.544s.1.168.2.332c1.579,2.74,3.9,5.924,6,5.538,2.861-.527,5.236-3.757,5.349-4.384a7.147,7.147,0,0,0-.771-1.2c-1.061-1.484-2.665-3.726-2.491-5.914-.225-.432-3.22-.658-6.5-.485" transform="translate(-272.394 -599.457)" fill="#510394"/>
        <path id="Path_23298" data-name="Path 23298" d="M236.276,809.18c-2.485.086-5.306,2.224-5.577,4.332s.225,11.009,1.576,11.819,5.568.919,6.866,0,2.168-6.362,1.947-9.539-2.055-6.708-4.812-6.613" transform="translate(-174.649 -612.772)" fill="#4cbcf3"/>
        <path id="Path_23299" data-name="Path 23299" d="M241.581,810.016s-.277,3.875-.484,5.813,1.038,4.844,3.944,4.567,3.41-3.855,3.2-4.951c-.37-1.894-1.259-6.259-1.259-6.259Z" transform="translate(-182.56 -612.778)" fill="#fff"/>
        <path id="Path_23300" data-name="Path 23300" d="M243.53,819.642a3.567,3.567,0,0,1-2.6-1.076,5.086,5.086,0,0,1-1.325-3.912c.2-1.909.481-5.761.483-5.8a.364.364,0,0,1,.308-.334l5.4-.83a.363.363,0,0,1,.412.287c.009.044.894,4.388,1.259,6.262a5.765,5.765,0,0,1-1,3.955,3.442,3.442,0,0,1-2.519,1.428q-.209.02-.412.02M240.79,809.2c-.069.938-.292,3.922-.464,5.536a4.318,4.318,0,0,0,1.118,3.323,2.875,2.875,0,0,0,2.429.843,2.742,2.742,0,0,0,2-1.139,5.114,5.114,0,0,0,.869-3.38c-.305-1.564-.972-4.852-1.189-5.916Z" transform="translate(-181.427 -611.641)" fill="#510394"/>
        <path id="Path_23301" data-name="Path 23301" d="M208.482,428.451s-4.57,23.558-2.286,45.772,4.629,41.723,5.247,44.548,4.061,3.178,6.886,2.648,4.767-2.648,4.855-4.061,2.911-58.138,2.911-62.095,11.956,14.773,13.948,25.932,3.985,34.074,3.985,34.074a5.056,5.056,0,0,0,5.181,2.79c3.786-.4,6.775-2.391,6.775-4.583s1.395-37.262-1.594-46.827-13.749-36.266-17.535-39.255-28.372,1.057-28.372,1.057" transform="translate(-155.663 -322.822)" fill="#3a3e3f"/>
        <path id="Path_23302" data-name="Path 23302" d="M199.013,356.477s-2.437,11.95-1.808,13.05,4.874,6.053,4.874,6.053l2.987-18.16Z" transform="translate(-149.261 -269.952)" fill="#fff"/>
        <path id="Path_23303" data-name="Path 23303" d="M200.992,374.809a.365.365,0,0,1-.276-.127c-.174-.2-4.275-4.992-4.914-6.11s1.189-10.469,1.768-13.3a.363.363,0,0,1,.413-.287l6.053.943a.364.364,0,0,1,.3.419l-2.987,18.16a.364.364,0,0,1-.261.291.358.358,0,0,1-.1.014m-2.778-19.054c-1.144,5.663-2.11,11.789-1.779,12.458.476.833,3.183,4.052,4.325,5.4l2.8-17.023Z" transform="translate(-148.173 -268.816)" fill="#510394"/>
        <path id="Path_23304" data-name="Path 23304" d="M352.844,290.06l6.835,7.411S372.63,288.693,374,286.1s5.756-6.907,5.756-6.907l-1.367,3.6,5.9-5.036-2.446,4.173,5.324-4.533-3.885,5.828,3.885-2.662-3.382,4.533,3.094-2.015-3.957,4.677a54.443,54.443,0,0,0-5.4,2.446c-2.23,1.223-13.094,15.109-17.915,15.541s-11.8-11.656-11.8-11.656Z" transform="translate(-263.387 -210.066)" fill="#fff"/>
        <path id="Path_23305" data-name="Path 23305" d="M358.223,304.984c-4.967,0-11.582-11.356-11.867-11.849a.365.365,0,0,1,.088-.467l5.037-4.029a.364.364,0,0,1,.495.037l6.623,7.18c4.523-3.078,12.913-9.113,13.941-11.06,1.378-2.61,5.641-6.819,5.823-7a.364.364,0,0,1,.6.389l-.862,2.268,4.818-4.113a.364.364,0,0,1,.551.461l-1.358,2.317,3.686-3.138a.364.364,0,0,1,.539.479l-2.841,4.262,2.333-1.6a.364.364,0,0,1,.5.518l-2.159,2.9,1.382-.9a.364.364,0,0,1,.476.54l-3.957,4.677a.363.363,0,0,1-.147.1,54.379,54.379,0,0,0-5.352,2.426,36.55,36.55,0,0,0-4.43,4.36c-4.332,4.61-10.265,10.923-13.627,11.224-.093.008-.187.012-.281.012M347.146,293.04a56.789,56.789,0,0,0,3.908,5.683c2.989,3.778,5.543,5.692,7.385,5.523,3.087-.276,9.15-6.728,13.162-11a33.61,33.61,0,0,1,4.611-4.5,54.248,54.248,0,0,1,5.353-2.433l2.294-2.712-1.014.66a.364.364,0,0,1-.491-.523l2.07-2.775-2.076,1.423a.364.364,0,0,1-.509-.5l2.439-3.659-3.339,2.843a.364.364,0,0,1-.551-.461l1.354-2.31-4.257,3.634a.364.364,0,0,1-.577-.406l.746-1.962a32.39,32.39,0,0,0-4.472,5.571c-1.394,2.64-13.9,11.139-14.436,11.5a.364.364,0,0,1-.472-.054l-6.605-7.161Z" transform="translate(-262.251 -208.931)" fill="#510394"/>
        <path id="Path_23306" data-name="Path 23306" d="M210.272,264c-7.118.862-11.559,7.778-14.757,14.974s-3.8,7.2-3.2,8.295,5.6,2.4,6.3,1.9c0,0-1.6,13.092-2.1,16.689s5.367,5.9,16.924,5.2,15.755-1.5,16.954-6.3-3.2-18.988-2.9-18.988,3.1,1.2,6.7-2.2,2.7-5.7,2.7-5.7-3.67-4.336-5.5-6.6c-4.155-5.141-8.453-8.194-14.786-7.736Z" transform="translate(-145.481 -199.543)" fill="#00b2ca"/>
        <path id="Path_23307" data-name="Path 23307" d="M272.581,236.078l.687,6.181a4.645,4.645,0,0,1-3.205.992c-2.213,0-3.129-.305-3.129-.534s1.526-7.326,1.526-7.326Z" transform="translate(-202.143 -178.256)" fill="#fff"/>
        <path id="Path_23308" data-name="Path 23308" d="M268.927,242.479c-3.493,0-3.493-.676-3.493-.9s.961-4.738,1.534-7.4a.365.365,0,0,1,.416-.283l4.121.687a.364.364,0,0,1,.3.319l.687,6.181a.363.363,0,0,1-.1.3,4.977,4.977,0,0,1-3.462,1.1m-2.742-1.021a8.234,8.234,0,0,0,2.742.292,4.718,4.718,0,0,0,2.821-.784l-.635-5.712-3.506-.584c-.542,2.522-1.28,6-1.422,6.787" transform="translate(-201.007 -177.12)" fill="#510394"/>
        <path id="Path_23309" data-name="Path 23309" d="M242.483,186.836c-.712,2.965-1.119,3.687-3.455,3.644s-4.819-3.251-6.895-4.006-3.276-9.732.889-12.108,7.266-7.435,11.375-5.05-.791,12.117-1.628,13.018-.286,4.5-.286,4.5" transform="translate(-174.352 -127.747)" fill="#510394"/>
        <path id="Path_23310" data-name="Path 23310" d="M266.238,186.9s5.869,2.847,5.594,3.755-.641,1.42-.423,2.124,2.732,6.092.331,7.445-7.647,1.453-8.085,1.031a6.071,6.071,0,0,1-.887-1.327s-2.639.262-3.034-.967.238-2.432.9-2.29.741.974,1.159.8-.681-1.375-.433-1.778,4.713-1.984,4.88-8.792" transform="translate(-196.598 -141.539)" fill="#fff"/>
        <path id="Path_23311" data-name="Path 23311" d="M264.219,200.707a3.715,3.715,0,0,1-1.944-.321,5.556,5.556,0,0,1-.846-1.209c-.743.039-2.763.027-3.169-1.237a2.566,2.566,0,0,1,.374-2.4.992.992,0,0,1,.947-.355,1.193,1.193,0,0,1,.442.195,1.062,1.062,0,0,1-.1-1.006,1.6,1.6,0,0,1,.524-.418c1.14-.73,4.168-2.67,4.3-8.193a.364.364,0,0,1,.523-.319c.015.007,1.5.727,2.923,1.549,2.586,1.49,3.014,2.132,2.861,2.639-.077.253-.16.477-.234.675a1.825,1.825,0,0,0-.189,1.235c.023.073.084.229.161.427.652,1.668,2.385,6.1,0,7.443a13.476,13.476,0,0,1-4.927,1.226c-.152.013-.878.071-1.645.071m-1.455-.861c.551.267,5.367.227,7.669-1.071,1.833-1.032.212-5.18-.321-6.543-.086-.219-.148-.377-.178-.476a2.444,2.444,0,0,1,.2-1.706c.07-.187.142-.379.209-.6-.175-.5-2.564-1.944-4.894-3.111-.331,5.479-3.425,7.462-4.614,8.223-.1.065-.212.136-.276.182a3.131,3.131,0,0,0,.258.592c.2.4.381.74.27,1.04a.507.507,0,0,1-.287.3c-.468.193-.76-.191-.917-.4a.85.85,0,0,0-.457-.383c-.1-.021-.2.073-.255.131a1.829,1.829,0,0,0-.22,1.692c.248.773,2.043.776,2.651.717a.366.366,0,0,1,.362.2,5.708,5.708,0,0,0,.8,1.211m-2.368-3.662h0Z" transform="translate(-195.47 -140.403)" fill="#510394"/>
        <path id="Path_23312" data-name="Path 23312" d="M352.164,813.93c-2.191.977-.422,2.61-.885,4.086s-1.476,3.2-.379,5.818,7.013,2.343,12.356,2.413,13.216.352,14.2-1.968-4.007-3.866-4.921-4.921-5.37-4.275-6.325-5.429-3.969-2.77-4.556-.492.789,3.6,2.342,3.711c0,0-2.82,2.535-4.363,2.315s-1.543-3.2-2.425-3.344-1.1.588-2.278-.074-1.891-2.506-2.765-2.117" transform="translate(-265.355 -615.126)" fill="#4cbcf3"/>
        <path id="Path_23313" data-name="Path 23313" d="M242.69,839.481c-1.086,0-1.674,1.734-3.5,1.821s.832,3.436,3.355,3.349,5.649-3.622,3.546-3.6c-1.864.022-2.3-1.573-3.405-1.573" transform="translate(-180.68 -635.719)" fill="#4cbcf3"/>
        <path id="Path_23314" data-name="Path 23314" d="M1006.975,760.582H983.316a1.555,1.555,0,0,1-1.545-1.379l-3.731-32.832h34.211L1008.52,759.2a1.555,1.555,0,0,1-1.545,1.379" transform="translate(-740.647 -550.064)" fill="#4cbcf3"/>
        <path id="Path_23315" data-name="Path 23315" d="M1012.251,721.909c0,1.074-7.658,1.944-17.105,1.944s-17.106-.87-17.106-1.944,7.658-1.944,17.106-1.944,17.105.87,17.105,1.944" transform="translate(-740.647 -545.213)" fill="#1c2b6b"/>
        <path id="Path_23316" data-name="Path 23316" d="M1021.148,466.84c-9.33.777-6.22,28.768-6.22,28.768,2.333,24.1,5.443,34.989,7.775,35.766s7-34.211,7-42.764c0,0,.777-22.548-8.553-21.771" transform="translate(-768.204 -353.512)" fill="#1e3286"/>
        <path id="Path_23317" data-name="Path 23317" d="M1043.274,534.823a.411.411,0,0,1-.048,0,.389.389,0,0,1-.339-.433c3.068-25.319-.739-57.125-.778-57.443a.389.389,0,0,1,.772-.094c.039.319,3.858,32.219.777,57.63a.388.388,0,0,1-.385.342" transform="translate(-789.163 -360.848)" fill="#fff"/>
        <path id="Path_23318" data-name="Path 23318" d="M926.515,408.305c-.777,3.888,3.888,4.665,4.665,10.108s-1.555,7-.777,10.108,5.443,3.887,6.22,11.663-2.333,7-1.555,11.663,5.443,4.665,6.22,8.553.778,9.33,2.333,14,6.22,11.663,8.553,11.663,8.553-13.218,7-17.105-3.888-4.665-3.888-7.775,3.11-10.885,2.333-16.328-7.775-7.775-8.553-11.663,1.555-14-3.888-18.661-17.883-10.108-18.661-6.22" transform="translate(-701.562 -308.195)" fill="#fa6e53"/>
        <path id="Path_23319" data-name="Path 23319" d="M1091.046,441.523c2.749,2.749-6.22,3.888-7,9.33s-.777,7.775-3.888,10.885-7.775,3.887-7,8.553,2.333,9.33,0,11.663-7.775,2.333-9.33,6.22-.777,8.553-3.887,12.44-7.775,11.663-11.663,10.108-1.555-19.438,0-22.548,3.11-5.443,3.11-7.775-.777-6.22.777-10.108,10.108-5.443,10.885-7.775,1.555-14.773,6.22-17.883,17.105-7.775,21.771-3.11" transform="translate(-792.228 -332.861)" fill="#40cd8a"/>
        <path id="Path_23320" data-name="Path 23320" d="M1058.677,522.824a.388.388,0,0,1-.333-.589c.031-.052,3.146-5.259,3.8-7.891.169-.678.374-1.7.61-2.894.859-4.316,2.158-10.839,4.157-12.837,2.9-2.9,7.538-11.787,10.787-23.158,4-14.01,17.235-18.109,17.368-18.149a.389.389,0,0,1,.223.745c-.129.039-12.96,4.027-16.843,17.617-3.285,11.5-8.013,20.522-10.984,23.494-1.832,1.832-3.154,8.472-3.944,12.44-.239,1.2-.445,2.234-.619,2.93-.686,2.744-3.761,7.885-3.892,8.1a.388.388,0,0,1-.333.189" transform="translate(-801.417 -346.295)" fill="#fff"/>
        <path id="Path_23321" data-name="Path 23321" d="M965.506,491.554a.389.389,0,0,1-.389-.388c0-.1-.067-10.2-3.028-13.166-3-3-4.718-12.2-5.556-29.8-.762-16-12.228-29.176-12.344-29.308a.389.389,0,1,1,.583-.514c.118.133,11.762,13.508,12.537,29.784.818,17.164,2.511,26.471,5.33,29.289,3.187,3.187,3.254,13.285,3.256,13.713a.389.389,0,0,1-.387.39Z" transform="translate(-714.939 -316.727)" fill="#fff"/>
        <g id="Group_4774" data-name="Group 4774" transform="translate(128.681 76.257)" opacity="0.59">
          <g id="Group_4773" data-name="Group 4773">
            <g id="Group_4772" data-name="Group 4772" clip-path="url(#clip-path-8)">
              <path id="Path_23322" data-name="Path 23322" d="M596.648,373.3H536.276a6.122,6.122,0,0,1-6.121-6.122V320.293a6.122,6.122,0,0,1,6.121-6.122h60.372a6.122,6.122,0,0,1,6.122,6.122V367.18a6.122,6.122,0,0,1-6.122,6.122" transform="translate(-530.155 -314.171)" fill="#f6eeff"/>
            </g>
          </g>
        </g>
        <g id="Group_4777" data-name="Group 4777" transform="translate(128.681 27.32)" opacity="0.59">
          <g id="Group_4776" data-name="Group 4776">
            <g id="Group_4775" data-name="Group 4775" clip-path="url(#clip-path-9)">
              <path id="Path_23323" data-name="Path 23323" d="M596.648,153.107H536.276a6.122,6.122,0,0,1-6.121-6.122V118.68a6.122,6.122,0,0,1,6.121-6.122h60.372a6.122,6.122,0,0,1,6.122,6.122v28.306a6.122,6.122,0,0,1-6.122,6.122" transform="translate(-530.155 -112.558)" fill="#f6eeff"/>
            </g>
          </g>
        </g>
        <g id="Group_4780" data-name="Group 4780" transform="translate(128.681 144.005)" opacity="0.59">
          <g id="Group_4779" data-name="Group 4779">
            <g id="Group_4778" data-name="Group 4778" clip-path="url(#clip-path-9)">
              <path id="Path_23324" data-name="Path 23324" d="M596.648,633.837H536.276a6.122,6.122,0,0,1-6.121-6.122V599.41a6.122,6.122,0,0,1,6.121-6.122h60.372a6.122,6.122,0,0,1,6.122,6.122v28.306a6.122,6.122,0,0,1-6.122,6.122" transform="translate(-530.155 -593.288)" fill="#f6eeff"/>
            </g>
          </g>
        </g>
        <g id="Group_4786" data-name="Group 4786" transform="translate(137.38 35.297)" opacity="0.59">
          <g id="Group_4785" data-name="Group 4785">
            <g id="Group_4784" data-name="Group 4784" clip-path="url(#clip-path-11)">
              <path id="Path_23326" data-name="Path 23326" d="M590.489,155.5l-2.135-6.911a.727.727,0,0,0-.369-.436l-5.3-2.651a.725.725,0,0,0-.373-.074c-.01,0-.02,0-.031,0a4.658,4.658,0,0,1-8.055,0c-.011,0-.021,0-.031,0a.725.725,0,0,0-.373.074l-5.3,2.651a.727.727,0,0,0-.369.436l-2.135,6.911a.728.728,0,0,0,.348.855l3.661,1.989v7.24a3.51,3.51,0,0,0,2.23,3.286,16.525,16.525,0,0,0,5.994,1.15,17,17,0,0,0,6.074-1.158,3.557,3.557,0,0,0,2.252-3.295v-7.279l3.558-1.934a.728.728,0,0,0,.348-.855" transform="translate(-565.993 -145.422)" fill="#bb88fc"/>
            </g>
          </g>
        </g>
        <path id="Path_23327" data-name="Path 23327" d="M718.939,158.348H698.162a1.343,1.343,0,0,1,0-2.687h20.776a1.343,1.343,0,1,1,0,2.687" transform="translate(-527.685 -117.878)" fill="#bb88fc"/>
        <path id="Path_23328" data-name="Path 23328" d="M709.458,187.7h-11.3a1.343,1.343,0,0,1,0-2.687h11.3a1.343,1.343,0,0,1,0,2.687" transform="translate(-527.685 -140.11)" fill="#bb88fc"/>
        <path id="Path_23330" data-name="Path 23330" d="M718.939,639.078H698.162a1.343,1.343,0,0,1,0-2.687h20.776a1.343,1.343,0,1,1,0,2.687" transform="translate(-527.685 -481.924)" fill="#bb88fc"/>
        <path id="Path_23331" data-name="Path 23331" d="M709.458,668.435h-11.3a1.343,1.343,0,0,1,0-2.687h11.3a1.343,1.343,0,0,1,0,2.687" transform="translate(-527.685 -504.155)" fill="#bb88fc"/>
        <path id="Path_23332" data-name="Path 23332" d="M619.867,480.909H567.336a1.343,1.343,0,1,1,0-2.687h52.531a1.343,1.343,0,1,1,0,2.687" transform="translate(-428.613 -362.146)" fill="#bb88fc"/>
        <path id="Path_23333" data-name="Path 23333" d="M597.555,510.266H567.336a1.343,1.343,0,1,1,0-2.687h30.219a1.343,1.343,0,0,1,0,2.687" transform="translate(-428.613 -384.378)" fill="#bb88fc"/>
        <path id="Path_23334" data-name="Path 23334" d="M570.776,435.207a2.392,2.392,0,1,1-2.392-2.392,2.392,2.392,0,0,1,2.392,2.392" transform="translate(-428.612 -327.761)" fill="#bb88fc"/>
        <path id="Path_23335" data-name="Path 23335" d="M621.305,435.207a2.392,2.392,0,1,1-2.392-2.392,2.392,2.392,0,0,1,2.392,2.392" transform="translate(-466.878 -327.761)" fill="#bb88fc"/>
        <g id="Group_4792" data-name="Group 4792" transform="translate(214.648 27.32)" opacity="0.59">
          <g id="Group_4791" data-name="Group 4791">
            <g id="Group_4790" data-name="Group 4790" clip-path="url(#clip-path-9)">
              <path id="Path_23336" data-name="Path 23336" d="M950.827,153.107H890.454a6.122,6.122,0,0,1-6.121-6.122V118.68a6.122,6.122,0,0,1,6.121-6.122h60.372a6.122,6.122,0,0,1,6.122,6.122v28.306a6.122,6.122,0,0,1-6.122,6.122" transform="translate(-884.333 -112.558)" fill="#fff"/>
            </g>
          </g>
        </g>
        <path id="Path_23338" data-name="Path 23338" d="M1073.117,158.348H1052.34a1.343,1.343,0,1,1,0-2.687h20.776a1.343,1.343,0,0,1,0,2.687" transform="translate(-795.895 -117.878)" fill="#bb88fc"/>
        <path id="Path_23339" data-name="Path 23339" d="M1063.636,187.7h-11.3a1.343,1.343,0,1,1,0-2.687h11.3a1.343,1.343,0,0,1,0,2.687" transform="translate(-795.895 -140.11)" fill="#bb88fc"/>
        <g id="couch" transform="translate(146.987 53.431)" opacity="0.59">
          <path id="Path_23424" data-name="Path 23424" d="M396.913,29.86h3.919a.019.019,0,0,1,.018.015l.269,1.295a.019.019,0,0,1-.019.023h-4.469a.019.019,0,0,1-.018-.023l.281-1.295A.019.019,0,0,1,396.913,29.86Z" transform="translate(-354.731)" fill="#bb88fc"/>
          <path id="Path_23425" data-name="Path 23425" d="M381.728,61.26h4.678a.019.019,0,0,1,.019.015l.749,3.62a.019.019,0,0,1-.019.023h-6.213a.019.019,0,0,1-.019-.023l.786-3.62A.019.019,0,0,1,381.728,61.26Z" transform="translate(-339.934 -29.612)" fill="#bb88fc"/>
          <path id="Path_23426" data-name="Path 23426" d="M384.544,152.618q.693.006,1.386,0a2.523,2.523,0,0,1,.793.077.982.982,0,0,1,.57.64.022.022,0,0,1,0,.021.024.024,0,0,1-.019.01h-6.25q-.037,0-.026-.035a.972.972,0,0,1,.544-.627,1.946,1.946,0,0,1,.686-.085l1.516,0a.025.025,0,0,0,.028-.028V133.541a.021.021,0,0,1,.02-.021h.7a.028.028,0,0,1,.032.032v19.04A.024.024,0,0,0,384.544,152.618Z" transform="translate(-340.001 -97.758)" fill="#bb88fc"/>
          <path id="Path_23427" data-name="Path 23427" d="M85.323,209.121a2.422,2.422,0,0,1,2.421,1.905,6.162,6.162,0,0,1,.066,1.134q0,1.217,0,2.436a1.954,1.954,0,0,1-.056.473q-.211.86-.433,1.717a.032.032,0,0,1-.034.026H74.834a.02.02,0,0,1-.019-.015q-.213-.86-.428-1.725a2.014,2.014,0,0,1-.059-.481q-.005-1.615,0-3.229a1.8,1.8,0,0,1,.11-.553,2.423,2.423,0,0,1,1.793-1.624,6.374,6.374,0,0,1,1.134-.065Q83.629,209.124,85.323,209.121Zm-9.006,1.774a.214.214,0,0,0-.214-.214h-.386a.214.214,0,0,0-.214.214v.026a.214.214,0,0,0,.214.214H76.1a.214.214,0,0,0,.214-.214Zm5.232,0a.216.216,0,0,0-.216-.216h-4.05a.216.216,0,0,0-.216.216v.022a.216.216,0,0,0,.216.216h4.05a.216.216,0,0,0,.216-.216Z" transform="translate(-50.793 -169.054)" fill="#bb88fc"/>
          <path id="Path_23428" data-name="Path 23428" d="M24.244,310.353a1.238,1.238,0,0,0,1.02.511q4.94-.007,9.881-.009a1.229,1.229,0,0,0,1.185-.545,2.513,2.513,0,0,0,.232-.672l.762-3.166a1.685,1.685,0,0,1,.2-.55.678.678,0,0,1,.577-.268q.585,0,1.169,0c.645,0,.919.414.771,1.025q-.5,2.075-1,4.149a4.75,4.75,0,0,1-.309.949,2.7,2.7,0,0,1-1.9,1.491,4.236,4.236,0,0,1-.91.075H24.311a2.808,2.808,0,0,1-2.518-1.6,6.377,6.377,0,0,1-.33-1.087q-.477-1.989-.958-3.978a.739.739,0,0,1,.789-1.021q.869-.006,1.139,0c.485.007.664.29.774.743q.406,1.682.814,3.365A1.824,1.824,0,0,0,24.244,310.353Z" transform="translate(0 -260.09)" fill="#bb88fc"/>
          <path id="Path_23429" data-name="Path 23429" d="M86.174,354.317a.731.731,0,0,1-.685-.4,3.279,3.279,0,0,1-.126-.437q-.152-.61-.294-1.23-.007-.03.023-.03H97.305q.03,0,.023.03-.154.678-.323,1.346a1.2,1.2,0,0,1-.213.491.709.709,0,0,1-.555.231Z" transform="translate(-60.924 -304.006)" fill="#bb88fc"/>
          <path id="Path_23430" data-name="Path 23430" d="M89.052,450.679h-.974a.018.018,0,0,1-.018-.023l.5-1.863a.018.018,0,0,1,.017-.014h1.453a.018.018,0,0,1,.016.027l-.983,1.863A.018.018,0,0,1,89.052,450.679Z" transform="translate(-63.746 -395.069)" fill="#bb88fc"/>
          <path id="Path_23431" data-name="Path 23431" d="M262.444,448.78H263.9a.018.018,0,0,1,.017.013l.5,1.864a.018.018,0,0,1-.017.022h-.974a.018.018,0,0,1-.016-.01l-.984-1.864a.018.018,0,0,1,.015-.026Z" transform="translate(-228.185 -395.069)" fill="#bb88fc"/>
        </g>
        <g id="loan" transform="translate(122.812 135.261)" opacity="0.59">
          <path id="Path_23432" data-name="Path 23432" d="M323.361,18.9l-3.424-2.384a.064.064,0,0,1-.026-.039.484.484,0,0,1,.2-.588.84.84,0,0,1,.408-.074q1.149,0,2.293,0c.391,0,.58.125.58.522q0,1.282,0,2.546Q323.39,18.916,323.361,18.9Z" transform="translate(-290.406 0)" fill="#bb88fc"/>
          <path id="Path_23433" data-name="Path 23433" d="M117.374,19.233q-3.57,2.477-7.132,4.966c-.3.21-.526.059-.715-.213l-.967-1.39c-.233-.335-.008-.547.274-.744l8.244-5.741a.456.456,0,0,1,.586-.039l8.287,5.769c.328.228.516.422.251.8q-.471.679-.946,1.356a.473.473,0,0,1-.782.14q-3.52-2.463-7.051-4.909A.042.042,0,0,0,117.374,19.233Z" transform="translate(-90.534 -0.165)" fill="#bb88fc"/>
          <path id="Path_23434" data-name="Path 23434" d="M163.92,98.287a.453.453,0,0,0-.427.479q.006,2.365,0,4.741a.027.027,0,0,1-.026.027l-3.448,0a.021.021,0,0,1-.023-.023V99a.052.052,0,0,1,.023-.045l6.075-4.23a.038.038,0,0,1,.044,0l6.073,4.228a.052.052,0,0,1,.023.045v4.4a.066.066,0,0,1-.021.049l-.713.714a.032.032,0,0,1-.047,0,3.874,3.874,0,0,0-2.7-.631.019.019,0,0,1-.019-.019v-4.65c0-.384-.12-.579-.514-.579Z" transform="translate(-139.255 -74.598)" fill="#bb88fc"/>
          <path id="Path_23435" data-name="Path 23435" d="M114.4,221.917A2.173,2.173,0,0,1,113,224.9a3.531,3.531,0,0,1-.85.078q-2.184,0-4.369,0a.906.906,0,0,0-.418.068.462.462,0,0,0,.017.752.724.724,0,0,0,.326.054q2.081,0,4.162,0a6.6,6.6,0,0,0,1.088-.06,3.051,3.051,0,0,0,1.955-4.767.031.031,0,0,1,0-.044q1.366-1.366,2.73-2.726a2.073,2.073,0,0,1,3.207.3,2.154,2.154,0,0,1,.1,2.01,5.092,5.092,0,0,1-.456.747q-1.784,2.564-3.552,5.138a4.748,4.748,0,0,1-1.877,1.635,4.61,4.61,0,0,1-2.127.382q-3.54,0-7.079,0-.071,0-.275.022a.06.06,0,0,1-.052-.019L99.5,222.449a.017.017,0,0,1,0-.027,5,5,0,0,1,3.71-1.812q4.33.007,8.659,0a4.933,4.933,0,0,1,1.061.078A2.089,2.089,0,0,1,114.4,221.917Z" transform="translate(-82.051 -190.802)" fill="#bb88fc"/>
          <rect id="Rectangle_2283" data-name="Rectangle 2283" width="10.765" height="4.583" transform="translate(15.937 31.375) rotate(45)" fill="#bb88fc"/>
        </g>
        <g id="handbag" transform="translate(176.928 12.147)" opacity="0.59">
          <path id="Path_23436" data-name="Path 23436" d="M191.483,24.368a6.1,6.1,0,0,0-.617,3.358,1.816,1.816,0,0,0,.137.528.709.709,0,0,1,.07.315.653.653,0,0,1-.478.543.052.052,0,0,1-.047-.013l-.181-.167a.077.077,0,0,1-.025-.054,4.714,4.714,0,0,0-.131-.943.107.107,0,0,1,0-.056,1.766,1.766,0,0,0,.1-.569,5.952,5.952,0,0,1,3.122-5.788,4.8,4.8,0,0,1,5.341.8,6.029,6.029,0,0,1,1.927,4.154q.018.314.014,1.384c0,.2.153.484.159.683a.556.556,0,1,1-1.108-.065.8.8,0,0,1,.122-.292,1.948,1.948,0,0,0,.273-.9,5.282,5.282,0,0,0-2.3-4.772A4.431,4.431,0,0,0,191.483,24.368Z" transform="translate(-136.232)" fill="#bb88fc"/>
          <path id="Path_23437" data-name="Path 23437" d="M131.391,118.276c.2-.092.407-.205.571-.061a3.289,3.289,0,0,1,1,2.307.046.046,0,0,1-.024.045l-1.065.63a.046.046,0,0,1-.051,0,3.71,3.71,0,0,1-1.773-2.1c-.037-.156.1-.262.241-.325Z" transform="translate(-79.408 -91.705)" fill="#bb88fc"/>
          <path id="Path_23438" data-name="Path 23438" d="M165.229,172.9l-.955-.993a.113.113,0,0,1,.023-.175l1.121-.668a.113.113,0,0,1,.142.021l.937,1.043a.113.113,0,0,1-.029.174l-1.1.619A.113.113,0,0,1,165.229,172.9Z" transform="translate(-111.71 -141.668)" fill="#bb88fc"/>
          <path id="Path_23439" data-name="Path 23439" d="M118.544,173.465q.867-.133,1.727-.3c.44-.086.818-.091,1.052.3a1.919,1.919,0,0,1,.162.529,82.07,82.07,0,0,1,1.273,8.567,34.089,34.089,0,0,1,.135,4.348,4.446,4.446,0,0,1-.268,1.738,2.621,2.621,0,0,1-1.836,1.5,5.972,5.972,0,0,1-1.107.069H105.715a2.645,2.645,0,0,1-2.414-1.546,4.74,4.74,0,0,1-.289-1.07,18.6,18.6,0,0,1-.284-3.559.46.46,0,0,1,.06-.222,61.435,61.435,0,0,1,3.176-5.419q.021-.029.018.007-.194,2.5-.4,5a.505.505,0,0,0,.168.425q.952.9,1.907,1.806a.55.55,0,0,0,.881-.142,1.272,1.272,0,0,0,.061-.372q.188-2.893.38-5.784,0-.031.031-.02a1.265,1.265,0,0,0,1.014-.018q.511-.226,1.016-.464a1.227,1.227,0,0,0,.842-1.1,2.111,2.111,0,0,0-.173-.776,5.59,5.59,0,0,0-2.411-3.048,0,0,0,0,1,0,0,0,0,0,0,1,.005,0,37.749,37.749,0,0,0,7.847-.241.035.035,0,0,0,.034-.036l.078-.976q0-.035.036-.023a1.108,1.108,0,0,0,1.013-.106q.034-.022.042.018l.161.9A.025.025,0,0,0,118.544,173.465Zm2.439,14.262a.483.483,0,0,0-.484-.482l-2.908.005a.483.483,0,0,0-.482.484v.6a.483.483,0,0,0,.484.482l2.908-.005a.483.483,0,0,0,.482-.484Z" transform="translate(-53.613 -143.049)" fill="#bb88fc"/>
          <path id="Path_23440" data-name="Path 23440" d="M115.073,188.016q-.021.029-.016-.006.118-1.031.272-2.075c.085-.573.111-1,.684-1.136a2.9,2.9,0,0,1,1.111.176q.029.008.012.032Z" transform="translate(-65.258 -154.636)" fill="#bb88fc"/>
          <path id="Path_23441" data-name="Path 23441" d="M46.748,204.865q.845-1.662,1.823-3.25,1.764-2.861,3.712-5.606a.014.014,0,0,1,.024,0q.434.458.879.909a.568.568,0,0,0,.356.133.034.034,0,0,1,.031.03L53.7,198.1a.043.043,0,0,1-.013.037,17.926,17.926,0,0,0-3.177,4.345q-1.869,3.36-3.769,6.713a.048.048,0,0,1-.046.024.077.077,0,0,1-.062-.036,3.2,3.2,0,0,1-.459-3.087Q46.323,205.7,46.748,204.865Z" transform="translate(0 -165.233)" fill="#bb88fc"/>
          <path id="Path_23442" data-name="Path 23442" d="M193.762,203.481c1.361.306,2.259,1.9,2.7,3.126a.692.692,0,0,1-.072.7,1.486,1.486,0,0,1-.52.33l-.665.3a1.386,1.386,0,0,1-.54.16.692.692,0,0,1-.539-.29,6.987,6.987,0,0,1-1.186-3.857.049.049,0,0,1,.026-.048l.74-.417A.075.075,0,0,1,193.762,203.481Z" transform="translate(-138.811 -172.294)" fill="#bb88fc"/>
          <path id="Path_23443" data-name="Path 23443" d="M165.435,245.788a5.486,5.486,0,0,0,.973,2.216.087.087,0,0,1,.02.062l-.414,6.294a.016.016,0,0,1-.026.011l-1.853-1.729a.059.059,0,0,1-.019-.048l.476-5.911a.035.035,0,0,1,.008-.019l.786-.887Q165.424,245.735,165.435,245.788Z" transform="translate(-111.591 -212.223)" fill="#bb88fc"/>
          <rect id="Rectangle_2284" data-name="Rectangle 2284" width="2.764" height="0.456" transform="translate(64.051 44.755)" fill="#bb88fc"/>
        </g>
      </g>
    </g>
  </g>
</svg>
