<svg id="onbo_a" xmlns="http://www.w3.org/2000/svg" xmlns:xlink="http://www.w3.org/1999/xlink" width="339" height="221.201" viewBox="0 0 339 221.201">
  <defs>
    <clipPath id="clip-path">
      <rect id="Rectangle_2258" data-name="Rectangle 2258" width="339" height="221.201" fill="none"/>
    </clipPath>
    <clipPath id="clip-path-2">
      <rect id="Rectangle_2253" data-name="Rectangle 2253" width="338.999" height="221.201" fill="none"/>
    </clipPath>
    <clipPath id="clip-path-3">
      <rect id="Rectangle_2252" data-name="Rectangle 2252" width="335.412" height="175.939" fill="#fff"/>
    </clipPath>
    <clipPath id="clip-path-4">
      <path id="Path_23237" data-name="Path 23237" d="M503.8,12.48A14.222,14.222,0,0,0,489.577,26.7V203.716A14.222,14.222,0,0,0,503.8,217.939h73.487a14.219,14.219,0,0,0,14.222-14.223V26.7A14.223,14.223,0,0,0,577.287,12.48Z" transform="translate(-489.577 -12.48)" fill="none"/>
    </clipPath>
    <linearGradient id="linear-gradient" x1="-0.276" y1="1.026" x2="-0.275" y2="1.026" gradientUnits="objectBoundingBox">
      <stop offset="0" stop-color="#510394"/>
      <stop offset="0.141" stop-color="#4a0387"/>
      <stop offset="0.397" stop-color="#380368"/>
      <stop offset="0.736" stop-color="#1b0334"/>
      <stop offset="1" stop-color="#030408"/>
    </linearGradient>
    <clipPath id="clip-path-6">
      <rect id="Rectangle_2256" data-name="Rectangle 2256" width="310.666" height="21.796" fill="none"/>
    </clipPath>
    <clipPath id="clip-path-7">
      <path id="Path_23243" data-name="Path 23243" d="M15.21,852.9c-5.772.675-15.15,1.913-15.21,3.7-.054,1.608,7.5,2.926,10.14,3.387,30.225,5.275,36.79-3.569,76.781.249,20.975,2,17.811,5.324,36.412,6.159,25.451,1.143,64.243-5.8,96.06-5.484,13.575.133,13.789,1.257,32.264,2.156,7.257.353,58.092,2.772,59-.924.164-.668-1.062-2.53-23.045-7.083,0,0-104.953-21.737-272.4-2.156" transform="translate(0 -844.72)" fill="none"/>
    </clipPath>
    <linearGradient id="linear-gradient-2" y1="0.97" x2="0.001" y2="0.97" gradientUnits="objectBoundingBox">
      <stop offset="0" stop-color="#d3d6db"/>
      <stop offset="0.999" stop-color="#7a869b"/>
      <stop offset="1" stop-color="#7a869b"/>
    </linearGradient>
  </defs>
  <g id="Group_4758" data-name="Group 4758" clip-path="url(#clip-path)">
    <g id="Group_4748" data-name="Group 4748">
      <g id="Group_4747" data-name="Group 4747" clip-path="url(#clip-path-2)">
        <g id="Group_4746" data-name="Group 4746" transform="translate(3.588)" opacity="0.59">
          <g id="Group_4745" data-name="Group 4745">
            <g id="Group_4744" data-name="Group 4744" clip-path="url(#clip-path-3)">
              <path id="Path_23236" data-name="Path 23236" d="M17.362,105.022C1.435,17.8,77.588-9.251,111.783,2.659c14.728,5.13,11.486,21.79,27.513,36.367,45.774,41.63,133.532-38.491,182.5-2.133,24.164,17.942,36.148,62.221,24.048,89.256C309.524,207.3,31.3,181.361,17.362,105.022" transform="translate(-15.2 0)" fill="#f6f5fa"/>
            </g>
          </g>
        </g>
      </g>
    </g>
    <g id="Group_4750" data-name="Group 4750" transform="translate(115.57 2.946)">
      <g id="Group_4749" data-name="Group 4749" clip-path="url(#clip-path-4)">
        <rect id="Rectangle_2254" data-name="Rectangle 2254" width="214.718" height="219.742" transform="translate(-102.487 95.684) rotate(-43.034)" fill="url(#linear-gradient)"/>
      </g>
    </g>
    <g id="Group_4757" data-name="Group 4757">
      <g id="Group_4756" data-name="Group 4756" clip-path="url(#clip-path-2)">
        <path id="Path_23238" data-name="Path 23238" d="M593.757,36.013h-69.8a9.744,9.744,0,0,0-9.745,9.745V219.107a9.744,9.744,0,0,0,9.745,9.745h69.8a9.744,9.744,0,0,0,9.745-9.745V45.758a9.744,9.744,0,0,0-9.745-9.745" transform="translate(-392.824 -27.512)" fill="#fff"/>
        <path id="Path_23239" data-name="Path 23239" d="M548.46,59.631h-8.854a1.45,1.45,0,0,1,0-2.9h8.854a1.45,1.45,0,0,1,0,2.9" transform="translate(-411.118 -43.339)" fill="#510394"/>
        <path id="Path_23240" data-name="Path 23240" d="M823.339,59.631h-.392a1.45,1.45,0,1,1,0-2.9h.392a1.45,1.45,0,0,1,0,2.9" transform="translate(-627.574 -43.339)" fill="#510394"/>
        <path id="Path_23241" data-name="Path 23241" d="M847.906,59.631h-3.878a1.45,1.45,0,1,1,0-2.9h3.878a1.45,1.45,0,0,1,0,2.9" transform="translate(-643.678 -43.339)" fill="#510394"/>
        <path id="Path_23242" data-name="Path 23242" d="M699.98,54.917a2.459,2.459,0,1,1-2.459-2.459,2.459,2.459,0,0,1,2.459,2.459" transform="translate(-530.985 -40.075)" fill="#510394"/>
        <g id="Group_4755" data-name="Group 4755" transform="translate(0 199.405)" opacity="0.3">
          <g id="Group_4754" data-name="Group 4754">
            <g id="Group_4753" data-name="Group 4753" clip-path="url(#clip-path-6)">
              <g id="Group_4752" data-name="Group 4752" transform="translate(0)">
                <g id="Group_4751" data-name="Group 4751" clip-path="url(#clip-path-7)">
                  <rect id="Rectangle_2255" data-name="Rectangle 2255" width="310.872" height="34.216" transform="translate(-0.054 -11.404)" fill="url(#linear-gradient-2)"/>
                </g>
              </g>
            </g>
          </g>
        </g>
        <path id="Path_23244" data-name="Path 23244" d="M976.814,772.123H953.8a1.512,1.512,0,0,1-1.5-1.341l-3.629-31.931h33.272l-3.628,31.931a1.513,1.513,0,0,1-1.5,1.341" transform="translate(-724.728 -564.437)" fill="#4cbcf3"/>
        <path id="Path_23245" data-name="Path 23245" d="M981.944,734.335c0,1.044-7.448,1.89-16.636,1.89s-16.636-.846-16.636-1.89,7.448-1.89,16.636-1.89,16.636.846,16.636,1.89" transform="translate(-724.728 -559.543)" fill="#1c2b6b"/>
        <path id="Path_23246" data-name="Path 23246" d="M991.6,479.319c-9.074.756-6.05,27.979-6.05,27.979,2.268,23.442,5.293,34.028,7.562,34.785s6.806-33.272,6.806-41.59c0,0,.756-21.929-8.318-21.173" transform="translate(-752.527 -366.156)" fill="#1e3286"/>
        <path id="Path_23247" data-name="Path 23247" d="M1013.874,545.7a.376.376,0,0,1-.376-.423c2.984-24.624-.719-55.557-.756-55.866a.378.378,0,0,1,.75-.092c.038.31,3.752,31.335.756,56.049a.377.377,0,0,1-.374.333" transform="translate(-773.671 -373.557)" fill="#fff"/>
        <path id="Path_23248" data-name="Path 23248" d="M897.145,420.749c-.756,3.781,3.781,4.537,4.537,9.83s-1.512,6.806-.756,9.831,5.293,3.781,6.049,11.343-2.269,6.806-1.512,11.343,5.293,4.537,6.049,8.318.756,9.074,2.269,13.611,6.049,11.343,8.318,11.343,8.318-12.855,6.806-16.636-3.781-4.537-3.781-7.562,3.025-10.587,2.268-15.88-7.562-7.562-8.318-11.343,1.512-13.611-3.781-18.148-17.392-9.831-18.148-6.049" transform="translate(-685.299 -320.441)" fill="#fa6e53"/>
        <path id="Path_23249" data-name="Path 23249" d="M1060.447,453.949c2.674,2.674-6.05,3.781-6.806,9.074s-.756,7.562-3.781,10.587-7.562,3.781-6.806,8.318,2.268,9.074,0,11.343-7.562,2.269-9.074,6.05-.756,8.318-3.781,12.1-7.562,11.343-11.343,9.831-1.512-18.9,0-21.929,3.025-5.293,3.025-7.562-.756-6.049.756-9.831,9.831-5.293,10.587-7.562,1.512-14.367,6.05-17.392,16.636-7.562,21.173-3.025" transform="translate(-776.764 -345.323)" fill="#40cd8a"/>
        <path id="Path_23250" data-name="Path 23250" d="M1029.3,533.5a.378.378,0,0,1-.324-.573c.03-.051,3.059-5.114,3.7-7.674.165-.659.364-1.658.594-2.814.836-4.2,2.1-10.541,4.043-12.485,2.822-2.822,7.331-11.463,10.49-22.522,3.892-13.625,16.762-17.612,16.891-17.651a.378.378,0,0,1,.217.724c-.126.038-12.6,3.917-16.381,17.134-3.195,11.182-7.793,19.959-10.683,22.849-1.782,1.782-3.068,8.24-3.835,12.1-.233,1.166-.433,2.173-.6,2.85-.667,2.669-3.658,7.668-3.785,7.88a.378.378,0,0,1-.324.183" transform="translate(-786.033 -358.876)" fill="#fff"/>
        <path id="Path_23251" data-name="Path 23251" d="M935.551,502.021a.378.378,0,0,1-.378-.377c0-.1-.065-9.924-2.945-12.8-2.922-2.922-4.588-11.861-5.4-28.984-.742-15.559-11.893-28.375-12.005-28.5a.378.378,0,1,1,.567-.5c.115.129,11.44,13.137,12.193,28.967.8,16.693,2.442,25.744,5.183,28.485,3.1,3.1,3.165,12.92,3.167,13.337a.378.378,0,0,1-.377.379Z" transform="translate(-698.794 -329.047)" fill="#fff"/>
        <path id="Path_23252" data-name="Path 23252" d="M511.506,211.923l-6.189-1.3a1.224,1.224,0,0,1-.947-1.449l3.125-14.909a1.224,1.224,0,0,1,1.449-.947l6.189,1.3a1.224,1.224,0,0,1,.947,1.449l-3.125,14.909a1.223,1.223,0,0,1-1.449.947" transform="translate(-385.288 -147.665)" fill="#fff"/>
        <path id="Path_23253" data-name="Path 23253" d="M510.611,211.159a1.588,1.588,0,0,1-.324-.034l-6.19-1.3a1.578,1.578,0,0,1-1.221-1.868L506,193.051a1.578,1.578,0,0,1,1.868-1.221l6.189,1.3A1.578,1.578,0,0,1,515.28,195L512.155,209.9a1.577,1.577,0,0,1-1.544,1.254m-.179-.727a.869.869,0,0,0,1.03-.673l3.125-14.909a.869.869,0,0,0-.673-1.03l-6.189-1.3a.87.87,0,0,0-1.03.673L503.57,208.1a.869.869,0,0,0,.673,1.03Z" transform="translate(-384.141 -146.521)" fill="#510394"/>
        <path id="Path_23254" data-name="Path 23254" d="M497.523,246.984s2.376-5.1,2.518-7.526,2.049-7.73,2.049-7.73V236.8a8.281,8.281,0,0,1,1.081,3.684l3.481.73s-3.622,6.941-4.248,9.45Z" transform="translate(-380.077 -177.027)" fill="#fff"/>
        <path id="Path_23255" data-name="Path 23255" d="M501.259,249.87a.353.353,0,0,1-.213-.071l-4.882-3.676a.355.355,0,0,1-.108-.432c.024-.05,2.349-5.068,2.485-7.4.143-2.447,1.99-7.61,2.069-7.829a.354.354,0,0,1,.687.12v4.978a8.937,8.937,0,0,1,1.09,3.488l3.191.669a.354.354,0,0,1,.241.51c-.036.069-3.61,6.932-4.218,9.372a.354.354,0,0,1-.344.268m-4.441-4.142,4.243,3.2a78.646,78.646,0,0,1,3.917-8.607l-3.026-.634a.354.354,0,0,1-.28-.376,7.976,7.976,0,0,0-1.037-3.481.354.354,0,0,1-.045-.174v-2.9a28.8,28.8,0,0,0-1.341,5.583c-.127,2.173-1.938,6.305-2.431,7.393" transform="translate(-378.931 -175.882)" fill="#510394"/>
        <path id="Path_23256" data-name="Path 23256" d="M364.615,858.283c-.218.6,1.964,10.6,4.9,10.529s4.244-8.811,3.813-10.747c-.347-1.56-8.492-.387-8.709.218" transform="translate(-278.533 -654.917)" fill="#4cbcf3"/>
        <path id="Path_23257" data-name="Path 23257" d="M161.27,839.458s-2.645,4.751-3.374,6.532,6.964-1.08,8.206-1.215,5.534-5.857,5.642-6.532.783-.54.783-.3l-.232,6.73a.23.23,0,0,0,.455.043c.355-1.889,1.071-6.53,1.4-6.972.567-.77,1.53-5.347-.549-7.774s-12.326,9.484-12.326,9.484" transform="translate(-120.586 -633.8)" fill="#4cbcf3"/>
        <path id="Path_23258" data-name="Path 23258" d="M351.935,671.871a71.714,71.714,0,0,1,1.275,8.459c0,2.2-.927,12.747,0,15.992s3.013,9.618,2.781,12.4-1.043,6.026-.7,6.721,4.519,2.781,4.519,2.781,3.476-1.622,3.592-3.013-1.854-5.794-1.854-7.416,0-10.1.232-14.784-1.275-10.362-1.275-14.071.464-8.923.464-8.923Z" transform="translate(-268.857 -511.852)" fill="#fff"/>
        <path id="Path_23259" data-name="Path 23259" d="M358.669,717.43a.352.352,0,0,1-.158-.037c-1-.5-4.306-2.2-4.678-2.939-.248-.5-.1-1.564.217-3.567.164-1.051.35-2.242.442-3.341.19-2.282-1.287-7.259-2.264-10.553-.187-.632-.36-1.214-.5-1.72-.714-2.5-.369-8.932-.14-13.188.071-1.322.127-2.366.127-2.9a71.855,71.855,0,0,0-1.268-8.388.354.354,0,0,1,.276-.418l9.039-1.854a.354.354,0,0,1,.424.378c0,.052-.462,5.242-.462,8.891a43.5,43.5,0,0,0,.583,5.65,45.639,45.639,0,0,1,.692,8.438c-.2,4.068-.231,11-.231,14.766a16.444,16.444,0,0,0,.926,3.6,13.661,13.661,0,0,1,.927,3.843c-.129,1.55-3.421,3.129-3.8,3.3a.354.354,0,0,1-.15.033M351.205,671a64.784,64.784,0,0,1,1.212,8.183c0,.553-.057,1.606-.128,2.938-.212,3.953-.567,10.569.114,12.956.144.5.316,1.083.5,1.712,1.052,3.544,2.492,8.4,2.291,10.814-.094,1.125-.282,2.329-.448,3.392a11.481,11.481,0,0,0-.284,3.141,20.048,20.048,0,0,0,4.207,2.546c1.276-.62,3.166-1.819,3.235-2.648a14.187,14.187,0,0,0-.894-3.566,16.154,16.154,0,0,1-.961-3.821c0-3.775.03-10.718.232-14.8a45.109,45.109,0,0,0-.685-8.3,43.949,43.949,0,0,1-.59-5.751c0-3.032.312-7.108.425-8.481Z" transform="translate(-267.711 -510.706)" fill="#510394"/>
        <path id="Path_23260" data-name="Path 23260" d="M190.048,661.621s-6.142,12.747-7.416,19.12-3.205,15.839-5.059,19.316-5.794,10.893-5.794,10.893,6.6-1.39,8.807-4.056,4.063-4.056,3.654-6.142.981-5.794,3.531-10.313,8.923-23.408,9.27-27.7-6.992-1.122-6.992-1.122" transform="translate(-131.228 -504.579)" fill="#fff"/>
        <path id="Path_23261" data-name="Path 23261" d="M170.631,710.177a.354.354,0,0,1-.313-.52s3.94-7.417,5.794-10.893c1.889-3.542,3.929-13.74,5.025-19.218,1.269-6.344,7.193-18.683,7.444-19.2a.354.354,0,0,1,.179-.171c.194-.083,4.763-2.029,6.666-.664a2.222,2.222,0,0,1,.819,2.14c-.341,4.2-6.7,23.2-9.315,27.841-2.654,4.7-3.861,8.187-3.492,10.071.355,1.809-.792,3.1-2.379,4.879-.432.485-.879.987-1.349,1.557-2.255,2.729-8.732,4.119-9.007,4.177a.353.353,0,0,1-.073.008m18.531-49.409c-.627,1.314-6.145,12.987-7.331,18.916-1.527,7.634-3.306,16.059-5.094,19.413-1.51,2.832-4.4,8.278-5.426,10.2,1.774-.45,6.187-1.738,7.853-3.755.479-.58.95-1.109,1.366-1.576,1.506-1.691,2.5-2.808,2.213-4.272-.408-2.081.793-5.633,3.57-10.555,2.595-4.6,8.889-23.4,9.226-27.55a1.548,1.548,0,0,0-.526-1.507c-1.269-.911-4.542.143-5.852.687" transform="translate(-130.081 -503.452)" fill="#510394"/>
        <path id="Path_23262" data-name="Path 23262" d="M233.107,288.177c-.418,7.183-2.09,33.8-4.738,41.043s-5.434,11.426-2.647,13.237,14.491.139,18.811,1.393,12.262,4.041,22.434,0,11.983-2.392,9.057-15.757a357.67,357.67,0,0,1-7.828-49.185c-2.052-22.343-1.14-35.339-8.892-37.619s-13.68-1.629-16.416,1.922-9.781,44.967-9.781,44.967" transform="translate(-171.553 -183.313)" fill="#3a3e3f"/>
        <path id="Path_23263" data-name="Path 23263" d="M344.1,226.182c1.783.794,7.174.833,8.135,1.986s6.021,1.409,7.623,3.267,11.411,20.148,11.472,21.01,6.591-11.149,7.823-11.765,6.837,3.08,7.084,5.113-6.653,20.081-12.443,19.9-11.642-10.349-11.642-9.671,4.735,30.158,5.1,33.162.147,6.155-5.642,6.155-6.595-4.1-7.547-10.478-6.654-51.457-8.378-54.122a8.16,8.16,0,0,1-1.587-4.553" transform="translate(-262.87 -172.789)" fill="#00b2ca"/>
        <path id="Path_23264" data-name="Path 23264" d="M247.414,229.711c-3.345,0-4.547,1.982-7.22,2.46-2.931.525-6.845.452-9.4,4.847s-1.276,39.45-2.41,43.332-4.4,8.986-2.552,10.829,5.137,10.208,18.519,8.082,9.412-13.044,9.412-18.29-.782-36.309-2.419-40.806-3.933-10.454-3.933-10.454" transform="translate(-172.101 -175.485)" fill="#00b2ca"/>
        <path id="Path_23265" data-name="Path 23265" d="M282.636,142.193c-7.6-.2-11.351.942-13.948-4.733s1.443-5.1,2.5-11.254,4.328-8.272,9.619-8.657,10.292,1.443,11.447,3.463,3.99,13.209,3.463,16.545c-.577,3.655-6.541,4.807-13.082,4.637" transform="translate(-204.608 -89.761)" fill="#510394"/>
        <path id="Path_23266" data-name="Path 23266" d="M318.951,184.892s-.644,8.332-1.473,9.713.23,6.675,4.557,6.537a3.668,3.668,0,0,0,3.315-5.708c-1.1-1.519-1.2-6.537-1.059-7.964s-5.34-2.578-5.34-2.578" transform="translate(-242.335 -141.246)" fill="#fff"/>
        <path id="Path_23267" data-name="Path 23267" d="M320.731,200.352a4.637,4.637,0,0,1-4.117-2.422c-1-1.7-1.109-3.779-.584-4.654.644-1.074,1.246-7.264,1.423-9.558a.354.354,0,0,1,.426-.319c1.358.285,5.776,1.342,5.619,2.958-.14,1.442-.015,6.336.992,7.721a4.274,4.274,0,0,1,.252,4.118,4.033,4.033,0,0,1-3.842,2.152l-.172,0m-2.6-16.174c-.149,1.816-.722,8.182-1.49,9.463a4.744,4.744,0,0,0,.587,3.931,3.935,3.935,0,0,0,3.655,2.07,3.425,3.425,0,0,0,3.228-1.756,3.572,3.572,0,0,0-.189-3.39c-1.184-1.628-1.262-6.789-1.125-8.206.05-.513-1.8-1.461-4.667-2.111" transform="translate(-241.192 -140.1)" fill="#510394"/>
        <path id="Path_23268" data-name="Path 23268" d="M318.241,134.809c3.478.053,3.058,5.733,3.153,8.218a6.719,6.719,0,0,0,1.338,3.918l-2.246.478s-.06,4.43-1,5.064-7.777-1.55-9.265-3.59a9.386,9.386,0,0,1-1.414-4.254s-3.7-1.988-2.482-3.611c1.777-2.369,1.89.113,3.606.178,4.012.152,2.007-6.5,8.314-6.4" transform="translate(-233.823 -102.985)" fill="#fff"/>
        <path id="Path_23269" data-name="Path 23269" d="M317.742,151.8c-2.234,0-7.639-2.035-8.954-3.837a9.434,9.434,0,0,1-1.465-4.245c-.6-.346-2.422-1.487-2.707-2.781a1.5,1.5,0,0,1,.278-1.26c.565-.754,1.023-1.111,1.486-1.159a1.6,1.6,0,0,1,1.2.567,1.937,1.937,0,0,0,1.213.628c1.552.058,2.061-1.043,2.709-2.439.831-1.791,1.867-4.013,5.6-3.964,3.4.052,3.45,4.733,3.482,7.53,0,.38.008.728.02,1.029a6.452,6.452,0,0,0,1.252,3.7.355.355,0,0,1-.195.577l-1.972.42c-.013.408-.049,1.2-.143,2.046-.255,2.273-.7,2.815-1.009,3.024a1.488,1.488,0,0,1-.795.163M306.482,139.22h-.03c-.165.017-.471.183-.992.879a.786.786,0,0,0-.153.682c.216.977,1.892,2.066,2.52,2.4a.354.354,0,0,1,.186.288,9.087,9.087,0,0,0,1.347,4.069c1.492,2.043,8.086,3.959,8.782,3.5.487-.328.819-2.734.847-4.776a.354.354,0,0,1,.28-.341l1.719-.366a7.445,7.445,0,0,1-1.091-3.67c-.012-.307-.016-.661-.02-1.048-.039-3.435-.286-6.792-2.785-6.829-3.267-.051-4.121,1.782-4.943,3.554-.668,1.438-1.354,2.923-3.378,2.849a2.571,2.571,0,0,1-1.654-.8c-.276-.243-.46-.4-.633-.4" transform="translate(-232.679 -101.84)" fill="#510394"/>
        <path id="Path_23270" data-name="Path 23270" d="M241.837,479.835a33.6,33.6,0,0,0-1.317,5.637c-.011.6.421,3.214.421,3.214l.632-3.266.737,5.8.738-5.479.706,6.286.206-4.2,2.091,3.6-1.071-3.5,1.071-2.238,1.159,3.846v-5.216l-.689-4.184Z" transform="translate(-183.743 -366.565)" fill="#fff"/>
        <path id="Path_23271" data-name="Path 23271" d="M242.609,491.23a.354.354,0,0,1-.352-.314l-.385-3.435-.355,2.636a.354.354,0,0,1-.351.307h0a.354.354,0,0,1-.35-.309l-.458-3.6-.212,1.1a.363.363,0,0,1-.353.287.354.354,0,0,1-.344-.3c-.045-.271-.438-2.664-.426-3.278a33.54,33.54,0,0,1,1.351-5.781.354.354,0,0,1,.343-.2l4.685.294a.354.354,0,0,1,.327.3l.689,4.183a.364.364,0,0,1,0,.058v5.216a.354.354,0,0,1-.693.1l-.9-2.97-.617,1.289,1.03,3.373a.354.354,0,0,1-.645.281l-1.49-2.565-.148,3a.354.354,0,0,1-.343.337h-.011m.206-4.9a.354.354,0,0,1,.306.176l.549.945-.174-.569a.354.354,0,0,1,.019-.256l1.071-2.238a.354.354,0,0,1,.659.051l.466,1.546V483.2l-.639-3.877-4.149-.261a37.393,37.393,0,0,0-1.195,5.274,10.331,10.331,0,0,0,.111,1.119l.241-1.246a.354.354,0,0,1,.7.023l.4,3.112.377-2.8a.354.354,0,0,1,.351-.307h0a.354.354,0,0,1,.348.315l.226,2.012a.353.353,0,0,1,.25-.227.362.362,0,0,1,.084-.01" transform="translate(-182.597 -365.419)" fill="#510394"/>
        <path id="Path_23272" data-name="Path 23272" d="M253.95,506.159a.354.354,0,0,1-.347-.426l.429-2.081a.354.354,0,1,1,.694.143l-.428,2.081a.354.354,0,0,1-.347.283" transform="translate(-193.731 -384.544)" fill="#510394"/>
        <path id="Path_23273" data-name="Path 23273" d="M244.666,342.739c-.524,0-.874-.018-.9-.02l-4.688-.295a.352.352,0,0,1-.121-.03l-1.317-.584a.354.354,0,0,1-.21-.3l-.492-7.822a.354.354,0,1,1,.707-.045l.479,7.608,1.063.471,4.621.29c1.933.1,5.2-.116,5.712-1.148.363-.827-.015-10.918-.348-19.821-.377-10.055-.733-19.553-.352-21.265a.354.354,0,0,1,.691.153c-.361,1.623.01,11.517.369,21.085.448,11.946.7,19.312.275,20.164-.4.791-1.612,1.287-3.614,1.476-.7.065-1.365.082-1.871.082" transform="translate(-181.004 -228.8)" fill="#510394"/>
        <path id="Path_23274" data-name="Path 23274" d="M544.195,239.957l1.879.8-1.85.6,1.266,1.036-1.526-.2,1.065,1.439-1.62.091Z" transform="translate(-415.132 -183.312)" fill="#fff"/>
        <path id="Path_23275" data-name="Path 23275" d="M542.264,242.936a.354.354,0,0,1-.347-.426l.785-3.771a.354.354,0,0,1,.486-.254l1.879.8a.354.354,0,0,1-.029.662l-1.235.4.766.626a.354.354,0,0,1-.271.625l-.7-.092.569.768a.354.354,0,0,1-.265.564l-1.62.091h-.02m.556-1.287-.115.554.5-.028Zm.193-.928.144.019-.126-.1Zm.294-1.414-.1.5.719-.234Z" transform="translate(-413.986 -182.166)" fill="#510394"/>
        <path id="Path_23276" data-name="Path 23276" d="M530.622,202.4a.358.358,0,0,1-.08-.009l-2.777-.642a.354.354,0,0,1,.16-.69l2.777.642a.354.354,0,0,1-.079.7" transform="translate(-402.971 -153.587)" fill="#510394"/>
        <path id="Path_23277" data-name="Path 23277" d="M301.562,277.25a.354.354,0,0,1-.335-.238l-10.36-29.826a.354.354,0,1,1,.669-.232L301.9,276.78a.354.354,0,0,1-.334.47" transform="translate(-222.19 -188.476)" fill="#510394"/>
        <path id="Path_23278" data-name="Path 23278" d="M375.491,272.706h-.009a.354.354,0,0,1-.345-.363L375.9,243a.362.362,0,0,1,.363-.345.354.354,0,0,1,.345.363l-.767,29.346a.354.354,0,0,1-.354.345" transform="translate(-286.581 -185.371)" fill="#510394"/>
        <path id="Path_23279" data-name="Path 23279" d="M393.984,414.284a.354.354,0,0,1-.052-.7l5.918-.88a.354.354,0,0,1,.1.7l-5.917.88a.366.366,0,0,1-.053,0" transform="translate(-300.709 -315.275)" fill="#510394"/>
        <path id="Path_23280" data-name="Path 23280" d="M305.993,416.026a.338.338,0,0,1-.046,0l-5.837-.76a.354.354,0,0,1,.091-.7l5.837.76a.354.354,0,0,1-.045.705" transform="translate(-229.03 -316.697)" fill="#510394"/>
        <path id="Path_23281" data-name="Path 23281" d="M700.593,336.878c-1.361-1.675,2.915-8.293,3.267-9.716.5-2.025-1.941-4.057-1.1-7.306.079-.306.419-2.015.419-2.015a.68.68,0,1,0-1.317-.341l-.5,1.928a11.385,11.385,0,0,1-9.369,3.085c-2.634-.258-3.138-1.267-3.187-1.9l.718-2.775a.68.68,0,1,0-1.317-.341s-2.791,7.611-1.853,10.453c.743,2.25,2.111,1.852,2.455,3.231s1.19,4.009,0,6.639-17.568,37.07-17.568,37.07,15,9.031,21.888,9.184,26.174-6.735,26.939-10.255-18.111-35.269-19.472-36.944" transform="translate(-512.785 -242.162)" fill="#be73ff"/>
        <path id="Path_23282" data-name="Path 23282" d="M746.464,273.009,733.6,264.6v-.735a2.7,2.7,0,1,0-3.357-2.618.658.658,0,0,0,1.316,0,1.383,1.383,0,1,1,1.383,1.383.658.658,0,0,0-.658.658V264.6l-12.86,8.408a.658.658,0,0,0,.36,1.209H746.1a.658.658,0,0,0,.36-1.209M722,272.9l10.949-7.158,10.949,7.158Z" transform="translate(-549.371 -197.516)" fill="#be73ff"/>
        <path id="Path_23283" data-name="Path 23283" d="M644.527,336.878c-1.361-1.675,2.914-8.293,3.267-9.716.5-2.025-1.941-4.057-1.105-7.306.079-.306.419-2.015.419-2.015a.68.68,0,1,0-1.317-.341l-.5,1.928a11.385,11.385,0,0,1-9.369,3.085c-2.634-.258-3.138-1.267-3.187-1.9l.718-2.775a.68.68,0,0,0-1.317-.341s-2.791,7.611-1.853,10.453c.743,2.25,2.111,1.852,2.456,3.231s1.19,4.009,0,6.639-17.568,37.07-17.568,37.07,15,9.031,21.888,9.184,26.174-6.735,26.939-10.255-18.111-35.269-19.472-36.944" transform="translate(-469.954 -242.162)" fill="#d19cff"/>
        <path id="Path_23284" data-name="Path 23284" d="M690.4,273.009l-12.86-8.408v-.735a2.7,2.7,0,1,0-3.357-2.618.658.658,0,1,0,1.316,0,1.383,1.383,0,1,1,1.383,1.383.658.658,0,0,0-.658.658V264.6l-12.86,8.408a.658.658,0,0,0,.36,1.209h26.317a.658.658,0,0,0,.36-1.209M665.93,272.9l10.949-7.158,10.949,7.158Z" transform="translate(-506.539 -197.516)" fill="#d19cff"/>
        <path id="Path_23285" data-name="Path 23285" d="M588.461,336.878c-1.361-1.675,2.915-8.293,3.267-9.716.5-2.025-1.941-4.057-1.1-7.306.079-.306.419-2.015.419-2.015a.68.68,0,1,0-1.317-.341l-.5,1.928a11.385,11.385,0,0,1-9.369,3.085c-2.635-.258-3.138-1.267-3.187-1.9l.718-2.775a.68.68,0,0,0-1.317-.341s-2.791,7.611-1.853,10.453c.743,2.25,2.111,1.852,2.455,3.231s1.19,4.009,0,6.639-17.568,37.07-17.568,37.07,15,9.031,21.888,9.184,26.174-6.735,26.939-10.255-18.111-35.269-19.472-36.944" transform="translate(-427.123 -242.162)" fill="#dfbaff"/>
        <path id="Path_23286" data-name="Path 23286" d="M634.331,273.009l-12.86-8.408v-.735a2.7,2.7,0,1,0-3.357-2.618.658.658,0,0,0,1.316,0,1.383,1.383,0,1,1,1.383,1.383.658.658,0,0,0-.658.658V264.6l-12.86,8.408a.658.658,0,0,0,.36,1.209h26.317a.658.658,0,0,0,.36-1.209m-24.467-.107,10.949-7.158,10.949,7.158Z" transform="translate(-463.709 -197.516)" fill="#dfbaff"/>
        <path id="Path_23287" data-name="Path 23287" d="M616.36,268.475H544.6a1.822,1.822,0,0,0-1.822,1.822V399.763h9.886a.911.911,0,1,0,0-1.822H544.6v-126.8a.841.841,0,0,1,.841-.841h70.074a.841.841,0,0,1,.841.841v126.8H608.3a.911.911,0,0,0,0,1.822h9.886V270.3a1.822,1.822,0,0,0-1.822-1.822" transform="translate(-414.652 -205.099)" fill="#be73ff"/>
      </g>
    </g>
  </g>
</svg>
