<svg id="onbo_c" xmlns="http://www.w3.org/2000/svg" xmlns:xlink="http://www.w3.org/1999/xlink" width="339" height="193.244" viewBox="0 0 339 193.244">
  <defs>
    <clipPath id="clip-path">
      <rect id="Rectangle_2282" data-name="Rectangle 2282" width="339" height="193.244" fill="none"/>
    </clipPath>
    <clipPath id="clip-path-3">
      <rect id="Rectangle_2274" data-name="Rectangle 2274" width="107.899" height="87.863" fill="none"/>
    </clipPath>
    <clipPath id="clip-path-4">
      <rect id="Rectangle_2275" data-name="Rectangle 2275" width="100.186" height="55.945" fill="none"/>
    </clipPath>
    <clipPath id="clip-path-5">
      <rect id="Rectangle_2278" data-name="Rectangle 2278" width="308.264" height="26.382" fill="none"/>
    </clipPath>
    <clipPath id="clip-path-6">
      <path id="Path_23372" data-name="Path 23372" d="M79.5,741.267c-5.728.817-15.033,2.315-15.093,4.473-.054,1.947,7.439,3.542,10.062,4.1,29.991,6.385,36.506-4.32,76.188.3,20.813,2.424,17.673,6.444,36.13,7.455,25.254,1.384,63.746-7.016,95.317-6.638,13.47.161,13.682,1.522,32.014,2.609,7.2.427,57.643,3.355,58.54-1.118.162-.809-1.054-3.062-22.867-8.574,0,0-104.141-26.311-270.291-2.609" transform="translate(-64.41 -731.369)" fill="none"/>
    </clipPath>
    <linearGradient id="linear-gradient" x1="-0.047" y1="0.97" x2="-0.047" y2="0.97" gradientUnits="objectBoundingBox">
      <stop offset="0" stop-color="#d3d6db"/>
      <stop offset="0.999" stop-color="#7a869b"/>
      <stop offset="1" stop-color="#7a869b"/>
    </linearGradient>
    <clipPath id="clip-path-7">
      <rect id="Rectangle_2279" data-name="Rectangle 2279" width="16.089" height="9.715" fill="none"/>
    </clipPath>
  </defs>
  <g id="Group_4822" data-name="Group 4822" clip-path="url(#clip-path)">
    <g id="Group_4821" data-name="Group 4821">
      <g id="Group_4820" data-name="Group 4820" clip-path="url(#clip-path)">
        <g id="Group_4802" data-name="Group 4802" transform="translate(110.395)" opacity="0.59">
          <g id="Group_4801" data-name="Group 4801">
            <g id="Group_4800" data-name="Group 4800" clip-path="url(#clip-path-3)">
              <path id="Path_23340" data-name="Path 23340" d="M586.019,87.863H489.629a5.754,5.754,0,0,1-5.754-5.754V5.754A5.754,5.754,0,0,1,489.629,0h96.391a5.754,5.754,0,0,1,5.754,5.754V82.109a5.754,5.754,0,0,1-5.754,5.754" transform="translate(-483.875)" fill="#fff"/>
            </g>
          </g>
        </g>
        <path id="Path_23341" data-name="Path 23341" d="M621.312,263.327H541.79a1.267,1.267,0,0,1-1.263-1.263V260.6a1.267,1.267,0,0,1,1.263-1.263h79.522a1.267,1.267,0,0,1,1.263,1.263v1.467a1.267,1.267,0,0,1-1.263,1.263" transform="translate(-417.206 -200.167)" fill="#bb88fc"/>
        <path id="Path_23342" data-name="Path 23342" d="M588.159,309.735H541.79a1.267,1.267,0,0,1-1.263-1.263V307a1.267,1.267,0,0,1,1.263-1.263h46.369A1.267,1.267,0,0,1,589.422,307v1.467a1.267,1.267,0,0,1-1.263,1.263" transform="translate(-417.206 -235.987)" fill="#bb88fc"/>
        <path id="Path_23343" data-name="Path 23343" d="M547.635,191.109a3.554,3.554,0,1,1-3.554-3.554,3.554,3.554,0,0,1,3.554,3.554" transform="translate(-417.206 -144.764)" fill="#bb88fc"/>
        <path id="Path_23344" data-name="Path 23344" d="M627.512,191.109a3.554,3.554,0,1,1-3.554-3.554,3.554,3.554,0,0,1,3.554,3.554" transform="translate(-478.859 -144.764)" fill="#bb88fc"/>
        <path id="Path_23345" data-name="Path 23345" d="M822.486,73.155h-3a1.071,1.071,0,0,1,0-2.143h2.169l2.734-10.8-2.752-1.318a1.071,1.071,0,0,1,.926-1.933l3.543,1.7a1.071,1.071,0,0,1,.576,1.229l-3.154,12.464a1.071,1.071,0,0,1-1.039.809" transform="translate(-631.691 -43.88)" fill="#bb88fc"/>
        <path id="Path_23346" data-name="Path 23346" d="M835.563,141.2a13.243,13.243,0,0,1-2.083-.17,1.071,1.071,0,1,1,.337-2.116,8.047,8.047,0,0,0,7.518-2.253c-2.236-1.655-7.513-6.485-9.736-16.434a1.072,1.072,0,0,1,2.092-.467,28.7,28.7,0,0,0,5.833,12.232,16.75,16.75,0,0,0,3.883,3.484,1.074,1.074,0,0,1,.4,1.469,9.535,9.535,0,0,1-8.243,4.256" transform="translate(-641.851 -91.789)" fill="#bb88fc"/>
        <path id="Path_23347" data-name="Path 23347" d="M778.96,73.155h-3a1.071,1.071,0,0,1-1.039-.809l-3.154-12.464a1.072,1.072,0,0,1,.576-1.229l3.543-1.7a1.071,1.071,0,0,1,.926,1.933l-2.752,1.318,2.734,10.8h2.169a1.071,1.071,0,1,1,0,2.143" transform="translate(-595.661 -43.88)" fill="#bb88fc"/>
        <path id="Path_23348" data-name="Path 23348" d="M741.768,137.479a1.072,1.072,0,0,1-.528-2,16.752,16.752,0,0,0,3.882-3.483,28.136,28.136,0,0,0,5.833-12.232,1.071,1.071,0,1,1,2.091.467c-2.8,12.521-10.432,16.933-10.755,17.115a1.067,1.067,0,0,1-.524.137" transform="translate(-571.706 -91.789)" fill="#bb88fc"/>
        <path id="Path_23349" data-name="Path 23349" d="M793.284,63.232a5.964,5.964,0,0,1-5.889-4.946,1.072,1.072,0,1,1,2.111-.368,3.836,3.836,0,0,0,7.577-.14,1.071,1.071,0,1,1,2.123.289,6,6,0,0,1-5.923,5.164" transform="translate(-607.74 -43.881)" fill="#bb88fc"/>
        <path id="Path_23350" data-name="Path 23350" d="M749.927,197.219a10.818,10.818,0,0,1-5.3-1.377,11.564,11.564,0,0,1-3.747-3.31,1.071,1.071,0,0,1,1.782-1.19c.174.258,4.235,6.085,11.911,2.657a1.071,1.071,0,0,1,.874,1.957,13.453,13.453,0,0,1-5.515,1.263" transform="translate(-571.706 -147.321)" fill="#bb88fc"/>
        <path id="Path_23351" data-name="Path 23351" d="M791.034,199.329a1.074,1.074,0,0,1-.293-.041c-.809-.229-4.911-1.426-6.209-2.467a1.071,1.071,0,1,1,1.342-1.671,25.091,25.091,0,0,0,5.451,2.077,1.072,1.072,0,0,1-.291,2.1" transform="translate(-605.232 -150.444)" fill="#bb88fc"/>
        <g id="Group_4805" data-name="Group 4805" transform="translate(0 15.959)" opacity="0.59">
          <g id="Group_4804" data-name="Group 4804">
            <g id="Group_4803" data-name="Group 4803" clip-path="url(#clip-path-4)">
              <path id="Path_23352" data-name="Path 23352" d="M94.431,125.895H5.754A5.754,5.754,0,0,1,0,120.141V75.7A5.754,5.754,0,0,1,5.754,69.95H94.431a5.754,5.754,0,0,1,5.754,5.754v44.436a5.754,5.754,0,0,1-5.754,5.754" transform="translate(0 -69.95)" fill="#fff"/>
            </g>
          </g>
        </g>
        <path id="Path_23353" data-name="Path 23353" d="M275.74,136.923H245.894a1.267,1.267,0,0,1-1.263-1.263v-1.182a1.267,1.267,0,0,1,1.263-1.263H275.74A1.267,1.267,0,0,1,277,134.479v1.182a1.267,1.267,0,0,1-1.263,1.263" transform="translate(-188.819 -102.823)" fill="#bb88fc"/>
        <path id="Path_23354" data-name="Path 23354" d="M262.659,180.013H245.894a1.267,1.267,0,0,1-1.263-1.263v-1.182a1.267,1.267,0,0,1,1.263-1.263h16.766a1.267,1.267,0,0,1,1.263,1.263v1.182a1.267,1.267,0,0,1-1.263,1.263" transform="translate(-188.819 -136.082)" fill="#bb88fc"/>
        <path id="Path_23355" data-name="Path 23355" d="M128.547,132.55h-2.789a.995.995,0,1,1,0-1.99h2.014l2.538-10.033-2.555-1.224a.995.995,0,0,1,.86-1.794l3.289,1.576a1,1,0,0,1,.535,1.141L129.511,131.8a1,1,0,0,1-.965.751" transform="translate(-96.298 -90.624)" fill="#bb88fc"/>
        <path id="Path_23356" data-name="Path 23356" d="M140.69,195.73a12.279,12.279,0,0,1-1.935-.158.995.995,0,0,1,.313-1.965,7.472,7.472,0,0,0,6.981-2.092c-2.076-1.537-6.976-6.021-9.04-15.259a.995.995,0,0,1,1.942-.434,26.648,26.648,0,0,0,5.416,11.357,15.543,15.543,0,0,0,3.605,3.234,1,1,0,0,1,.371,1.364,8.852,8.852,0,0,1-7.654,3.952" transform="translate(-105.732 -135.108)" fill="#bb88fc"/>
        <path id="Path_23357" data-name="Path 23357" d="M88.132,132.55H85.344a1,1,0,0,1-.965-.751l-2.928-11.573a1,1,0,0,1,.535-1.141l3.289-1.576a.995.995,0,0,1,.86,1.794l-2.555,1.224,2.538,10.033h2.014a.995.995,0,1,1,0,1.99" transform="translate(-62.844 -90.624)" fill="#bb88fc"/>
        <path id="Path_23358" data-name="Path 23358" d="M53.6,192.276a.995.995,0,0,1-.49-1.861,15.581,15.581,0,0,0,3.6-3.234,26.126,26.126,0,0,0,5.416-11.357.995.995,0,1,1,1.942.434c-2.6,11.626-9.686,15.723-9.987,15.892a.99.99,0,0,1-.486.128" transform="translate(-40.602 -135.108)" fill="#bb88fc"/>
        <path id="Path_23359" data-name="Path 23359" d="M101.433,123.338a5.538,5.538,0,0,1-5.468-4.592.995.995,0,1,1,1.96-.342,3.561,3.561,0,0,0,7.035-.13.995.995,0,0,1,1.972.269,5.568,5.568,0,0,1-5.5,4.8" transform="translate(-74.06 -90.626)" fill="#bb88fc"/>
        <path id="Path_23360" data-name="Path 23360" d="M61.176,247.746a10.046,10.046,0,0,1-4.926-1.279,10.741,10.741,0,0,1-3.48-3.073.995.995,0,0,1,1.655-1.1c.162.239,3.933,5.65,11.059,2.467a.995.995,0,0,1,.812,1.817,12.493,12.493,0,0,1-5.12,1.173" transform="translate(-40.603 -186.671)" fill="#bb88fc"/>
        <path id="Path_23361" data-name="Path 23361" d="M99.343,249.7a1,1,0,0,1-.272-.038c-.751-.213-4.56-1.324-5.765-2.291a.995.995,0,1,1,1.245-1.552,23.3,23.3,0,0,0,5.062,1.928,1,1,0,0,1-.271,1.952" transform="translate(-71.732 -189.569)" fill="#bb88fc"/>
        <g id="Group_4808" data-name="Group 4808" transform="translate(228.366 15.959)" opacity="0.59">
          <g id="Group_4807" data-name="Group 4807">
            <path id="Path_23362" data-name="Path 23362" d="M1095.386,125.895h-88.677a5.754,5.754,0,0,1-5.754-5.754V75.7a5.754,5.754,0,0,1,5.754-5.754h88.677a5.754,5.754,0,0,1,5.754,5.754v44.436a5.754,5.754,0,0,1-5.754,5.754" transform="translate(-1000.954 -69.951)" fill="#fff"/>
          </g>
        </g>
        <path id="Path_23363" data-name="Path 23363" d="M1276.695,136.923h-29.846a1.267,1.267,0,0,1-1.263-1.263v-1.182a1.267,1.267,0,0,1,1.263-1.263h29.846a1.267,1.267,0,0,1,1.263,1.263v1.182a1.267,1.267,0,0,1-1.263,1.263" transform="translate(-961.407 -102.823)" fill="#bb88fc"/>
        <path id="Path_23364" data-name="Path 23364" d="M1263.614,180.013h-16.766a1.267,1.267,0,0,1-1.263-1.263v-1.182a1.267,1.267,0,0,1,1.263-1.263h16.766a1.267,1.267,0,0,1,1.263,1.263v1.182a1.267,1.267,0,0,1-1.263,1.263" transform="translate(-961.407 -136.082)" fill="#bb88fc"/>
        <path id="Path_23365" data-name="Path 23365" d="M1129.5,132.55h-2.789a.995.995,0,1,1,0-1.99h2.014l2.538-10.033-2.555-1.224a.995.995,0,0,1,.86-1.794l3.289,1.576a1,1,0,0,1,.535,1.141l-2.928,11.573a1,1,0,0,1-.965.751" transform="translate(-868.886 -90.624)" fill="#bb88fc"/>
        <path id="Path_23366" data-name="Path 23366" d="M1141.645,195.73a12.272,12.272,0,0,1-1.934-.158.995.995,0,1,1,.313-1.965,7.472,7.472,0,0,0,6.981-2.092c-2.076-1.537-6.976-6.021-9.04-15.259a.995.995,0,1,1,1.942-.434,26.646,26.646,0,0,0,5.416,11.357,15.554,15.554,0,0,0,3.605,3.234,1,1,0,0,1,.372,1.364,8.853,8.853,0,0,1-7.654,3.952" transform="translate(-878.32 -135.108)" fill="#bb88fc"/>
        <path id="Path_23367" data-name="Path 23367" d="M1089.088,132.55H1086.3a1,1,0,0,1-.965-.751l-2.928-11.573a1,1,0,0,1,.535-1.141l3.289-1.576a.995.995,0,0,1,.86,1.794l-2.555,1.224,2.538,10.033h2.014a.995.995,0,1,1,0,1.99" transform="translate(-835.433 -90.624)" fill="#bb88fc"/>
        <path id="Path_23368" data-name="Path 23368" d="M1054.553,192.276a1,1,0,0,1-.49-1.861,15.578,15.578,0,0,0,3.6-3.234,26.125,26.125,0,0,0,5.416-11.357,1,1,0,0,1,1.942.434c-2.6,11.626-9.686,15.723-9.987,15.892a.99.99,0,0,1-.486.128" transform="translate(-813.189 -135.108)" fill="#bb88fc"/>
        <path id="Path_23369" data-name="Path 23369" d="M1102.387,123.338a5.538,5.538,0,0,1-5.468-4.592.995.995,0,0,1,1.96-.342,3.561,3.561,0,0,0,7.035-.13,1,1,0,0,1,1.972.269,5.568,5.568,0,0,1-5.5,4.8" transform="translate(-846.647 -90.626)" fill="#bb88fc"/>
        <path id="Path_23370" data-name="Path 23370" d="M1062.13,247.746a10.047,10.047,0,0,1-4.926-1.279,10.744,10.744,0,0,1-3.479-3.073.995.995,0,0,1,1.655-1.1c.162.239,3.933,5.65,11.059,2.467a.995.995,0,1,1,.812,1.817,12.5,12.5,0,0,1-5.12,1.173" transform="translate(-813.189 -186.671)" fill="#bb88fc"/>
        <path id="Path_23371" data-name="Path 23371" d="M1100.3,249.7a1,1,0,0,1-.272-.038c-.751-.213-4.56-1.324-5.765-2.291a.995.995,0,0,1,1.245-1.552,23.3,23.3,0,0,0,5.062,1.928,1,1,0,0,1-.271,1.952" transform="translate(-844.32 -189.569)" fill="#bb88fc"/>
        <g id="Group_4813" data-name="Group 4813" transform="translate(14.695 166.861)" opacity="0.3">
          <g id="Group_4812" data-name="Group 4812">
            <g id="Group_4811" data-name="Group 4811" clip-path="url(#clip-path-5)">
              <g id="Group_4810" data-name="Group 4810" transform="translate(0)">
                <g id="Group_4809" data-name="Group 4809" clip-path="url(#clip-path-6)">
                  <rect id="Rectangle_2277" data-name="Rectangle 2277" width="308.467" height="41.416" transform="translate(-0.053 -13.804)" fill="url(#linear-gradient)"/>
                </g>
              </g>
            </g>
          </g>
        </g>
        <path id="Path_23373" data-name="Path 23373" d="M1232.572,684.807h-24.7a1.624,1.624,0,0,1-1.614-1.44l-3.9-34.282h35.722l-3.9,34.282a1.624,1.624,0,0,1-1.614,1.44" transform="translate(-928.042 -500.996)" fill="#4cbcf3"/>
        <path id="Path_23374" data-name="Path 23374" d="M1238.081,644c0,1.121-8,2.03-17.861,2.03s-17.861-.909-17.861-2.03,8-2.03,17.861-2.03,17.861.909,17.861,2.03" transform="translate(-928.041 -495.504)" fill="#1c2b6b"/>
        <path id="Path_23375" data-name="Path 23375" d="M1249.8,360.776c-9.742.812-6.5,30.039-6.5,30.039,2.436,25.168,5.683,36.534,8.119,37.346s7.307-35.722,7.307-44.653c0,0,.812-23.544-8.931-22.732" transform="translate(-959.244 -278.449)" fill="#1e3286"/>
        <path id="Path_23376" data-name="Path 23376" d="M1274.748,432.408a.4.4,0,0,1-.4-.455c3.2-26.437-.771-59.648-.812-59.981a.406.406,0,0,1,.805-.1c.041.334,4.028,33.643.812,60.177a.405.405,0,0,1-.4.357" transform="translate(-982.975 -286.756)" fill="#fff"/>
        <path id="Path_23377" data-name="Path 23377" d="M1145.115,295.664c-.812,4.059,4.06,4.871,4.871,10.554s-1.624,7.307-.812,10.554,5.683,4.059,6.495,12.178-2.436,7.307-1.624,12.178,5.683,4.871,6.495,8.93.812,9.742,2.435,14.614,6.495,12.178,8.931,12.178,8.931-13.8,7.307-17.861-4.059-4.871-4.059-8.119,3.248-11.366,2.436-17.049-8.119-8.119-8.931-12.178,1.624-14.614-4.059-19.485-18.673-10.554-19.485-6.495" transform="translate(-883.787 -227.139)" fill="#fa6e53"/>
        <path id="Path_23378" data-name="Path 23378" d="M1324.9,332.522c2.87,2.87-6.495,4.059-7.307,9.742s-.812,8.119-4.059,11.366-8.119,4.059-7.307,8.931,2.436,9.742,0,12.178-8.119,2.436-9.743,6.495-.812,8.93-4.059,12.99-8.119,12.178-12.178,10.554-1.624-20.3,0-23.544,3.247-5.683,3.247-8.119-.812-6.495.812-10.554,10.554-5.683,11.366-8.119,1.624-15.426,6.495-18.673,17.861-8.119,22.732-3.247" transform="translate(-986.445 -255.067)" fill="#40cd8a"/>
        <path id="Path_23379" data-name="Path 23379" d="M1291.911,418.6a.406.406,0,0,1-.348-.615c.033-.055,3.285-5.491,3.971-8.239.177-.708.391-1.78.637-3.022.9-4.507,2.254-11.317,4.341-13.4,3.03-3.029,7.871-12.307,11.263-24.18,4.179-14.628,18-18.909,18.135-18.951a.406.406,0,0,1,.233.778c-.135.04-13.533,4.205-17.588,18.4-3.43,12.006-8.366,21.429-11.469,24.532-1.913,1.913-3.293,8.847-4.118,12.989-.25,1.252-.465,2.333-.646,3.06-.716,2.866-3.927,8.233-4.063,8.46a.406.406,0,0,1-.348.2" transform="translate(-996.849 -270.278)" fill="#fff"/>
        <path id="Path_23380" data-name="Path 23380" d="M1187.006,383.342a.406.406,0,0,1-.406-.4c0-.106-.07-10.655-3.162-13.747-3.136-3.137-4.926-12.734-5.8-31.119-.8-16.7-12.769-30.465-12.889-30.6a.406.406,0,1,1,.609-.537c.123.139,12.282,14.105,13.09,31.1.854,17.922,2.622,27.64,5.565,30.584,3.328,3.328,3.4,13.872,3.4,14.319a.406.406,0,0,1-.4.407Z" transform="translate(-898.933 -236.799)" fill="#fff"/>
        <path id="Path_23381" data-name="Path 23381" d="M561.151,356.763l-11.205-2.37a3.591,3.591,0,0,1-2.77-4.256l3.564-16.849a3.591,3.591,0,0,1,4.256-2.77l11.205,2.37a3.592,3.592,0,0,1,2.77,4.256l-3.564,16.849a3.587,3.587,0,0,1-4.256,2.77" transform="translate(-422.278 -255.05)" fill="#fff"/>
        <path id="Path_23382" data-name="Path 23382" d="M560.745,356.023a3.957,3.957,0,0,1-.818-.086l-11.2-2.37a3.933,3.933,0,0,1-3.034-4.662l3.564-16.849a3.934,3.934,0,0,1,4.662-3.034l11.2,2.37a3.933,3.933,0,0,1,3.034,4.662l-3.564,16.85a3.931,3.931,0,0,1-3.844,3.12m-7.654-26.4a3.252,3.252,0,0,0-3.17,2.578l-3.564,16.849a3.249,3.249,0,0,0,2.506,3.85l11.2,2.37a3.245,3.245,0,0,0,3.85-2.506l3.564-16.849a3.248,3.248,0,0,0-2.506-3.85l-11.2-2.37a3.282,3.282,0,0,0-.681-.072" transform="translate(-421.124 -253.889)" fill="#510394"/>
        <g id="Group_4816" data-name="Group 4816" transform="translate(128.997 77.847)" opacity="0.59">
          <g id="Group_4815" data-name="Group 4815">
            <g id="Group_4814" data-name="Group 4814" clip-path="url(#clip-path-7)">
              <path id="Path_23383" data-name="Path 23383" d="M578.921,350.893l-12.429-2.629a1.37,1.37,0,0,1-1.057-1.624l.919-4.346a1.37,1.37,0,0,1,1.624-1.057l12.429,2.629a1.369,1.369,0,0,1,1.057,1.624l-.919,4.346a1.37,1.37,0,0,1-1.624,1.057" transform="translate(-565.405 -341.208)" fill="#f6eeff"/>
            </g>
          </g>
        </g>
        <g id="Group_4819" data-name="Group 4819" transform="translate(127.034 86.223)" opacity="0.59">
          <g id="Group_4818" data-name="Group 4818">
            <g id="Group_4817" data-name="Group 4817" clip-path="url(#clip-path-7)">
              <path id="Path_23384" data-name="Path 23384" d="M570.318,387.61l-12.429-2.629a1.37,1.37,0,0,1-1.057-1.624l.919-4.346a1.37,1.37,0,0,1,1.624-1.057l12.429,2.629a1.369,1.369,0,0,1,1.057,1.624l-.919,4.346a1.37,1.37,0,0,1-1.624,1.057" transform="translate(-556.802 -377.925)" fill="#f6eeff"/>
            </g>
          </g>
        </g>
        <path id="Path_23385" data-name="Path 23385" d="M585.521,426.714a.967.967,0,1,1-.967-.967.967.967,0,0,1,.967.967" transform="translate(-450.443 -328.613)" fill="#510394"/>
        <path id="Path_23386" data-name="Path 23386" d="M884.14,598.928H815.812V561.693s-.788-11.724,34.164-11.724,34.164,11.724,34.164,11.724Z" transform="translate(-629.684 -424.494)" fill="#ffac00"/>
        <path id="Path_23387" data-name="Path 23387" d="M881.729,744.305a3.937,3.937,0,0,0-1.537-.31H819.759a3.949,3.949,0,1,0,0,7.9h2.181v3.979h6.378v-3.979h43.315v3.979h6.378v-3.979h2.181a3.95,3.95,0,0,0,1.537-7.587" transform="translate(-629.684 -574.253)" fill="#ff7f00"/>
        <path id="Path_23388" data-name="Path 23388" d="M324.12,598.928H255.792V561.693s-.788-11.724,34.164-11.724,34.164,11.724,34.164,11.724Z" transform="translate(-197.432 -424.494)" fill="#ffac00"/>
        <path id="Path_23389" data-name="Path 23389" d="M321.709,744.305a3.937,3.937,0,0,0-1.537-.31H259.739a3.949,3.949,0,1,0,0,7.9h2.181v3.979H268.3v-3.979h43.315v3.979h6.378v-3.979h2.181a3.95,3.95,0,0,0,1.537-7.587" transform="translate(-197.432 -574.253)" fill="#ff7f00"/>
        <path id="Path_23390" data-name="Path 23390" d="M457.281,374.371s10.985-.772,13.558-2.552,1.946-2.6,4.143-2.6a30.672,30.672,0,0,1,6.34,1.255l-5.586.565s.251,5.21-1.569,5.649-2.009-.188-3.7.439-10.169,5.649-16.132,5.775,2.95-8.537,2.95-8.537" transform="translate(-349.09 -284.986)" fill="#fff"/>
        <path id="Path_23391" data-name="Path 23391" d="M453.069,382.094c-1.153,0-1.878-.336-2.156-1-.947-2.264,4.38-7.533,4.991-8.126a.342.342,0,0,1,.214-.1c.109-.008,10.92-.786,13.388-2.492a10.476,10.476,0,0,0,1.851-1.6,2.709,2.709,0,0,1,2.487-1.055,30.466,30.466,0,0,1,6.439,1.27.342.342,0,0,1-.065.668l-5.268.533c.029,1.254-.025,5.235-1.842,5.674a5.787,5.787,0,0,1-1.89.164,3.7,3.7,0,0,0-1.775.264c-.35.13-1.047.478-1.93.919-3.343,1.67-9.567,4.777-14.313,4.877l-.13,0m3.223-8.548c-2.175,2.133-5.318,5.92-4.747,7.285.169.4.721.6,1.64.578,4.593-.1,10.727-3.16,14.022-4.805.937-.468,1.613-.806,2-.948a4.355,4.355,0,0,1,2.049-.306,5.148,5.148,0,0,0,1.694-.146c1.125-.272,1.4-3.4,1.308-5.3a.342.342,0,0,1,.307-.357l3.758-.38a21.613,21.613,0,0,0-4.476-.758,2.064,2.064,0,0,0-1.989.84,11.2,11.2,0,0,1-1.959,1.695c-2.5,1.728-12.313,2.507-13.6,2.6" transform="translate(-347.951 -283.828)" fill="#510394"/>
        <path id="Path_23392" data-name="Path 23392" d="M636.549,730.221c-.9,1.247-1.17,4.143.4,5.188s1.592.681,2.565,1.841,6.578,7.415,6.578,7.415l.9-1.437s-6.32-6.337-5.649-7.044,4.3.756,6.335,2.514,2.927,3.319,5.161,2.262,5.387-4.181,5.154-4.542c-.583-.9-6.264-1.082-6.827-1.651s-6.03-4.656-9.764-5.16-4.853.613-4.853.613" transform="translate(-490.759 -563.048)" fill="#510394"/>
        <path id="Path_23393" data-name="Path 23393" d="M526.04,514.161s16.784,16.954,21.661,24.349,4.405,10.856,4.405,10.856,2.2-.472,3.461.393,6.608,5.585,10.62,4.484a18.628,18.628,0,0,1-4.248-5.664c-2.2-4.091-7.552-14.475-10.935-19.981s-21.5-31.264-23.749-33.211-1.216,18.774-1.216,18.774" transform="translate(-405.842 -382.265)" fill="#fff"/>
        <path id="Path_23394" data-name="Path 23394" d="M563.757,553.591c-3.362,0-7.127-2.877-8.855-4.2-.294-.225-.526-.4-.685-.511-1.12-.77-3.175-.345-3.2-.341a.343.343,0,0,1-.411-.381c0-.032.367-3.466-4.352-10.621-4.8-7.282-21.451-24.128-21.619-24.3a.342.342,0,0,1-.1-.224c0-.045-.225-4.572-.236-9.142-.023-9.444.859-9.873,1.236-10.057a.682.682,0,0,1,.782.149c2.223,1.927,20.328,27.612,23.817,33.291,2.621,4.267,6.471,11.553,9.02,16.374.765,1.447,1.425,2.7,1.924,3.624a18.609,18.609,0,0,0,4.156,5.555.342.342,0,0,1-.118.6,5.14,5.14,0,0,1-1.364.176m-11.462-5.855a4.144,4.144,0,0,1,2.309.582c.173.119.411.3.713.532,1.765,1.349,5.749,4.391,8.97,4.028a21.761,21.761,0,0,1-3.806-5.3c-.5-.929-1.161-2.18-1.927-3.629-2.544-4.814-6.389-12.088-9-16.336-3.477-5.66-21.483-31.226-23.682-33.132a.351.351,0,0,0-.052-.039c-.722.51-1.141,7.478-.6,18.407,1.35,1.37,16.959,17.254,21.612,24.308,3.965,6.011,4.445,9.468,4.474,10.64a7.64,7.64,0,0,1,.992-.066" transform="translate(-404.685 -381.106)" fill="#510394"/>
        <path id="Path_23395" data-name="Path 23395" d="M526.391,741.585c-1.437.555-3.234,2.842-2.482,4.573s.966,1.437,1.153,2.94,1.493,9.8,1.493,9.8l1.535-.718s-1.862-8.754-.915-8.983,3.2,2.972,3.953,5.553.653,4.377,3.1,4.7,6.794-.583,6.794-1.012c0-1.074-4.671-4.312-4.834-5.1s-2.532-7.186-5.392-9.637-4.407-2.122-4.407-2.122" transform="translate(-404.243 -572.382)" fill="#510394"/>
        <path id="Path_23396" data-name="Path 23396" d="M478.851,455.936s6.284-4.57,9.733-3.362,6.285,18.3,6.971,32.576,1.921,31.375,2.648,33.338,2.544,10.362,2.544,10.362-3.126-6-5.306-7.309-4.434-1.454-4.434-2.617-3.579-23.3-4.4-28.479-3.4-16.4-4.275-16.407a11.694,11.694,0,0,0-3.175,1.24Z" transform="translate(-369.602 -349.162)" fill="#fff"/>
        <path id="Path_23397" data-name="Path 23397" d="M499.59,528.036a.342.342,0,0,1-.3-.184c-.031-.059-3.106-5.93-5.179-7.173a15.117,15.117,0,0,0-2.373-1.1c-1.244-.484-2.227-.867-2.227-1.815,0-.924-2.5-16.594-3.708-24.124-.295-1.845-.536-3.356-.686-4.3-.872-5.521-3.218-15.234-4.014-16.115a11.569,11.569,0,0,0-2.936,1.2.342.342,0,0,1-.505-.3l-.308-19.342a.343.343,0,0,1,.141-.282c.263-.191,6.471-4.66,10.048-3.409,1.743.61,3.339,4.528,4.744,11.645a153.459,153.459,0,0,1,2.455,21.238c.683,14.209,1.93,31.353,2.627,33.236.727,1.962,2.483,10.064,2.558,10.408a.343.343,0,0,1-.218.394.339.339,0,0,1-.116.02m-18.417-55.5h.005c.347,0,.872,0,2.49,6.523.848,3.415,1.7,7.5,2.122,10.173.149.945.391,2.455.686,4.3,1.8,11.251,3.716,23.33,3.716,24.232,0,.458.647.732,1.791,1.177a15.677,15.677,0,0,1,2.477,1.147c1.418.851,3.169,3.513,4.295,5.413-.592-2.629-1.555-6.771-2.03-8.053-.73-1.97-1.969-18.882-2.669-33.44a152.77,152.77,0,0,0-2.443-21.138c-1.3-6.572-2.864-10.629-4.3-11.131-2.963-1.038-8.329,2.557-9.275,3.215l.3,18.607a8.981,8.981,0,0,1,2.838-1.023" transform="translate(-368.444 -348.008)" fill="#510394"/>
        <path id="Path_23398" data-name="Path 23398" d="M319.57,293.858s3.135.472,3.534,1.513c2.445,6.37-7.764,36.955-5.693,38.922s14.492-5.9,16.252-5.9,1.656,4.969,2.381,7.246-.207,7.764-2.691,12.215,2.277,3.934-2.381,7.35-13.25,9.73-28.363,8.8-17.08-10.248-16.562-18.426,13.354-55.484,20.595-53.311Z" transform="translate(-220.729 -225.529)" fill="#00b2ca"/>
        <path id="Path_23399" data-name="Path 23399" d="M423.762,397.375s-5.079,20.666-5.254,24.081-3.15,21.191-3.15,21.191,6.709,1.532,7.4,1.814,3.221,4.6,3.221,4.6h-.688l-.563,1.407-.751-1.376-.532,1.376-1.689-2.408s-5.88,1.47-8.35,1.439-4.066-.563-3.941-3.034,1.135-28.879,1.723-33.46S416,396.557,416,396.557Z" transform="translate(-316.04 -306.083)" fill="#fff"/>
        <path id="Path_23400" data-name="Path 23400" d="M423.568,449.649a.342.342,0,0,1-.3-.179l-.4-.728-.266.688a.342.342,0,0,1-.6.073l-1.554-2.216a47.51,47.51,0,0,1-8.209,1.393c-1.307-.017-2.755-.153-3.587-1.039a3.044,3.044,0,0,1-.691-2.354c.024-.469.08-1.821.158-3.693.326-7.8,1.089-26.069,1.567-29.794.585-4.565,4.66-16.031,4.833-16.517a.343.343,0,0,1,.358-.226l7.76.819a.342.342,0,0,1,.3.422c-.051.206-5.073,20.673-5.244,24.017-.163,3.185-2.688,18.43-3.1,20.912,1.436.329,6.506,1.5,7.137,1.759.738.3,2.779,3.705,3.387,4.741a.342.342,0,0,1-.3.516h-.456l-.477,1.192a.342.342,0,0,1-.3.215h-.02m-2.971-3.093a.342.342,0,0,1,.28.146l1.321,1.883.3-.778a.342.342,0,0,1,.62-.04l.4.738.293-.732a.342.342,0,0,1,.318-.215h.087a20.989,20.989,0,0,0-2.751-3.939c-.541-.222-5.484-1.372-7.342-1.8a.342.342,0,0,1-.261-.39c.03-.178,2.974-17.8,3.146-21.152.164-3.193,4.456-20.846,5.17-23.764l-7.1-.749c-.614,1.746-4.181,12-4.709,16.121-.474,3.695-1.236,21.943-1.562,29.735-.078,1.874-.135,3.227-.159,3.7a2.412,2.412,0,0,0,.506,1.851c.515.549,1.47.8,3.1.823,2.4.038,8.2-1.414,8.263-1.428a.346.346,0,0,1,.083-.01" transform="translate(-314.882 -304.924)" fill="#510394"/>
        <path id="Path_23401" data-name="Path 23401" d="M385.854,247.4s-2.272,3.975-2.2,5.821,6.815,2.91,7.454,3.9-3.411,2.343-7.455,1.491a20.172,20.172,0,0,1-6.59-2.234c-1.136-.639-.423-11.912,2.842-12.764s5.95,3.781,5.95,3.781" transform="translate(-290.646 -187.96)" fill="#fff"/>
        <path id="Path_23402" data-name="Path 23402" d="M385.157,258.07a13.368,13.368,0,0,1-2.736-.278,20.742,20.742,0,0,1-6.687-2.27c-.932-.525-.713-4.268-.466-6.175.255-1.971,1.1-6.62,3.39-7.219,3.478-.907,6.218,3.743,6.332,3.941a.343.343,0,0,1,0,.342c-.022.039-2.222,3.911-2.156,5.638.034.88,2.654,1.756,4.388,2.337s2.709.924,3.012,1.4a.751.751,0,0,1-.034.864c-.554.8-2.642,1.424-5.044,1.424M379.55,242.7a2.844,2.844,0,0,0-.72.093c-.985.257-1.885,1.837-2.471,4.335-.842,3.592-.7,7.437-.281,7.805.986.554,2.349,1.32,6.484,2.191,3.324.7,6.577-.143,7.075-.865.046-.067.035-.084.022-.106a9.306,9.306,0,0,0-2.653-1.117c-2.361-.79-4.8-1.607-4.855-2.959-.066-1.714,1.7-5.014,2.146-5.826-.458-.718-2.413-3.551-4.746-3.551" transform="translate(-289.485 -186.797)" fill="#510394"/>
        <path id="Path_23403" data-name="Path 23403" d="M408.95,204.933l2.527,8.087H409.6s.722,4.982-.433,6.066-3.759,1.263-6.936-1.337c-2.449-2-2.311-5.127-2.094-7.437s4.12-6.1,8.814-5.379" transform="translate(-308.761 -158.108)" fill="#fff"/>
        <path id="Path_23404" data-name="Path 23404" d="M405.849,219.013a8.212,8.212,0,0,1-5.016-2.165c-2.733-2.237-2.4-5.813-2.218-7.734a6.274,6.274,0,0,1,2.586-3.861,8.666,8.666,0,0,1,6.62-1.825.342.342,0,0,1,.275.236l2.527,8.087a.343.343,0,0,1-.327.444H408.81c.157,1.276.5,4.952-.59,5.973a3.4,3.4,0,0,1-2.371.843m.726-15a8.172,8.172,0,0,0-4.953,1.776,5.689,5.689,0,0,0-2.325,3.385c-.25,2.667-.184,5.378,1.97,7.141,2.039,1.668,4.938,2.8,6.486,1.352.747-.7.6-3.909.329-5.767a.342.342,0,0,1,.339-.391h1.412l-2.324-7.436a7.479,7.479,0,0,0-.932-.059" transform="translate(-307.581 -156.942)" fill="#510394"/>
        <path id="Path_23405" data-name="Path 23405" d="M362.408,186.478c-5.009-3.6-17.072-3.218-17.7,7.508-.4,6.876,2.592,8.921,2.592,10.136s-6.167,4.165-5.72,11.226,2.814,15.552-.023,20.379-3.56,10.263-.513,10.547c10.547.983,11.3-37.446,9.242-41.563-1.08-2.162,4.247-.3,10.154-9.473,3.139-4.876,3.249-7.837,1.966-8.759" transform="translate(-261.713 -142.355)" fill="#510394"/>
        <path id="Path_23406" data-name="Path 23406" d="M430.8,303.455s6.952,2.392,7.806,8.672.61,14.145-.671,14.45-9.45.976-11.1-.488.6-20.028,3.961-22.634" transform="translate(-329.032 -234.222)" fill="#00b2ca"/>
        <path id="Path_23407" data-name="Path 23407" d="M433.133,365.9a43.172,43.172,0,0,1-7.7-.8c-.618-.113-1.138-.906-.762-5.892.2-2.664.581-5.33.585-5.356a.342.342,0,0,1,.678.1c-.764,5.328-.93,10.128-.363,10.482,6.3,1.156,9.445.694,9.476.689a.342.342,0,0,1,.106.676,14.241,14.241,0,0,1-2.014.108" transform="translate(-327.681 -272.888)" fill="#510394"/>
        <path id="Path_23408" data-name="Path 23408" d="M452.077,612.255a.341.341,0,0,1-.258-.117l-2.543-2.906-4.841-1.006a.342.342,0,0,1,.139-.67l4.953,1.029a.342.342,0,0,1,.188.11l2.619,2.992a.342.342,0,0,1-.257.568" transform="translate(-342.827 -468.937)" fill="#510394"/>
        <path id="Path_23409" data-name="Path 23409" d="M451.487,615.862a.342.342,0,0,1-.254-.112l-1.88-2.074-3.98-.817a.342.342,0,0,1,.138-.671l4.089.84a.346.346,0,0,1,.185.105l1.955,2.157a.342.342,0,0,1-.253.572" transform="translate(-343.551 -472.512)" fill="#510394"/>
        <path id="Path_23410" data-name="Path 23410" d="M730.894,748.947s-7.867,5.476-7.28,6.474,6.206,3.965,8.88,2.113,4.695-7.268,4.695-7.268L735.6,756.9l2.079.19s-.206-4.646.912-5.891,3.364-2.67,2.454-4.732-2.068-6.145-3.469-5.193-6.687,7.673-6.687,7.673" transform="translate(-558.497 -572.044)" fill="#510394"/>
        <path id="Path_23411" data-name="Path 23411" d="M740.406,712.266s-.19,6.792-.708,8.251-5.536,10.69-5.536,10.69,8.8-4.313,10.383-6.892,2.488-4.865,1.2-5.322-.413-5.364-.413-5.364Z" transform="translate(-566.664 -549.763)" fill="#fff"/>
        <path id="Path_23412" data-name="Path 23412" d="M733,730.391a.342.342,0,0,1-.3-.506c.05-.092,5.011-9.225,5.514-10.642.4-1.113.623-5.815.689-8.146a.342.342,0,0,1,.433-.32l4.926,1.363a.342.342,0,0,1,.245.39c-.4,2.232-.415,4.767.191,4.982a1.188,1.188,0,0,1,.749.74c.33.934-.25,2.6-1.772,5.083-1.613,2.634-10.161,6.842-10.524,7.02a.341.341,0,0,1-.151.035m6.573-18.837c-.052,1.542-.256,6.63-.715,7.919-.426,1.2-3.729,7.357-5.036,9.776,2.319-1.2,8.064-4.3,9.269-6.27,1.821-2.973,1.853-4.094,1.711-4.5a.5.5,0,0,0-.332-.324c-.7-.249-1-1.293-.917-3.191a21.92,21.92,0,0,1,.23-2.247Z" transform="translate(-565.506 -548.605)" fill="#510394"/>
        <path id="Path_23413" data-name="Path 23413" d="M795.433,474.524s-28.749-7.413-33.118-4.073-5.342,15.641-4.864,22.678-.725,30.151-1.175,31.813,7.369,3.318,7.369,3.318,5-21.577,6.688-26.327,1.153-15.87,1.153-15.87,16.68,8.8,25.878,8.406c11.314-.49,17.823-5.679,17.3-13.116s-19.227-6.829-19.227-6.829" transform="translate(-583.718 -362.451)" fill="#3a3e3f"/>
        <path id="Path_23414" data-name="Path 23414" d="M779.1,346.122s-2.436,3.97-3.973,4.377-13.2-5.128-14.176-6.5-1.965-5.607-3.2-6.046-8.013-3.432-8.013-3.432l4.079,3.574s-1.438.955-1.47,1.456.273,5.006,1.64,5.492,5.505,1,7.417,2.634,11.758,10.99,14.827,10.4,7.966-8.255,7.966-8.255Z" transform="translate(-578.687 -258.2)" fill="#fff"/>
        <path id="Path_23415" data-name="Path 23415" d="M774.782,357.282c-2.662,0-8.328-4.749-13.578-9.457-.515-.462-.922-.827-1.179-1.046-1.326-1.132-3.817-1.712-5.635-2.135-.689-.16-1.283-.3-1.674-.437-1.747-.621-1.87-5.785-1.867-5.835.03-.479.731-1.079,1.257-1.465l-3.751-3.286a.342.342,0,0,1,.364-.571c.068.03,6.779,2.993,7.989,3.423.9.32,1.551,1.972,2.241,3.721a13.622,13.622,0,0,0,1.125,2.449c.4.567,3.3,2.2,6.744,3.806,3.984,1.856,6.569,2.694,7.066,2.562,1.151-.3,3.111-3.153,3.768-4.225a.342.342,0,0,1,.493-.1l5.1,3.694a.343.343,0,0,1,.087.462c-.2.318-5.013,7.79-8.19,8.406a1.863,1.863,0,0,1-.357.032m-24.3-22.711,2.407,2.109a.342.342,0,0,1-.036.543,4.22,4.22,0,0,0-1.318,1.2c-.049.778.4,4.782,1.413,5.143.355.126.932.26,1.6.416,1.887.439,4.471,1.041,5.924,2.281.263.225.673.592,1.192,1.057,2.971,2.665,10.861,9.746,13.348,9.262,1.174-.228,2.878-1.689,4.929-4.225,1.229-1.52,2.243-3.013,2.637-3.608l-4.536-3.288c-.644,1-2.568,3.842-3.98,4.216-1.752.462-13.534-5.216-14.543-6.633a13.885,13.885,0,0,1-1.2-2.595c-.547-1.386-1.227-3.112-1.833-3.327-.809-.287-3.894-1.626-6-2.547" transform="translate(-577.529 -257.042)" fill="#510394"/>
        <path id="Path_23416" data-name="Path 23416" d="M901.188,297.249c-2.092,1.259-6.629,4.87-6.274,7.493s-3.018,7.859-3,10.588,5.783,4.174,5.537,8.7.919,17.647.021,20.174,6.874,10.026,14.49,8.987,12.234-7.1,10.984-12.971-5.455-36.62-10.249-40.514-11.5-2.461-11.5-2.461" transform="translate(-688.421 -229.233)" fill="#00b2ca"/>
        <path id="Path_23417" data-name="Path 23417" d="M932.814,265.821s.07,5.177-.286,5.91,5.9.855,6.711-1.433-4.227-6.367-4.227-6.367Z" transform="translate(-719.761 -203.715)" fill="#fff"/>
        <path id="Path_23418" data-name="Path 23418" d="M933.167,271.387c-.933,0-1.8-.126-2.059-.474a.469.469,0,0,1-.045-.489,32.864,32.864,0,0,0,.252-5.756.343.343,0,0,1,.119-.264l2.2-1.891a.343.343,0,0,1,.439-.007,23.22,23.22,0,0,1,2.459,2.365c1.626,1.833,2.257,3.308,1.875,4.383-.485,1.366-2.457,1.848-3.59,2.014a11.785,11.785,0,0,1-1.647.118m-1.425-.845a8.634,8.634,0,0,0,4.05-.176c.755-.213,1.71-.618,1.966-1.341.569-1.6-2.439-4.573-3.9-5.8l-1.858,1.6a36.488,36.488,0,0,1-.259,5.724" transform="translate(-718.604 -202.557)" fill="#510394"/>
        <path id="Path_23419" data-name="Path 23419" d="M909.2,238.39s-.534,8.293,3.111,9.5,5.878-2.736,6.061-3.253-1.06-6.614-9.172-6.252" transform="translate(-701.747 -183.989)" fill="#fff"/>
        <path id="Path_23420" data-name="Path 23420" d="M912.51,247.306a4.649,4.649,0,0,1-1.472-.246c-3.851-1.28-3.367-9.5-3.345-9.851a.343.343,0,0,1,.326-.32c4.665-.208,7.072,1.673,8.267,3.289a5.334,5.334,0,0,1,1.243,3.42,7.3,7.3,0,0,1-1.831,2.418,4.826,4.826,0,0,1-3.189,1.291m-4.148-9.744a23.345,23.345,0,0,0,.2,3.928c.281,1.93.975,4.351,2.69,4.921,3.574,1.188,5.615-3,5.631-3.042a5.772,5.772,0,0,0-1.512-3.233c-1.089-1.235-3.181-2.663-7.011-2.573" transform="translate(-700.58 -182.831)" fill="#510394"/>
        <path id="Path_23421" data-name="Path 23421" d="M893.489,194.245c-3.049,4.778,3.341,8.618,6.028,9.131s4.9,7.552,4.811,9.655-.242,5.653,5.571,6.688,13.679-8.459,9.294-10.422c-5.968-2.671-7.039-15.192-12.03-17.922-6.327-3.46-10.688-1.81-13.675,2.869" transform="translate(-689.017 -146.288)" fill="#510394"/>
        <path id="Path_23422" data-name="Path 23422" d="M876.39,317.409s-9.086,12.56-9.957,14.5,5.637,6.777,7.712,7.875,7.535-8.947,8.354-11-1.261-10.488-6.11-11.38" transform="translate(-668.696 -244.992)" fill="#00b2ca"/>
        <path id="Path_23423" data-name="Path 23423" d="M913.217,375.241a.343.343,0,0,1-.256-.569c1.177-1.334,5.106-8.63,5.146-8.7a.342.342,0,0,1,.6.324c-.163.3-4.006,7.44-5.235,8.833a.342.342,0,0,1-.257.116" transform="translate(-704.604 -282.334)" fill="#510394"/>
      </g>
    </g>
  </g>
</svg>
