<svg id="Mail_Verification" data-name="Mail Verification" xmlns="http://www.w3.org/2000/svg" width="339" height="221" viewBox="0 0 339 221">
  <rect id="back" width="339" height="221" fill="none"/>
  <path id="Path_24486" data-name="Path 24486" d="M138.938,0,0,89.249l18.929,131h218.48l27.235-112.633Z" transform="translate(37.178 0.303)" fill="#f6f5fa"/>
  <path id="Path_24487" data-name="Path 24487" d="M138.938,0,0,89.248l18.93,131H237.409l27.235-112.633Z" transform="translate(37.178 0.303)" fill="#00b2ca" opacity="0.1"/>
  <g id="charector" transform="translate(37.178 0.303)">
    <path id="Path_24488" data-name="Path 24488" d="M97.5,94.084a3.721,3.721,0,0,0-3.7-3.742H28.566a3.737,3.737,0,0,0-3.75,3.724v41.183a3.753,3.753,0,0,0,3.75,3.742H93.758a3.736,3.736,0,0,0,3.74-3.732V94.084Z" fill="#000045" fill-rule="evenodd"/>
    <path id="Path_24489" data-name="Path 24489" d="M89.036,63.679a3.108,3.108,0,0,0-3.107-3.109H36.706a3.115,3.115,0,0,0-3.118,3.109V96.522l24.518,18.489a5.316,5.316,0,0,0,6.412,0L89.036,96.522Z" fill="#fff" fill-rule="evenodd"/>
    <path id="Path_24490" data-name="Path 24490" d="M89.491,63.68a3.566,3.566,0,0,0-3.567-3.56H36.706a3.561,3.561,0,0,0-3.567,3.555V96.523a.425.425,0,0,0,.184.356s17.208,12.993,24.51,18.489a5.754,5.754,0,0,0,6.956,0c7.3-5.5,24.518-18.489,24.518-18.489a.425.425,0,0,0,.184-.356Zm-.9,0V96.3c-1.838,1.382-17.473,13.181-24.334,18.353a4.9,4.9,0,0,1-5.883,0L34.04,96.3V63.68a2.677,2.677,0,0,1,2.67-2.67H85.929a2.672,2.672,0,0,1,2.662,2.67" fill="#000045" fill-rule="evenodd"/>
    <path id="Path_24491" data-name="Path 24491" d="M25.876,91.278S49.108,108.8,57.811,115.353a5.811,5.811,0,0,0,7,0C73.5,108.8,96.745,91.278,96.745,91.278a.462.462,0,0,0,.084-.63.45.45,0,0,0-.63-.087s-23.232,17.524-31.924,24.075a4.922,4.922,0,0,1-5.931,0c-8.692-6.551-31.923-24.075-31.923-24.075a.451.451,0,0,0-.546.717" fill="#fff" fill-rule="evenodd"/>
    <path id="Path_24492" data-name="Path 24492" d="M42.256,72.2H61.911a.45.45,0,1,0,0-.9H42.256a.45.45,0,1,0,0,.9" fill="#00b2ca" fill-rule="evenodd"/>
    <path id="Path_24493" data-name="Path 24493" d="M42.228,80.1H80.035a.454.454,0,1,0,0-.909H42.225a.454.454,0,0,0,0,.909" fill="#00b2ca" fill-rule="evenodd"/>
    <path id="Path_24494" data-name="Path 24494" d="M42.228,88.011H80.035a.455.455,0,1,0,0-.909H42.225a.455.455,0,0,0,0,.909" fill="#00b2ca" fill-rule="evenodd"/>
    <path id="Path_24495" data-name="Path 24495" d="M42.228,95.906H80.035a.454.454,0,0,0,0-.908H42.225a.454.454,0,0,0,0,.908" fill="#00b2ca" fill-rule="evenodd"/>
    <path id="Path_24496" data-name="Path 24496" d="M91.613,120.559l1.968,3.543a.448.448,0,1,0,.786-.431L92.4,120.118a.456.456,0,0,0-.61-.178.461.461,0,0,0-.176.62" fill="#000045" fill-rule="evenodd"/>
    <path id="Path_24497" data-name="Path 24497" d="M31.393,57.93,19.1,45.642a.449.449,0,0,0-.635.635L30.757,58.565a.449.449,0,1,0,.635-.635" fill="#00b2ca" fill-rule="evenodd"/>
    <path id="Path_24498" data-name="Path 24498" d="M36.7,52.5l-2.43-9.07a.449.449,0,0,0-.867.232l2.43,9.07A.449.449,0,0,0,36.7,52.5" fill="#00b2ca" fill-rule="evenodd"/>
    <path id="Path_24499" data-name="Path 24499" d="M25.556,63l-9.8-2.626a.449.449,0,0,0-.232.867l9.8,2.626a.449.449,0,1,0,.261-.859L25.556,63" fill="#00b2ca" fill-rule="evenodd"/>
    <path id="Path_24500" data-name="Path 24500" d="M160.6,82.748c.906.116,1.812.193,2.71.241a.441.441,0,0,0,.472-.408v-.016a.453.453,0,0,0-.425-.472c-.878-.039-1.754-.125-2.651-.232a.438.438,0,0,0-.5.369l0,.017a.454.454,0,0,0,.4.5m8.155.116c.917-.1,1.823-.222,2.7-.386a.446.446,0,0,0,.368-.511l0-.009a.461.461,0,0,0-.52-.366q-1.3.246-2.632.376a.45.45,0,0,0-.4.491h0a.467.467,0,0,0,.492.4m-16.1-2.005c.867.308,1.736.578,2.6.819a.458.458,0,0,0,.548-.318.445.445,0,0,0-.311-.547l-.008,0c-.837-.231-1.686-.5-2.534-.8a.45.45,0,0,0-.568.279.439.439,0,0,0,.258.565l.011,0m24.07.232c.867-.3,1.715-.636,2.545-.993a.453.453,0,1,0-.366-.829c-.8.357-1.63.684-2.469.974a.453.453,0,0,0-.277.578.443.443,0,0,0,.565.271h0m-31.473-3.634c.8.463,1.6.887,2.4,1.282a.439.439,0,0,0,.594-.181l.006-.012a.461.461,0,0,0-.2-.607c-.783-.386-1.563-.81-2.352-1.253a.445.445,0,1,0-.464.76l.02.011m38.818.058c.772-.5,1.513-1.031,2.228-1.581a.447.447,0,1,0-.551-.7c-.694.53-1.418,1.041-2.168,1.523a.453.453,0,0,0,.481.768l.009-.006m-45.566-4.54c.626.414,1.253.858,1.879,1.321.106.067.2.144.31.212a.445.445,0,1,0,.52-.723c-.1-.077-.193-.145-.29-.222q-.969-.709-1.927-1.33a.445.445,0,1,0-.492.742m51.822-.713q.94-1.013,1.773-2.082a.456.456,0,0,0-.085-.626.447.447,0,0,0-.628.075v0c-.54.694-1.108,1.369-1.715,2.024a.455.455,0,0,0,.028.636.443.443,0,0,0,.626-.029M100.836,71.9a21.972,21.972,0,0,1,2.284-1.311.442.442,0,0,0,.195-.6l0-.005a.46.46,0,0,0-.607-.2,23.48,23.48,0,0,0-2.381,1.378.437.437,0,0,0-.123.607l.007.01a.442.442,0,0,0,.612.126l.015-.01m30.606-2.641c.809.318,1.619.685,2.439,1.08a.451.451,0,0,0,.4-.81c-.839-.4-1.678-.771-2.5-1.1a.439.439,0,0,0-.574.237l0,.014a.444.444,0,0,0,.243.578m-23.415-.694c.8-.26,1.648-.511,2.554-.733a.455.455,0,0,0,.328-.55.45.45,0,0,0-.54-.328c-.935.231-1.8.491-2.622.752a.451.451,0,0,0,.28.858m15.741-1.4c.858.125,1.725.289,2.612.5a.451.451,0,0,0,.54-.337.459.459,0,0,0-.336-.54c-.906-.212-1.8-.376-2.681-.511a.449.449,0,1,0-.172.881.22.22,0,0,0,.037.006m-7.949-.218c.858-.077,1.745-.125,2.66-.135a.464.464,0,0,0,.444-.453.45.45,0,0,0-.453-.443c-.935.01-1.851.058-2.728.135a.44.44,0,0,0-.4.475l0,.016a.45.45,0,0,0,.482.4" fill="#000045" fill-rule="evenodd"/>
    <path id="Path_24501" data-name="Path 24501" d="M104.216,212.1c.877.05,1.783.078,2.709.087a.444.444,0,0,0,.453-.435v-.007a.45.45,0,0,0-.444-.453c-.916-.011-1.8-.039-2.67-.087a.451.451,0,0,0-.473.423.439.439,0,0,0,.4.472h.023m8.126-.1c.887-.067,1.783-.154,2.7-.26a.448.448,0,0,0,.4-.495v-.005a.454.454,0,0,0-.5-.4q-1.345.159-2.661.26a.447.447,0,0,0-.415.475v.008a.458.458,0,0,0,.482.414m-16.2-.945c.868.182,1.764.347,2.68.492a.453.453,0,0,0,.511-.377.447.447,0,0,0-.373-.509h0c-.906-.145-1.774-.3-2.632-.483a.451.451,0,0,0-.53.347.446.446,0,0,0,.342.53h0m24.262-.126c.868-.163,1.755-.347,2.651-.548a.439.439,0,0,0,.339-.52l0-.011a.451.451,0,0,0-.53-.347c-.887.2-1.764.375-2.632.54a.446.446,0,0,0-.357.52.457.457,0,0,0,.53.366m-32.071-2.2c.829.329,1.678.637,2.564.926a.446.446,0,1,0,.279-.848c-.868-.288-1.706-.587-2.506-.915a.46.46,0,0,0-.588.26.443.443,0,0,0,.247.576h0m39.965.358,2.6-.7a.444.444,0,0,0,.317-.543v-.005a.45.45,0,0,0-.548-.319q-1.317.361-2.6.694a.452.452,0,0,0-.319.551.461.461,0,0,0,.551.327m7.8-2.159c.85-.241,1.717-.492,2.584-.744a.451.451,0,0,0-.249-.867c-.869.251-1.725.5-2.584.752a.439.439,0,0,0-.312.536l0,.012a.449.449,0,0,0,.552.312l.005,0m-55.031-1.871c.742.473,1.523.926,2.342,1.379a.456.456,0,0,0,.607-.182.443.443,0,0,0-.167-.605l-.006,0c-.81-.442-1.571-.887-2.3-1.348a.449.449,0,0,0-.617.145.44.44,0,0,0,.132.608l.013.008m62.791-.4c.848-.251,1.717-.512,2.573-.772a.45.45,0,0,0,.311-.555v0a.462.462,0,0,0-.559-.3c-.867.26-1.725.512-2.584.772a.433.433,0,0,0-.306.529l.006.019a.449.449,0,0,0,.555.311h0m7.741-2.3c.858-.26,1.717-.512,2.584-.772a.448.448,0,0,0-.26-.858c-.858.262-1.726.512-2.584.772a.448.448,0,0,0,.26.858m-77-2.274c.626.587,1.3,1.194,2.043,1.8a.452.452,0,0,0,.578-.694q-1.1-.9-2-1.754a.445.445,0,0,0-.628.011l-.008.009a.434.434,0,0,0,.006.614l.013.012m84.75-.011,2.584-.752a.447.447,0,0,0-.241-.861l-.01,0c-.867.251-1.725.492-2.582.744a.459.459,0,0,0-.31.559.45.45,0,0,0,.558.308h0m7.76-2.218c.867-.241,1.726-.473,2.593-.713a.446.446,0,0,0,.32-.543v0a.459.459,0,0,0-.551-.319l-2.6.724a.436.436,0,0,0-.316.528l.006.02a.441.441,0,0,0,.541.311l.01,0m-97.8-4.01a21.762,21.762,0,0,0,1.59,2.248.456.456,0,0,0,.636.067.443.443,0,0,0,.068-.624v0a22.028,22.028,0,0,1-1.523-2.142.447.447,0,1,0-.771.453m105.6,1.918,2.6-.663a.445.445,0,0,0,.328-.537v0a.455.455,0,0,0-.548-.329q-1.3.319-2.612.666a.444.444,0,0,0-.323.537l0,.014a.455.455,0,0,0,.548.317m7.815-1.923q1.317-.3,2.623-.6a.444.444,0,0,0,.348-.524v-.007a.462.462,0,0,0-.54-.347c-.867.193-1.745.4-2.632.6a.449.449,0,1,0,.2.876m47.638-1.994c.85.28,1.678.6,2.489.934a.445.445,0,0,0,.376-.807l-.029-.012c-.819-.356-1.678-.674-2.545-.963a.441.441,0,0,0-.565.267l0,.013a.456.456,0,0,0,.28.568m-39.752.308c.887-.173,1.762-.336,2.64-.492a.45.45,0,1,0-.154-.887c-.887.165-1.765.329-2.651.5a.439.439,0,0,0-.36.507l0,.013a.45.45,0,0,0,.522.355m7.943-1.359c.9-.134,1.784-.249,2.66-.366a.447.447,0,1,0-.115-.887c-.887.106-1.775.232-2.671.366a.446.446,0,0,0-.386.5h0a.454.454,0,0,0,.512.386m24.021-.713c.9.126,1.775.271,2.642.434a.445.445,0,0,0,.52-.355.459.459,0,0,0-.358-.531c-.876-.163-1.773-.308-2.679-.434a.448.448,0,0,0-.126.887m-16.02-.212c.9-.076,1.793-.134,2.668-.182a.45.45,0,0,0,.425-.473.44.44,0,0,0-.454-.426h-.019c-.887.05-1.793.106-2.7.184a.45.45,0,0,0-.414.481.458.458,0,0,0,.492.414m8.029-.316c.9,0,1.793.028,2.671.067a.45.45,0,0,0,.037-.9c-.887-.039-1.793-.067-2.707-.067a.438.438,0,0,0-.444.432v.012a.451.451,0,0,0,.444.453" fill="#00b2ca" fill-rule="evenodd"/>
    <path id="Path_24502" data-name="Path 24502" d="M98.185,190.347a2.539,2.539,0,1,0,2.545,2.536,2.539,2.539,0,0,0-2.545-2.536Zm0,.9a1.643,1.643,0,1,1-1.639,1.647v-.008a1.641,1.641,0,0,1,1.639-1.639" fill="#00b2ca" fill-rule="evenodd"/>
    <path id="Path_24503" data-name="Path 24503" d="M211.314,121.1a1.976,1.976,0,1,0,1.975,1.977h0a1.975,1.975,0,0,0-1.974-1.976Zm0,.9a1.084,1.084,0,1,1-.008,0h.008" fill="#000045" fill-rule="evenodd"/>
    <path id="Path_24504" data-name="Path 24504" d="M197.159,101.556l11.877-5.5a.466.466,0,0,0,.221-.6.446.446,0,0,0-.59-.226l-.01,0-11.875,5.5a.446.446,0,0,0-.215.593l0,.007a.437.437,0,0,0,.577.217l.01,0" fill="#00b2ca" fill-rule="evenodd"/>
    <path id="Path_24505" data-name="Path 24505" d="M54.493,167.728a.44.44,0,0,0-.645.492l5.711,23.715a.448.448,0,0,0,.259.3.432.432,0,0,0,.4-.024l10.191-5.879,9.839-3.668a.439.439,0,0,0,.285-.386.445.445,0,0,0-.226-.427ZM54.954,169s19.67,10.767,24.058,13.171L70.06,185.5a.238.238,0,0,0-.067.035l-9.7,5.6Z" fill="#000045" fill-rule="evenodd"/>
    <path id="Path_24506" data-name="Path 24506" d="M204.058,48.162a.446.446,0,0,0-.648-.5L181.691,59.546a.479.479,0,0,0-.232.43.461.461,0,0,0,.3.388l8.27,3.078,8.565,4.945a.451.451,0,0,0,.4.028.438.438,0,0,0,.254-.31Zm-1.106.775-4.437,18.372-8.073-4.663a.219.219,0,0,0-.072-.035l-7.383-2.747Z" fill="#00b2ca" fill-rule="evenodd"/>
    <path id="Path_24507" data-name="Path 24507" d="M70.326,185.571,55,168.264a.441.441,0,0,0-.622-.048l-.006,0a.453.453,0,0,0-.042.637l15.324,17.307a.44.44,0,0,0,.622.04l.006-.005a.434.434,0,0,0,.058-.611l-.016-.018" fill="#000045" fill-rule="evenodd"/>
    <path id="Path_24508" data-name="Path 24508" d="M190.744,63.279l12.885-14.561a.45.45,0,0,0-.033-.633h0a.455.455,0,0,0-.635.042l-12.9,14.561a.449.449,0,0,0,.676.592" fill="#00b2ca" fill-rule="evenodd"/>
    <path id="Path_24509" data-name="Path 24509" d="M69.422,185.965,66.8,191.324l-1.943-2.352a.459.459,0,0,0-.636-.067.449.449,0,0,0-.06.634h0l2.386,2.89a.458.458,0,0,0,.4.158.445.445,0,0,0,.352-.243l2.922-5.987a.445.445,0,0,0-.2-.594.451.451,0,0,0-.6.2" fill="#000045" fill-rule="evenodd"/>
    <path id="Path_24510" data-name="Path 24510" d="M190.139,63.434l2.465,5.03a.463.463,0,0,0,.353.246.439.439,0,0,0,.4-.162l2.007-2.43a.445.445,0,0,0-.062-.626h0a.439.439,0,0,0-.619.048l-.007.008-1.572,1.9-2.155-4.4a.451.451,0,1,0-.822.371l.011.023" fill="#00b2ca" fill-rule="evenodd"/>
    <path id="Path_24511" data-name="Path 24511" d="M234.333,140.645a2.631,2.631,0,0,0-3.222-1.862l-.006,0-22.638,6.065a2.632,2.632,0,0,0-1.862,3.224v0l3.609,13.472a2.637,2.637,0,0,0,3.226,1.862c5.281-1.416,17.361-4.652,22.638-6.068a2.632,2.632,0,0,0,1.864-3.222h0c-.949-3.546-2.66-9.928-3.609-13.475" fill="#000045" fill-rule="evenodd"/>
    <path id="Path_24512" data-name="Path 24512" d="M206.558,146.261s9.815,3.971,14.008,5.664a3.1,3.1,0,0,0,3.616-.969c2.775-3.551,9.256-11.853,9.256-11.853a.444.444,0,0,0-.075-.623l0,0a.455.455,0,0,0-.633.076l-9.25,11.851a2.209,2.209,0,0,1-2.575.689L206.9,145.431a.451.451,0,0,0-.583.247.445.445,0,0,0,.242.581l.005,0" fill="#fff" fill-rule="evenodd"/>
    <path id="Path_24513" data-name="Path 24513" d="M127.132,89.865s1.184,6.815,2.525,9.842c0,0-2.187,6.7,2.428,5.311,0,0,3.748,10.68,13.743,5.678l1.769,5.282,19.044-3.4-4.255-10.44L152.758,85.18Z" fill="#fff" fill-rule="evenodd"/>
    <path id="Path_24514" data-name="Path 24514" d="M127.043,89.422a.455.455,0,0,0-.358.521s1.173,6.661,2.5,9.794a11.773,11.773,0,0,0-.488,3.152,2.36,2.36,0,0,0,3.124,2.67c.538,1.263,2.536,5.3,6.5,6.545a9.814,9.814,0,0,0,7.24-.781l1.611,4.8a.451.451,0,0,0,.507.3l19.044-3.412a.444.444,0,0,0,.319-.222.477.477,0,0,0,.02-.386l-4.257-10.44a.232.232,0,0,1-.028-.048L153.15,84.959a.453.453,0,0,0-.468-.222Zm.607.8,24.879-4.54s9.039,15.934,9.449,16.648l4.036,9.9L147.9,115.468l-1.641-4.916a.44.44,0,0,0-.258-.27.448.448,0,0,0-.369.01c-2.864,1.436-5.192,1.542-7.041.954-4.336-1.359-6.076-6.372-6.076-6.372a.442.442,0,0,0-.557-.279,2.175,2.175,0,0,1-1.671.01,1.9,1.9,0,0,1-.7-1.725,11.1,11.1,0,0,1,.5-3.037.452.452,0,0,0-.011-.318,53.9,53.9,0,0,1-2.426-9.3" fill="#000045" fill-rule="evenodd"/>
    <path id="Path_24515" data-name="Path 24515" d="M151.976,90.766a16.156,16.156,0,0,0-4.526,3.922.449.449,0,0,0,.7.563,15.167,15.167,0,0,1,4.253-3.688.448.448,0,0,0,.19-.6v0a.455.455,0,0,0-.611-.19" fill="#000045" fill-rule="evenodd"/>
    <path id="Path_24516" data-name="Path 24516" d="M151.927,94.2a14.64,14.64,0,0,0-2.517-1.234.447.447,0,0,0-.566.284l0,.006a.453.453,0,0,0,.293.565,13.159,13.159,0,0,1,2.317,1.143.449.449,0,0,0,.475-.763" fill="#000045" fill-rule="evenodd"/>
    <path id="Path_24517" data-name="Path 24517" d="M145.6,90.964a23.632,23.632,0,0,1,.327,5.157.235.235,0,0,1-.134.193.208.208,0,0,1-.232-.039,19.731,19.731,0,0,1-3.5-4.694s-9.679,1.388-14.808-1.234l.329,1.62a6.71,6.71,0,0,1-3.211-7.21L122.433,86.8s1.542-18.778,19.627-22.422C156.6,61.458,162.621,70.4,162.621,70.4S174,75.889,170.447,87.418c-3.046,9.881-4.481,11.384-7,17.033l-2.411.463-7.979-8.03a4.845,4.845,0,0,0,.856-6.536c-1.34-2.15-5.389-3.017-8.318.617" fill="#000045" fill-rule="evenodd"/>
    <path id="Path_24518" data-name="Path 24518" d="M131.233,93.848a5.8,5.8,0,0,1,2.56-1.567.452.452,0,0,0,.282-.569.443.443,0,0,0-.56-.282l-.008,0a6.578,6.578,0,0,0-2.968,1.852.452.452,0,0,0,.069.634.444.444,0,0,0,.624-.07" fill="#000045" fill-rule="evenodd"/>
    <path id="Path_24519" data-name="Path 24519" d="M140.7,102.459a4.128,4.128,0,0,1-4.036,3.557.472.472,0,0,0-.421.472.44.44,0,0,0,.454.424l.025,0a5,5,0,0,0,4.873-4.35.461.461,0,0,0-.4-.5.452.452,0,0,0-.492.4" fill="#000045" fill-rule="evenodd"/>
    <path id="Path_24520" data-name="Path 24520" d="M133.672,97.653a1.271,1.271,0,1,0-1.431-1.09,1.271,1.271,0,0,0,1.431,1.09" fill="#000045"/>
    <path id="Path_24521" data-name="Path 24521" d="M140.674,220.253l-4.754-61.458V130.259l31.666-4.241,20.127,8.512c3.635.366,15.415,46.047,19.549,85.723Z" fill="#fff" fill-rule="evenodd"/>
    <path id="Path_24522" data-name="Path 24522" d="M140.221,220.283a.46.46,0,0,0,.453.414h66.589a.447.447,0,0,0,.453-.492c-3.314-31.79-11.539-67.419-16.551-80.586a19.945,19.945,0,0,0-2.372-4.83,1.765,1.765,0,0,0-.954-.694l-20.08-8.493a.463.463,0,0,0-.23-.029l-31.666,4.241a.457.457,0,0,0-.4.444v28.534a.043.043,0,0,0,.011.028Zm.867-.483c-.414-5.311-4.637-59.918-4.715-61.026v-28.12c3.481-.472,29.171-3.913,31.157-4.173,1.608.684,20,8.454,20,8.454a.619.619,0,0,0,.134.037.465.465,0,0,1,.212.145,3.313,3.313,0,0,1,.481.588,23.759,23.759,0,0,1,1.966,4.234c4.975,13.061,13.1,48.293,16.444,79.862Z" fill="#000045" fill-rule="evenodd"/>
    <path id="Path_24523" data-name="Path 24523" d="M138.157,123.058a8.734,8.734,0,0,1,3.655-7.384c4-2.709,28.649-9.678,39.791-5.475,4.173,1.571,5.118,5.61,6.681,11.481.819,3.094.288,4.068,2.7,8.473s-1.426,8.281-6.44,8.261a94.3,94.3,0,0,1-30.654-5.562c-12.753-4.81-15.48-2.458-18.324-.993,0,0-2.072-6.131,2.593-8.8" fill="#00b2ca" fill-rule="evenodd"/>
    <path id="Path_24524" data-name="Path 24524" d="M140.084,123.236a17.582,17.582,0,0,1,6.527-.162.444.444,0,0,0,.529-.334.436.436,0,0,0-.308-.533l-.028-.006a18.786,18.786,0,0,0-6.915.151.454.454,0,0,0-.334.539.443.443,0,0,0,.52.347l.009,0" fill="#000045" fill-rule="evenodd"/>
    <path id="Path_24525" data-name="Path 24525" d="M187.555,126.274s-4.75,2.574-16.115-.033a.437.437,0,0,0-.533.313l-.005.021a.452.452,0,0,0,.334.538c11.816,2.7,16.75-.054,16.75-.054a.449.449,0,0,0-.431-.786" fill="#000045" fill-rule="evenodd"/>
    <path id="Path_24526" data-name="Path 24526" d="M11.96,220.7H246.017a.45.45,0,0,0,0-.9H11.96a.45.45,0,0,0,0,.9" fill="#000045" fill-rule="evenodd"/>
    <path id="Path_24527" data-name="Path 24527" d="M99.307,131.766a30.379,30.379,0,0,1-2.039-5.813,11.76,11.76,0,0,0-2.725-5.592c-.969-.969-2.584,0-2.584,0s-4.916-6.662-6.975-9.458a1.523,1.523,0,0,0-2.109-.323,1.658,1.658,0,0,0-.434,2.18c1.625,2.715,5.279,8.782,5.279,8.782a4.949,4.949,0,0,0-2.806,2.594s-2.19,1.151-2.3,3.21a4.02,4.02,0,0,0-.949,3.623c.5,2.2,3.25,4.088,4.795,5.008a13.865,13.865,0,0,1,3,2.736l4.714-1.413Z" fill="#fff" fill-rule="evenodd"/>
    <path id="Path_24528" data-name="Path 24528" d="M99.632,132.069a.431.431,0,0,0,.081-.494,29.424,29.424,0,0,1-2-5.694,12.262,12.262,0,0,0-2.857-5.844,2,2,0,0,0-1.685-.545,3.69,3.69,0,0,0-1.07.293l-6.763-9.145a1.941,1.941,0,0,0-2.712-.423l-.013.009a2.088,2.088,0,0,0-.555,2.766l5.017,8.348a5.229,5.229,0,0,0-2.523,2.483,4.945,4.945,0,0,0-2.382,3.331,4.516,4.516,0,0,0-.939,3.917,5.94,5.94,0,0,0,1.575,2.653,16.573,16.573,0,0,0,3.422,2.645,13.108,13.108,0,0,1,2.887,2.625.451.451,0,0,0,.475.152l4.714-1.413a.6.6,0,0,0,.2-.121Zm-.858-.4L93.932,136.9l-4.31,1.292a14.13,14.13,0,0,0-2.927-2.6,15.769,15.769,0,0,1-3.24-2.484,5.064,5.064,0,0,1-1.342-2.239,3.612,3.612,0,0,1,.818-3.21.463.463,0,0,0,.131-.293,3.913,3.913,0,0,1,2.069-2.836.4.4,0,0,0,.212-.252,4.419,4.419,0,0,1,2.523-2.311.454.454,0,0,0,.273-.272.424.424,0,0,0-.03-.384l-5.279-8.782a1.2,1.2,0,0,1,.313-1.585,1.07,1.07,0,0,1,1.484.222l6.975,9.458a.446.446,0,0,0,.6.121,2.9,2.9,0,0,1,1.07-.363,1.134,1.134,0,0,1,.959.292,11.216,11.216,0,0,1,2.6,5.35,28.9,28.9,0,0,0,1.948,5.652" fill="#000045" fill-rule="evenodd"/>
    <path id="Path_24529" data-name="Path 24529" d="M104.352,135.629a4.317,4.317,0,0,1,3.2,1.379c2.767,2.651,8.319,8.578,17.332,20.754,0,0,6.111-20.812,10.555-25.7s21.892,2.17,17.554,21.2-11.463,36.591-23.444,36.871S109.161,179.251,100.4,166.9s-10.16-19.713-9.283-22.247a1.992,1.992,0,0,1,.116-.288c-.241-.492-1.07-1.812-1.755-3.1A3.146,3.146,0,0,1,90,137.631a27.087,27.087,0,0,1,8.839-6.015,2.266,2.266,0,0,1,2.593.626c1.176,1.359,2.921,3.395,2.921,3.395" fill="#fff" fill-rule="evenodd"/>
    <path id="Path_24530" data-name="Path 24530" d="M104.564,135.185c-.424-.492-1.8-2.111-2.8-3.247a2.739,2.739,0,0,0-3.1-.744,27.571,27.571,0,0,0-8.994,6.122,3.564,3.564,0,0,0-.588,4.145c.607,1.166,1.34,2.343,1.658,2.92-.029.078-.048.117-.048.126-.366,1.071-.376,2.942.357,5.64,1.06,3.885,3.682,9.542,8.984,17.012,4.4,6.208,8.714,12.107,13.428,16.427,4.781,4.374,9.987,7.132,16.1,7,4.927-.115,9.072-3.046,12.532-7.808,5.09-6.978,8.734-17.929,11.346-29.41,3.1-13.659-4.78-21.274-11.316-22.9-2.922-.732-5.593-.26-7.019,1.3-1.348,1.483-2.872,4.433-4.318,7.826-2.747,6.46-5.283,14.567-6.073,17.188-8.724-11.721-14.121-17.485-16.85-20.088a4.712,4.712,0,0,0-3.3-1.5m-.549.733a.441.441,0,0,0,.328.154,3.949,3.949,0,0,1,2.9,1.264c2.757,2.64,8.29,8.56,17.274,20.7a.458.458,0,0,0,.444.173.444.444,0,0,0,.346-.319s2.989-10.169,6.306-17.938c1.4-3.286,2.842-6.141,4.153-7.576,1.244-1.37,3.585-1.678,6.13-1.041,6.228,1.55,13.622,8.838,10.663,21.833-2.584,11.355-6.161,22.18-11.192,29.091-3.278,4.5-7.173,7.316-11.838,7.431-5.87.137-10.864-2.554-15.462-6.766-4.675-4.281-8.945-10.132-13.3-16.282-5.215-7.344-7.808-12.907-8.849-16.733-.675-2.439-.713-4.147-.376-5.109a2.024,2.024,0,0,1,.106-.26.483.483,0,0,0-.01-.366c-.241-.5-1.07-1.823-1.764-3.124a2.69,2.69,0,0,1,.444-3.1,26.538,26.538,0,0,1,8.695-5.918,1.83,1.83,0,0,1,2.082.5c1.176,1.359,2.921,3.392,2.921,3.392" fill="#000045" fill-rule="evenodd"/>
    <path id="Path_24531" data-name="Path 24531" d="M124.5,157.987a46.913,46.913,0,0,1,4.88,12.915.445.445,0,1,0,.874-.173,47.613,47.613,0,0,0-4.977-13.2.449.449,0,1,0-.776.453" fill="#000045" fill-rule="evenodd"/>
    <path id="Path_24532" data-name="Path 24532" d="M93.43,143.671s5.472-5.268,9.1-6.378a.449.449,0,0,0,.3-.559.456.456,0,0,0-.56-.3c-3.77,1.151-9.469,6.592-9.469,6.592a.455.455,0,0,0-.011.635.447.447,0,0,0,.632.015l0,0" fill="#000045" fill-rule="evenodd"/>
  </g>
</svg>
