<?xml version="1.0" encoding="UTF-8"?>
<svg version="1.1" xmlns="http://www.w3.org/2000/svg" width="209" height="84">
<path d="M0 0 C1.15085083 0.46660034 1.15085083 0.46660034 2.32495117 0.94262695 C4.12950263 1.65591639 5.95688473 2.31362331 7.80078125 2.91796875 C10 5 10 5 10.32568359 7.29931641 C10.35754313 10.30925935 10.28083054 13.30392184 10.1875 16.3125 C10.02807405 24.06632719 10.02807405 24.06632719 13.0625 30.921875 C17.21146617 33.51497885 19.78391132 34.20967046 24.625 33.375 C25.40875 32.92125 26.1925 32.4675 27 32 C27 31.01 27 30.02 27 29 C25.4766114 28.1504179 23.94525755 27.31176313 22.37573242 26.55078125 C19.1556355 24.96147921 16.72809068 23.393062 14 21 C12.85755714 16.4819228 13.18685156 12.55919126 14 8 C35.70661837 18.217649 35.70661837 18.217649 39 27 C39.63490959 31.44436712 39.20754251 33.96653932 36.875 37.6875 C36.25625 38.780625 35.6375 39.87375 35 41 C35.5 43.25 35.5 43.25 37 45 C39.38613964 48.71177277 39.8608883 52.7174455 39 57 C36.32563567 62.52829941 34.0741348 65.12441205 28.66015625 68.296875 C28.05618515 68.65718811 27.45221405 69.01750122 26.8299408 69.38873291 C24.91649027 70.52535912 22.99026224 71.63785736 21.0625 72.75 C19.77316238 73.51015002 18.48474117 74.27185667 17.19726562 75.03515625 C14.8283524 76.43654172 12.45404409 77.82655903 10.07446289 79.20996094 C8.10595091 80.35608417 6.15266024 81.52901985 4.22045898 82.73535156 C2 84 2 84 0 84 C-1.48567666 79.19709821 -1.74363267 75.75897464 0 71 C5.35278731 66.02109617 12.1181291 62.73759728 18.53613281 59.33935547 C21.50005069 57.728173 24.24096112 55.93690103 27 54 C26.67 53.01 26.34 52.02 26 51 C22.929669 50.06675191 21.40141751 49.84739009 18.359375 51.00390625 C15.75891478 52.55717515 13.32251855 54.05152002 11 56 C10.34227572 59.02934491 10.34227572 59.02934491 10 62 C7.16666658 64.42584278 3.8278685 67 0 67 C-1.20563458 53.47010081 -1.20563458 53.47010081 0 48 C2.93870164 44.57151475 5.82225508 43.44884018 10 42 C9.28537598 41.70279053 8.57075195 41.40558105 7.83447266 41.09936523 C4.54266278 39.35858718 2.4168842 37.85608144 0 35 C-1.28565603 28.98784641 -0.94681534 23.17031232 -0.625 17.0625 C-0.57479042 15.40833736 -0.52917149 13.75402862 -0.48828125 12.09960938 C-0.37854615 8.06277776 -0.20633222 4.03300122 0 0 Z " fill="#151108" transform="translate(0,0)"/>
<path d="M0 0 C3.68623011 1.61272567 4.75355 2.630325 7 6 C7 6.99 7 7.98 7 9 C7.5656517 8.98747192 8.13130341 8.97494385 8.71409607 8.96203613 C84.49497876 7.29274739 84.49497876 7.29274739 113 9 C113 9.66 113 10.32 113 11 C112.34 11 111.68 11 111 11 C111 16.28 111 21.56 111 27 C108.69 27.66 106.38 28.32 104 29 C103.113125 29.268125 102.22625 29.53625 101.3125 29.8125 C99 30 99 30 96.8125 28.8125 C93.97569977 25.97569977 93.14235613 23.97615629 92.5625 20 C93 17 93 17 95.3125 14.6875 C98 13 98 13 101 12 C97.7 11.67 94.4 11.34 91 11 C91 16.28 91 21.56 91 27 C89.68 27 88.36 27 87 27 C86.505 19.575 86.505 19.575 86 12 C84.68 12 83.36 12 82 12 C82.515625 12.37125 83.03125 12.7425 83.5625 13.125 C85 15 85 15 85.0625 17.8125 C83.71280983 21.86157052 81.58316004 24.63360391 78 27 C76.68 27 75.36 27 74 27 C74 26.34 74 25.68 74 25 C73.34 25.33 72.68 25.66 72 26 C67.95399582 26.38169851 65.65194111 26.36064827 62.0625 24.375 C60 22 60 22 59.625 18.875 C60 16 60 16 61 14 C62.32 14.33 63.64 14.66 65 15 C65.495 17.97 65.495 17.97 66 21 C67.98 21 69.96 21 72 21 C70.68 20.67 69.36 20.34 68 20 C67.3125 18.25 67.3125 18.25 67 16 C67.99 14.68 68.98 13.36 70 12 C66.04 11.67 62.08 11.34 58 11 C58 16.28 58 21.56 58 27 C56.68 27 55.36 27 54 27 C53.505 19.575 53.505 19.575 53 12 C52.67 16.95 52.34 21.9 52 27 C46.15607231 27.17981316 41.50073228 27.02067717 36 25 C34 23 34 23 33.5625 20.125 C34 17 34 17 36.3125 14.6875 C39 13 39 13 42 12 C38.37 12 34.74 12 31 12 C31.495 12.495 31.495 12.495 32 13 C32.04092937 15.33297433 32.04241723 17.66705225 32 20 C30.68 20 29.36 20 28 20 C27.67 22.31 27.34 24.62 27 27 C21.24437157 27.23492361 16.43455304 26.99636642 11 25 C9 23 9 23 8.5625 20.125 C9 17 9 17 11.3125 14.6875 C14 13 14 13 17 12 C11.555 11.505 11.555 11.505 6 11 C6 16.28 6 21.56 6 27 C4.68 27 3.36 27 2 27 C1.505 21.06 1.505 21.06 1 15 C-0.98 14.34 -2.96 13.68 -5 13 C-4.505 14.485 -4.505 14.485 -4 16 C-3.34 16.33 -2.68 16.66 -2 17 C-2 17.99 -2 18.98 -2 20 C-4.3125 20.25 -4.3125 20.25 -7 20 C-10.02815613 17.0799923 -10.13151123 15.34244384 -11 11 C-11 16.28 -11 21.56 -11 27 C-12.65 27 -14.3 27 -16 27 C-16 21.72 -16 16.44 -16 11 C-16.66 11 -17.32 11 -18 11 C-18 16.28 -18 21.56 -18 27 C-27 27 -27 27 -31 25.5 C-31.763125 25.2215625 -32.52625 24.943125 -33.3125 24.65625 C-33.869375 24.4396875 -34.42625 24.223125 -35 24 C-35.8125 20.75 -35.8125 20.75 -36 17 C-33.43593129 14.29348303 -31.52812251 13.17604084 -28 12 C-30.97 11.67 -33.94 11.34 -37 11 C-37 10.34 -37 9.68 -37 9 C-30.07 9 -23.14 9 -16 9 C-15.67 7.35 -15.34 5.7 -15 4 C-10.86595175 -0.93418662 -5.99167195 -0.82779678 0 0 Z M-11 6 C-11 6.99 -11 7.98 -11 9 C-7.98509443 10.00496852 -5.95818308 10.10335303 -2.8125 10.0625 C-1.91144531 10.05347656 -1.01039062 10.04445313 -0.08203125 10.03515625 C0.94857422 10.01775391 0.94857422 10.01775391 2 10 C1.81171228 7.55519921 1.81171228 7.55519921 1 5 C-3.50663986 1.84535209 -6.76225972 2.90759493 -11 6 Z M74 14 C73.67 14.66 73.34 15.32 73 16 C73.969375 16.12375 74.93875 16.2475 75.9375 16.375 C77.4534375 16.684375 77.4534375 16.684375 79 17 C79.33 17.66 79.66 18.32 80 19 C80.33 18.01 80.66 17.02 81 16 C78.69 15.34 76.38 14.68 74 14 Z M-27.0625 16.5 C-28.16271484 16.91765625 -28.16271484 16.91765625 -29.28515625 17.34375 C-29.85105469 17.5603125 -30.41695312 17.776875 -31 18 C-31 19.32 -31 20.64 -31 22 C-28.03 22.33 -25.06 22.66 -22 23 C-22 20.36 -22 17.72 -22 15 C-23.78881237 15 -25.4083068 15.86983116 -27.0625 16.5 Z M13 19 C13.33 19.99 13.66 20.98 14 22 C16.70879335 23.35439668 19.00933268 23.06501451 22 23 C22 20.69 22 18.38 22 16 C17.72290301 16 16.44069624 16.70620251 13 19 Z M39 18 C39 19.32 39 20.64 39 22 C41.64 22.33 44.28 22.66 47 23 C47 20.36 47 17.72 47 15 C44.39060143 15 41.3598011 16.97026861 39 18 Z M98 18 C98 19.32 98 20.64 98 22 C100.64 22.33 103.28 22.66 106 23 C106 20.36 106 17.72 106 15 C103.39060143 15 100.3598011 16.97026861 98 18 Z " fill="#FFD862" transform="translate(79,7)"/>
<path d="M0 0 C4.74436857 4.42807734 6.16269552 7.13215132 6.4609375 13.70703125 C5.45148455 18.72863193 2.99334006 22.22166541 -0.94506836 25.30761719 C-2.62548218 26.2922998 -2.62548218 26.2922998 -4.33984375 27.296875 C-4.94381485 27.65718811 -5.54778595 28.01750122 -6.1700592 28.38873291 C-8.08350973 29.52535912 -10.00973776 30.63785736 -11.9375 31.75 C-13.22683762 32.51015002 -14.51525883 33.27185667 -15.80273438 34.03515625 C-18.1716476 35.43654172 -20.54595591 36.82655903 -22.92553711 38.20996094 C-24.89404909 39.35608417 -26.84733976 40.52901985 -28.77954102 41.73535156 C-31 43 -31 43 -33 43 C-34.48567666 38.19709821 -34.74363267 34.75897464 -33 30 C-27.64721269 25.02109617 -20.8818709 21.73759728 -14.46386719 18.33935547 C-11.49994931 16.728173 -8.75903888 14.93690103 -6 13 C-6.75150023 9.72226496 -6.75150023 9.72226496 -10 8 C-8.76736651 4.30209954 -7.79947549 4.0645154 -4.4375 2.3125 C-3.61121094 1.87550781 -2.78492187 1.43851563 -1.93359375 0.98828125 C-0.97646484 0.49908203 -0.97646484 0.49908203 0 0 Z " fill="#E4C259" transform="translate(33,41)"/>
<path d="M0 0 C1.15085083 0.46660034 1.15085083 0.46660034 2.32495117 0.94262695 C4.12950263 1.65591639 5.95688473 2.31362331 7.80078125 2.91796875 C10 5 10 5 10.32568359 7.29931641 C10.35754348 10.30929225 10.28127276 13.30389952 10.1875 16.3125 C9.98345555 24.06060296 9.98345555 24.06060296 13.1328125 30.81640625 C15.78042634 32.35634491 18.02616043 33.29651107 21 34 C21.76699219 34.19851562 22.53398437 34.39703125 23.32421875 34.6015625 C23.87722656 34.73304687 24.43023438 34.86453125 25 35 C21.13300761 37.66054156 17.30040707 40.10069851 13 42 C9.125 41.1875 9.125 41.1875 6 39 C4.95763184 38.46084961 3.91526367 37.92169922 2.84130859 37.36621094 C0 35 0 35 -0.68115234 31.33300781 C-0.6802075 29.87270224 -0.64659135 28.4121707 -0.5859375 26.953125 C-0.57744781 26.18192322 -0.56895813 25.41072144 -0.56021118 24.6161499 C-0.52669295 22.15932903 -0.45142904 19.70582372 -0.375 17.25 C-0.34489779 15.58207875 -0.31752241 13.91410591 -0.29296875 12.24609375 C-0.22690845 8.16279019 -0.12340799 4.08195661 0 0 Z " fill="#EFCC5D" transform="translate(0,0)"/>
<path d="M0 0 C47.19 0 94.38 0 143 0 C143 0.66 143 1.32 143 2 C95.81 2 48.62 2 0 2 C0 1.34 0 0.68 0 0 Z " fill="#9C8544" transform="translate(46,41)"/>
<path d="M0 0 C10 0 10 0 14 3 C14.1875 6.75 14.1875 6.75 14.06640625 8.87109375 C13.9224963 11.29327106 13.9224963 11.29327106 14.625 14.8125 C15 18 15 18 13 21 C10 22 10 22 0 22 C0 14.74 0 7.48 0 0 Z M4 4 C4 5.65 4 7.3 4 9 C5.65 8.67 7.3 8.34 9 8 C9 7.01 9 6.02 9 5 C7.35 4.67 5.7 4.34 4 4 Z M4 13 C4 14.65 4 16.3 4 18 C5.98 17.67 7.96 17.34 10 17 C10 15.68 10 14.36 10 13 C8.02 13 6.04 13 4 13 Z " fill="#000000" transform="translate(42,46)"/>
<path d="M0 0 C1.77007714 -0.08114106 3.54122098 -0.13925505 5.3125 -0.1875 C6.29863281 -0.22230469 7.28476563 -0.25710937 8.30078125 -0.29296875 C11 0 11 0 12.84765625 1.25390625 C14.26900096 3.40760484 14.28511565 4.57256822 14.125 7.125 C14.08375 8.40375 14.0425 9.6825 14 11 C14.33 11.33 14.66 11.66 15 12 C15.3125 15.375 15.3125 15.375 15 19 C12.84318947 21.17668897 11.50895347 21.93432858 8.45703125 22.328125 C7.58433594 22.30234375 6.71164063 22.2765625 5.8125 22.25 C4.49185547 22.22679687 4.49185547 22.22679687 3.14453125 22.203125 C1 22 1 22 0 21 C-0.08685603 19.43827255 -0.10702219 17.87270656 -0.09765625 16.30859375 C-0.09443359 15.36435547 -0.09121094 14.42011719 -0.08789062 13.44726562 C-0.07951172 12.45404297 -0.07113281 11.46082031 -0.0625 10.4375 C-0.05798828 9.44041016 -0.05347656 8.44332031 -0.04882812 7.41601562 C-0.03700007 4.94395151 -0.02051849 2.47200482 0 0 Z M4 4 C4 5.65 4 7.3 4 9 C5.98 8.67 7.96 8.34 10 8 C9.67 6.68 9.34 5.36 9 4 C7.35 4 5.7 4 4 4 Z M4 13 C4 14.65 4 16.3 4 18 C5.65 18 7.3 18 9 18 C9.66 16.68 10.32 15.36 11 14 C9.87465895 12.64381501 9.87465895 12.64381501 6.9375 12.9375 C5.968125 12.958125 4.99875 12.97875 4 13 Z " fill="#000000" transform="translate(118,46)"/>
<path d="M0 0 C3 2 3 2 4 5 C4.06802967 6.72795352 4.08495645 8.45835365 4.0625 10.1875 C4.05347656 11.08855469 4.04445312 11.98960938 4.03515625 12.91796875 C4.02355469 13.60503906 4.01195312 14.29210937 4 15 C0.15286149 17.10917681 -2.5805909 17.47350812 -7 17 C-9.4375 15 -9.4375 15 -11 13 C-10.4375 10.125 -10.4375 10.125 -9 7 C-5.375 5.625 -5.375 5.625 -2 5 C-4.31 5 -6.62 5 -9 5 C-9 3.68 -9 2.36 -9 1 C-5.98131566 -0.50934217 -3.32702771 -0.17510672 0 0 Z M-5 10 C-5 10.99 -5 11.98 -5 13 C-3.68 13 -2.36 13 -1 13 C-1 12.01 -1 11.02 -1 10 C-2.32 10 -3.64 10 -5 10 Z " fill="#000000" transform="translate(145,51)"/>
<path d="M0 0 C2.2109375 1.62890625 2.2109375 1.62890625 4 4 C4.390625 7.015625 4.390625 7.015625 4.25 10.25 C4.21390625 11.32765625 4.1778125 12.4053125 4.140625 13.515625 C4.07101563 14.74539062 4.07101563 14.74539062 4 16 C1.35559361 16.8814688 -0.28060752 17.16174818 -3 17.1875 C-3.680625 17.20167969 -4.36125 17.21585938 -5.0625 17.23046875 C-7 17 -7 17 -10 15 C-10.25660094 11.92078868 -10.39431504 9.78863007 -9 7 C-6.6859378 6.26924352 -4.35171131 5.59861742 -2 5 C-4.31 5 -6.62 5 -9 5 C-9 3.68 -9 2.36 -9 1 C-5.90826248 -0.54586876 -3.40570448 -0.29359521 0 0 Z M-5 10 C-5 10.99 -5 11.98 -5 13 C-3.68 13 -2.36 13 -1 13 C-1 12.01 -1 11.02 -1 10 C-2.32 10 -3.64 10 -5 10 Z " fill="#000000" transform="translate(175,51)"/>
<path d="M0 0 C1.32 0 2.64 0 4 0 C4.33 3.3 4.66 6.6 5 10 C6.65 8.35 8.3 6.7 10 5 C11.32 5.66 12.64 6.32 14 7 C12.68 9.31 11.36 11.62 10 14 C11.65 16.31 13.3 18.62 15 21 C12.8125 21.8125 12.8125 21.8125 10 22 C7.1875 19.5625 7.1875 19.5625 5 17 C4.67 18.65 4.34 20.3 4 22 C2.68 22 1.36 22 0 22 C0 14.74 0 7.48 0 0 Z " fill="#000000" transform="translate(102,46)"/>
<path d="M0 0 C3.32635764 2.18839318 3.90585122 3.62340488 4.875 7.5 C5.04878049 12.36585366 5.04878049 12.36585366 3 15 C0.30412197 17.09679403 -1.092944 16.99510821 -4.5625 16.8125 C-8 16 -8 16 -9.875 14.875 C-11.64983667 11.91693888 -11.88200002 9.42199954 -12 6 C-9.23686788 -0.05257513 -6.48314875 -0.55889213 0 0 Z M-5 4 C-7.28728734 5.83883881 -7.28728734 5.83883881 -7.125 8.625 C-7.08375 9.40875 -7.0425 10.1925 -7 11 C-5.02 11.99 -5.02 11.99 -3 13 C-2.01 12.34 -1.02 11.68 0 11 C0.41666667 8.5 0.41666667 8.5 0 6 C-0.66 5.34 -1.32 4.68 -2 4 C-2.99 4 -3.98 4 -5 4 Z " fill="#000000" transform="translate(70,51)"/>
<path d="M0 0 C0.90105469 0.02707031 1.80210937 0.05414063 2.73046875 0.08203125 C3.76107422 0.13423828 3.76107422 0.13423828 4.8125 0.1875 C4.8125 1.5075 4.8125 2.8275 4.8125 4.1875 C0.3575 4.6825 0.3575 4.6825 -4.1875 5.1875 C-4.1875 5.8475 -4.1875 6.5075 -4.1875 7.1875 C-1.2175 7.5175 1.7525 7.8475 4.8125 8.1875 C4.8125 9.5075 4.8125 10.8275 4.8125 12.1875 C1.5125 12.1875 -1.7875 12.1875 -5.1875 12.1875 C-4.8575 13.1775 -4.5275 14.1675 -4.1875 15.1875 C-1.2175 15.5175 1.7525 15.8475 4.8125 16.1875 C4.8125 17.1775 4.8125 18.1675 4.8125 19.1875 C3.02156809 19.26836147 1.22960372 19.32662702 -0.5625 19.375 C-2.05910156 19.42720703 -2.05910156 19.42720703 -3.5859375 19.48046875 C-4.44445312 19.38378906 -5.30296875 19.28710938 -6.1875 19.1875 C-8.55934142 15.62973788 -8.48574394 13.90729393 -8.5 9.6875 C-8.51675781 8.5428125 -8.53351563 7.398125 -8.55078125 6.21875 C-8.1875 3.1875 -8.1875 3.1875 -6.9921875 1.29296875 C-4.55181891 -0.20188907 -2.83971455 -0.11063823 0 0 Z " fill="#FFD861" transform="translate(204.1875,14.8125)"/>
<path d="M0 0 C1.703125 1.0703125 1.703125 1.0703125 3 3 C3.29296875 6.35546875 3.29296875 6.35546875 3.1875 10.1875 C3.16042969 11.45980469 3.13335937 12.73210938 3.10546875 14.04296875 C3.07066406 15.01878906 3.03585938 15.99460937 3 17 C1.68 17 0.36 17 -1 17 C-1.33 13.37 -1.66 9.74 -2 6 C-3.65 5.67 -5.3 5.34 -7 5 C-7 8.96 -7 12.92 -7 17 C-8.32 17 -9.64 17 -11 17 C-11 12.05 -11 7.1 -11 2 C-6.74130098 -0.12934951 -4.6658917 -0.42417197 0 0 Z " fill="#000000" transform="translate(88,51)"/>
<path d="M0 0 C4.29 0 8.58 0 13 0 C12.01574101 4.92129494 11.1837982 6.40538913 8 10 C9.98 10.66 11.96 11.32 14 12 C14 12.99 14 13.98 14 15 C9.38 15 4.76 15 0 15 C1.07597185 9.62014075 2.08314366 8.51512748 6 5 C3.03 4.505 3.03 4.505 0 4 C0 2.68 0 1.36 0 0 Z " fill="#000000" transform="translate(150,52)"/>
<path d="M0 0 C3.625 0.1875 3.625 0.1875 6.625 2.1875 C7.27108076 8.97134798 7.27108076 8.97134798 5.5625 12.1875 C2.49284865 13.77183618 0.00818857 13.54998449 -3.375 13.1875 C-5.52823612 11.75200925 -6.16760731 10.63191292 -7.25 8.3125 C-7.43065151 5.24142433 -6.10580642 3.65057068 -4.375 1.1875 C-3.375 0.1875 -3.375 0.1875 0 0 Z M-2.375 4.1875 C-2.96570014 6.13353274 -2.96570014 6.13353274 -3.375 8.1875 C-2.30854885 9.48383621 -2.30854885 9.48383621 0.1875 9.25 C0.991875 9.229375 1.79625 9.20875 2.625 9.1875 C3.21570014 7.24146726 3.21570014 7.24146726 3.625 5.1875 C2.55854885 3.89116379 2.55854885 3.89116379 0.0625 4.125 C-0.741875 4.145625 -1.54625 4.16625 -2.375 4.1875 Z " fill="#0C0C09" transform="translate(202.375,35.8125)"/>
<path d="M0 0 C0.33 0.99 0.66 1.98 1 3 C0.67 3.66 0.34 4.32 0 5 C-1.32 5 -2.64 5 -4 5 C-4.33 8.63 -4.66 12.26 -5 16 C-6.32 16.33 -7.64 16.66 -9 17 C-10 16 -10 16 -10.09765625 12.83984375 C-10.08025391 10.90818359 -10.08025391 10.90818359 -10.0625 8.9375 C-10.05347656 7.64714844 -10.04445312 6.35679688 -10.03515625 5.02734375 C-10.02355469 4.02832031 -10.01195312 3.02929688 -10 2 C-6.48375245 0.05841983 -4.0284349 -0.18311068 0 0 Z " fill="#000000" transform="translate(191,51)"/>
<path d="M0 0 C0.99 0 1.98 0 3 0 C3 1.98 3 3.96 3 6 C4.65 6.33 6.3 6.66 8 7 C8.33 4.69 8.66 2.38 9 0 C9.99 0 10.98 0 12 0 C12.08131463 1.43655854 12.13933559 2.8744483 12.1875 4.3125 C12.22230469 5.11300781 12.25710937 5.91351563 12.29296875 6.73828125 C12 9 12 9 10.671875 10.765625 C8.0499064 12.70147097 6.15943904 12.45134843 3 12 C0.625 10.375 0.625 10.375 -1 8 C-1.31452272 4.85477278 -1.42041821 2.84083641 0 0 Z " fill="#000000" transform="translate(197,51)"/>
<path d="M0 0 C1.65 0 3.3 0 5 0 C5 5.28 5 10.56 5 16 C3.68 16.33 2.36 16.66 1 17 C0 16 0 16 -0.09765625 12.40234375 C-0.0909822 10.91403133 -0.07902183 9.42573568 -0.0625 7.9375 C-0.05798828 7.17888672 -0.05347656 6.42027344 -0.04882812 5.63867188 C-0.0370068 3.75908129 -0.01907078 1.87953101 0 0 Z " fill="#000000" transform="translate(94,51)"/>
<path d="M0 0 C3.5625 0.25 3.5625 0.25 6.5625 2.25 C6.5625 3.57 6.5625 4.89 6.5625 6.25 C5.95921875 6.16621094 5.3559375 6.08242188 4.734375 5.99609375 C3.53554687 5.84333984 3.53554687 5.84333984 2.3125 5.6875 C1.52359375 5.58308594 0.7346875 5.47867188 -0.078125 5.37109375 C-2.44282874 5.24972651 -4.1886037 5.55366743 -6.4375 6.25 C-5.55456679 1.83533396 -4.79203966 0.34851198 0 0 Z " fill="#FFD961" transform="translate(202.4375,35.75)"/>
<path d="M0 0 C0.99 0.33 1.98 0.66 3 1 C2.67 1.66 2.34 2.32 2 3 C1.78835848 7.40747905 1.81420359 11.8187207 1.81469727 16.23071289 C1.81251196 18.42549052 1.79435494 20.61976454 1.77539062 22.81445312 C1.77245635 24.20833161 1.77047178 25.60221249 1.76953125 26.99609375 C1.76542236 28.26638428 1.76131348 29.5366748 1.75708008 30.84545898 C1.75363766 34.16040009 1.75363766 34.16040009 4 37 C2.68 36.34 1.36 35.68 0 35 C0 23.45 0 11.9 0 0 Z " fill="#D9B955" transform="translate(0,0)"/>
<path d="M0 0 C1.98 0.495 1.98 0.495 4 1 C4 2.32 4 3.64 4 5 C2.35 5 0.7 5 -1 5 C-0.67 3.35 -0.34 1.7 0 0 Z " fill="#000000" transform="translate(95,45)"/>
<path d="M0 0 C0.99 0 1.98 0 3 0 C3 1.65 3 3.3 3 5 C1.68 4.67 0.36 4.34 -1 4 C-0.67 2.68 -0.34 1.36 0 0 Z " fill="#000000" transform="translate(206,63)"/>
</svg>
