<?xml version="1.0" encoding="UTF-8"?>
<svg id="Layer_1" data-name="Layer 1" xmlns="http://www.w3.org/2000/svg" viewBox="0 0 1920 1920">
  <defs>
    <style>
      .cls-1 {
        fill: #fed700;
      }

      .cls-2 {
        fill: #002f34;
      }
    </style>
  </defs>
  <rect class="cls-1" width="1920" height="1920" rx="149.22" ry="149.22"/>
  <g>
    <path class="cls-2" d="m1203.66,1378.19c-64.44,36.25-616.21,354.42-616.21,354.42v-216.14s464.51-268.5,503.44-289.98c38.93-21.48,48.33-36.25,48.33-60.41s-9.4-38.93-48.33-60.41c-37.59-20.14-503.44-288.64-503.44-288.64V187.39l189.29,114.11v408.12c166.47,95.32,389.33,222.86,428.26,245.68,64.44,36.25,128.88,119.48,128.88,210.77s-65.78,175.87-130.22,212.12h0Z"/>
    <path class="cls-2" d="m1203.66,960.67c-38.93,21.48-261.79,149.02-428.26,245.68v96.66l-189.29,114.11v-318.17s464.51-268.5,503.44-289.98,48.33-36.25,48.33-60.41-6.71-38.93-45.65-60.41c-17.45-9.4-119.48-67.13-226.88-130.22v-214.8c147.68,84.58,306.09,175.87,338.31,194.66,64.44,36.25,128.88,119.48,128.88,210.77,1.34,92.63-64.44,175.87-128.88,212.12h0Z"/>
  </g>
</svg>