<?xml version="1.0" encoding="UTF-8"?>
<svg id="Layer_1" data-name="Layer 1" xmlns="http://www.w3.org/2000/svg" viewBox="0 0 163 163">
  <defs>
    <style>
      .cls-1 {
        fill: #fed700;
      }

      .cls-2 {
        fill: #002f34;
      }
    </style>
  </defs>
  <circle class="cls-1" cx="81.5" cy="81.5" r="81.5"/>
  <g>
    <path class="cls-2" d="m103.6,111.1c-4.8,2.7-45.9,26.4-45.9,26.4v-16.1s34.6-20,37.5-21.6,3.6-2.7,3.6-4.5-.7-2.9-3.6-4.5c-2.8-1.5-37.5-21.5-37.5-21.5V22.4l14.1,8.5v30.4c12.4,7.1,29,16.6,31.9,18.3,4.8,2.7,9.6,8.9,9.6,15.7s-4.9,13.1-9.7,15.8h0Z"/>
    <path class="cls-2" d="m103.6,80c-2.9,1.6-19.5,11.1-31.9,18.3v7.2l-14.1,8.5v-23.7s34.6-20,37.5-21.6,3.6-2.7,3.6-4.5-.5-2.9-3.4-4.5c-1.3-.7-8.9-5-16.9-9.7v-16c11,6.3,22.8,13.1,25.2,14.5,4.8,2.7,9.6,8.9,9.6,15.7.1,6.9-4.8,13.1-9.6,15.8h0Z"/>
  </g>
</svg>